<svg xmlns="http://www.w3.org/2000/svg" xmlns:xlink="http://www.w3.org/1999/xlink" xmlns:svgjs="http://svgjs.com/svgjs" id="SvgjsSvg1148" width="360" height="360"><defs id="SvgjsDefs1149"></defs><g id="SvgjsG1150"><svg xmlns="http://www.w3.org/2000/svg" viewBox="0 0 3000 3000" width="360" height="360"><polygon fill="#58595b" points="2819.8 2527.4 2975 2524.1 2637.3 359 2427.6 1613.3 2484.8 2071.8" class="color58595b svgShape"></polygon><polygon fill="#267956" points="2640.3 2562.5 2895.9 2574.3 2637.3 359 2458 1866.8" class="color2f9395 svgShape"></polygon><polygon fill="#58595b" points="2646.7 2597.4 2801.8 2594.1 2637.3 359 2254.4 1683.3 2311.6 2141.8" class="color58595b svgShape"></polygon><polygon fill="#267956" points="2467.1 2632.6 2722.8 2644.3 2637.3 359 2284.8 1936.8" class="color2f9395 svgShape"></polygon><polygon fill="#eeeeee" points="2641.7 567.3 2558.5 2693.5 25 2586.7 281.6 616.8" class="coloreee svgShape"></polygon><polygon fill="#40916c" points="2641.7 567.3 2637.3 359 277 394.2 281.6 616.8" class="color3fb2af svgShape"></polygon><path fill="#e0e0e0" d="M2352.6 363.3l0 1.7c1.6 74.8 39.4 134.9 84.3 134l-.4-18.8c-35.8.8-66.1-51.1-67.4-115.5l0-1.6L2352.6 363.3zM2175.2 365.9l.1 2.8c1.6 74.8 39.3 134.9 84.3 134l-.4-18.8c-35.8.8-66.1-51.1-67.4-115.5l-.1-2.7L2175.2 365.9zM1997.8 372.4c1.6 74.8 39.3 134.9 84.2 134l-.4-18.8c-35.8.8-66-51.1-67.4-115.5 0-1.2-.1-2.5 0-3.8l-16.5.3C1997.7 369.8 1997.8 371.1 1997.8 372.4zM1820.3 376.1c1.6 74.8 39.3 134.9 84.3 134l-.4-18.8c-35.8.8-66.1-51.1-67.4-115.5 0-1.6-.1-3.3 0-4.9l-16.5.3C1820.2 372.7 1820.2 374.4 1820.3 376.1zM1642.8 379.8c1.6 74.8 39.3 134.9 84.2 134l-.4-18.8c-35.8.8-66-51.1-67.4-115.5 0-2-.1-3.9 0-5.9l-16.5.2C1642.7 375.8 1642.8 377.8 1642.8 379.8zM1465.3 383.6c1.6 74.8 39.4 134.9 84.3 134l-.4-18.8c-35.8.8-66.1-51.1-67.4-115.5 0-2.3-.1-4.7-.1-7l-16.5.3C1465.2 378.9 1465.2 381.2 1465.3 383.6zM1287.8 387.3c1.6 74.8 39.3 134.9 84.2 134l-.4-18.8c-35.8.8-66-51.1-67.4-115.5-.1-2.7 0-5.5 0-8.1l-16.5.3C1287.8 381.8 1287.8 384.6 1287.8 387.3zM1110.3 391c1.6 74.8 39.4 134.9 84.3 134l-.4-18.8c-35.8.8-66.1-51.1-67.4-115.5-.1-3.1 0-6.1.1-9.1l-16.6.3C1110.3 384.8 1110.3 387.9 1110.3 391zM932.9 394.7c1.6 74.8 39.3 134.9 84.2 134l-.4-18.8c-35.8.8-66-51.1-67.4-115.5-.1-3.5-.1-6.9 0-10.2l-16.5.3C932.8 387.8 932.8 391.2 932.9 394.7zM755.3 398.4c1.6 74.8 39.4 134.9 84.3 134l-.4-18.8c-35.8.8-66.1-51.1-67.4-115.5-.1-3.8-.1-7.6.1-11.3l-16.5.3C755.3 390.8 755.3 394.6 755.3 398.4zM577.9 402.2c1.6 74.8 39.3 134.9 84.2 134l-.4-18.8c-35.8.8-66-51.1-67.4-115.5-.1-4.2-.1-8.4.1-12.4l-16.5.3C577.8 393.8 577.8 397.9 577.9 402.2zM400.4 405.9c1.6 74.8 39.4 134.9 84.3 134l-.4-18.8c-35.8.8-66.1-51.1-67.4-115.5-.1-4.5 0-9 .1-13.4l-16.5.3C400.3 396.8 400.3 401.3 400.4 405.9z" class="colore0e0e0 svgShape"></path><g fill="#000000" class="color000 svgShape"><path fill="#414042" d="M400.4 405.9c1.6 74.8 39.4 134.9 84.3 134l-.4-18.8c-35.8.8-66.1-51.1-67.4-115.5-.1-4.5 0-9 .1-13.4 2.5-58.2 29.1-104.2 62.4-104.9 33.4-.7 62 44.5 66.7 102.9l16.6-.3c-5.3-69-41.3-122.4-83.6-121.5-42.2.9-75.8 55.3-78.5 123.9C400.3 396.8 400.3 401.3 400.4 405.9zM577.9 402.2c1.6 74.8 39.3 134.9 84.2 134l-.4-18.8c-35.8.8-66-51.1-67.4-115.5-.1-4.2-.1-8.4.1-12.4 2.2-58.7 28.9-105.2 62.4-105.9 33.7-.7 62.4 45 66.9 104.1l16.5-.3c-4.9-69.5-41.2-123.5-83.7-122.6-42.3.9-76.1 55.8-78.5 125C577.8 393.8 577.8 397.9 577.9 402.2zM755.3 398.4c1.6 74.8 39.4 134.9 84.3 134l-.4-18.8c-35.8.8-66.1-51.1-67.4-115.5-.1-3.8-.1-7.6.1-11.3 1.9-59.3 28.8-106.3 62.5-107 33.9-.7 62.7 45.6 66.9 105.1l16.5-.3c-4.7-70-41-124.5-83.8-123.6-42.6.9-76.5 56.4-78.5 126.1C755.3 390.8 755.3 394.6 755.3 398.4zM932.9 394.7c1.6 74.8 39.3 134.9 84.2 134l-.4-18.8c-35.8.8-66-51.1-67.4-115.5-.1-3.5-.1-6.9 0-10.2 1.6-59.7 28.5-107.4 62.4-108.1 34.1-.7 63.1 46.1 67 106.2l16.6-.3c-4.4-70.5-41-125.7-84-124.8-42.8.9-76.8 57-78.5 127.1C932.8 387.8 932.8 391.2 932.9 394.7zM1110.3 391c1.6 74.8 39.4 134.9 84.3 134l-.4-18.8c-35.8.8-66.1-51.1-67.4-115.5-.1-3.1 0-6.1.1-9.1 1.3-60.3 28.4-108.5 62.5-109.2 34.3-.7 63.4 46.7 67 107.2l16.5-.3c-4-71-40.7-126.7-83.9-125.8-43 .9-77.3 57.5-78.7 128.3C1110.3 384.8 1110.3 387.9 1110.3 391zM1287.8 387.3c1.6 74.8 39.3 134.9 84.2 134l-.4-18.8c-35.8.8-66-51.1-67.4-115.5-.1-2.7 0-5.5 0-8.1 1-60.7 28.1-109.5 62.5-110.2 34.5-.7 63.8 47.3 67.1 108.4l16.6-.3c-3.8-71.5-40.6-127.8-84.1-126.9-43.2.9-77.5 58.1-78.6 129.3C1287.8 381.8 1287.8 384.6 1287.8 387.3zM1465.3 383.6c1.6 74.8 39.4 134.9 84.3 134l-.4-18.8c-35.8.8-66.1-51.1-67.4-115.5 0-2.3-.1-4.7-.1-7 .8-61.3 28.1-110.7 62.6-111.4 34.6-.7 64.1 47.9 67.2 109.4l16.5-.3c-3.4-72-40.4-128.9-84-127.9-43.5.9-78 58.8-78.7 130.4C1465.2 378.9 1465.2 381.2 1465.3 383.6zM1642.8 379.8c1.6 74.8 39.3 134.9 84.2 134l-.4-18.8c-35.8.8-66-51.1-67.4-115.5 0-2-.1-3.9 0-5.9.4-61.8 27.7-111.7 62.5-112.4 34.8-.7 64.5 48.4 67.3 110.4l16.5-.3c-3.1-72.5-40.2-129.9-84.1-129-43.7.9-78.2 59.3-78.6 131.4C1642.7 375.8 1642.8 377.8 1642.8 379.8zM1820.3 376.1c1.6 74.8 39.3 134.9 84.3 134l-.4-18.8c-35.8.8-66.1-51.1-67.4-115.5 0-1.6-.1-3.3 0-4.9.1-62.2 27.6-112.7 62.6-113.4 35-.7 64.7 49 67.2 111.6l16.5-.3c-2.8-73.1-40-131-84.1-130.1-44 .9-78.6 59.8-78.6 132.5C1820.2 372.7 1820.2 374.4 1820.3 376.1zM1997.8 372.4c1.6 74.8 39.3 134.9 84.2 134l-.4-18.8c-35.8.8-66-51.1-67.4-115.5 0-1.2-.1-2.5 0-3.8-.2-62.8 27.3-113.8 62.5-114.6 35.3-.7 65.2 49.6 67.4 112.6l16.5-.3c-2.5-73.5-39.9-132.1-84.3-131.1-44.2.9-78.9 60.5-78.5 133.6C1997.7 369.8 1997.8 371.1 1997.8 372.4zM2175.2 365.9l.1 2.8c1.6 74.8 39.3 134.9 84.3 134l-.4-18.8c-35.8.8-66.1-51.1-67.4-115.5l-.1-2.7c-.5-63.2 27.3-114.9 62.6-115.6 35.4-.7 65.4 50.1 67.3 113.7l16.5-.3c-2.1-74-39.6-133.2-84.2-132.3C2209.5 232.1 2174.5 292.3 2175.2 365.9zM2352.6 363.3l0 1.7c1.6 74.8 39.4 134.9 84.3 134l-.4-18.8c-35.8.8-66.1-51.1-67.4-115.5l0-1.6c-.8-63.7 27.1-116 62.6-116.7 35.7-.7 65.8 50.7 67.4 114.8l16.5-.3c-1.8-74.5-39.6-134.2-84.3-133.3C2386.7 228.4 2351.7 289.1 2352.6 363.3z" class="color414042 svgShape"></path></g><g fill="#000000" class="color000 svgShape"><path fill="#bdbdbd" d="M2214.5,1127.5c-4.5-5.6-6.8-13.1-6.1-20.7l14-164.9c1.1-13.3,10.8-23.6,22.6-23.8l222.8-4.7       c6.6-0.1,13.1,3,17.6,8.6c4.5,5.6,6.8,13.1,6.1,20.7l-14,164.9c-1.1,13.3-10.8,23.6-22.6,23.8L2232,1136       C2225.4,1136.2,2219,1133.1,2214.5,1127.5z" class="colorbdbdbd svgShape"></path><path fill="#bdbdbd" d="M2220.5 1121.1c2.9 3.6 7 5.6 11.3 5.5l222.8-4.7c7.6-.2 13.9-6.8 14.6-15.3l13.9-165c.5-4.9-1-9.8-3.9-13.4-3-3.6-7-5.6-11.3-5.5l-222.8 4.7c-7.7.2-13.9 6.8-14.6 15.3l-14 165C2216.2 1112.7 2217.6 1117.5 2220.5 1121.1zM1847.3 1119.8c-4.5-5.6-6.8-13.1-6.1-20.7l14-164.9c1.1-13.3 10.8-23.6 22.6-23.8l222.8-4.7c6.6-.1 13.1 3 17.6 8.6 4.5 5.6 6.8 13.1 6.1 20.6l-14 164.9c-1.1 13.3-10.8 23.6-22.6 23.8l-222.8 4.7C1858.2 1128.5 1851.8 1125.4 1847.3 1119.8z" class="colorbdbdbd svgShape"></path><path fill="#bdbdbd" d="M1853.4 1113.4c2.9 3.6 7 5.6 11.3 5.5l222.8-4.7c7.6-.2 13.9-6.7 14.6-15.3l13.9-164.9c.5-4.9-1-9.8-3.9-13.4-3-3.6-7-5.6-11.3-5.5l-222.8 4.7c-7.7.2-13.9 6.8-14.6 15.3l-14 164.9C1849 1105 1850.4 1109.8 1853.4 1113.4zM1480.1 1112.1c-4.5-5.6-6.8-13.1-6.1-20.7l14-164.9c1.1-13.3 10.8-23.6 22.6-23.8l222.8-4.7c6.6-.1 13.1 3 17.6 8.6 4.5 5.6 6.8 13.1 6.1 20.7l-14 164.9c-1.1 13.3-10.8 23.6-22.6 23.8l-222.8 4.7C1491.1 1120.8 1484.7 1117.7 1480.1 1112.1zM1510.8 912.2c-7.6.2-13.9 6.8-14.6 15.4l-14 164.9c-.4 4.9 1 9.7 4 13.3 2.9 3.6 7.1 5.6 11.4 5.5l222.8-4.7c7.6-.2 13.9-6.8 14.6-15.4l14-164.9c.4-4.9-1-9.7-4-13.3-2.9-3.6-7.1-5.6-11.4-5.5L1510.8 912.2zM1113 1104.5c-4.5-5.6-6.8-13.1-6.1-20.7l14-164.9c1.1-13.3 10.8-23.6 22.6-23.8l222.8-4.7c6.6-.1 13.1 3 17.6 8.6 4.5 5.6 6.8 13.1 6.1 20.6l-14 164.9c-1.1 13.3-10.8 23.6-22.6 23.8l-222.8 4.7C1123.9 1113.2 1117.5 1110.1 1113 1104.5zM1143.6 904.5c-7.6.2-13.9 6.8-14.6 15.4l-14 164.9c-.4 4.9 1 9.7 4 13.3 2.9 3.6 7.1 5.6 11.4 5.5l222.8-4.7c7.6-.2 13.9-6.8 14.6-15.4l14-164.9c.4-4.9-1-9.7-3.9-13.3-2.9-3.6-7.1-5.6-11.4-5.5L1143.6 904.5zM745.8 1096.8c-4.5-5.6-6.8-13.1-6.1-20.6l14-164.9c1.1-13.3 10.8-23.6 22.6-23.8l222.8-4.7c6.6-.1 13.1 3 17.6 8.6 4.5 5.6 6.8 13.1 6.1 20.7l-14 164.9c-1.1 13.3-10.8 23.6-22.6 23.8l-222.8 4.7C756.8 1105.5 750.4 1102.4 745.8 1096.8zM776.5 896.8c-7.6.2-13.9 6.8-14.6 15.4l-14 164.9c-.4 4.9 1 9.7 4 13.3 2.9 3.6 7.1 5.6 11.4 5.5l222.8-4.7c7.6-.2 13.9-6.8 14.6-15.4l14-164.9c.4-4.9-1-9.7-4-13.3-2.9-3.6-7.1-5.6-11.4-5.5L776.5 896.8zM378.7 1089.1c-4.5-5.6-6.8-13.1-6.1-20.7l14-164.9c1.1-13.3 10.8-23.6 22.6-23.8l222.8-4.7c6.6-.1 13.1 3 17.6 8.6 4.5 5.6 6.8 13.1 6.1 20.6l-14 164.9c-1.1 13.3-10.8 23.6-22.6 23.8l-222.8 4.7C389.6 1097.8 383.2 1094.7 378.7 1089.1zM409.3 889.2c-7.6.2-13.9 6.8-14.6 15.4l-14 164.9c-.4 4.9 1 9.7 4 13.3 2.9 3.6 7.1 5.6 11.4 5.5l222.8-4.7c7.6-.2 13.9-6.8 14.6-15.4l14-164.9c.4-4.9-1-9.7-3.9-13.3-2.9-3.6-7.1-5.6-11.4-5.5L409.3 889.2zM2177 1446.1c-4.5-5.6-6.8-13.1-6.1-20.6l14-164.9c1.1-13.3 10.8-23.6 22.6-23.8l222.8-4.7c6.6-.1 13.1 3 17.6 8.6 4.5 5.6 6.8 13.1 6.1 20.7l-14 164.9c-1.1 13.3-10.8 23.6-22.6 23.8l-222.8 4.7C2187.9 1454.8 2181.5 1451.7 2177 1446.1zM2207.6 1246.1c-7.6.2-13.9 6.8-14.6 15.4l-14 164.9c-.4 4.9 1 9.7 3.9 13.3 2.9 3.6 7.1 5.6 11.4 5.5l222.8-4.7c7.6-.2 13.9-6.8 14.6-15.4l14-164.9c.4-4.9-1-9.7-4-13.3-2.9-3.6-7.1-5.6-11.4-5.5L2207.6 1246.1zM1809.8 1438.4c-4.5-5.6-6.8-13.1-6.1-20.7l14-164.9c1.1-13.3 10.8-23.6 22.6-23.8l222.8-4.7c6.6-.1 13.1 3 17.6 8.6 4.5 5.6 6.8 13.1 6.1 20.6l-14 164.9c-1.1 13.3-10.8 23.6-22.6 23.8l-222.8 4.7C1820.8 1447.1 1814.3 1444 1809.8 1438.4zM1840.5 1238.5c-7.6.2-13.9 6.8-14.6 15.4l-14 164.9c-.4 4.9 1 9.7 4 13.3 2.9 3.6 7.1 5.6 11.4 5.5l222.8-4.7c7.6-.2 13.9-6.8 14.6-15.4l14-164.9c.4-4.9-1-9.7-3.9-13.3-2.9-3.6-7.1-5.6-11.4-5.5L1840.5 1238.5zM1442.7 1430.8c-4.5-5.6-6.8-13.1-6.1-20.6l14-164.9c1.1-13.3 10.8-23.6 22.6-23.8l222.8-4.7c6.6-.1 13.1 3 17.6 8.6 4.5 5.6 6.8 13.1 6.1 20.7l-14 164.9c-1.1 13.3-10.8 23.6-22.6 23.8l-222.8 4.7C1453.6 1439.5 1447.2 1436.3 1442.7 1430.8zM1473.3 1230.8c-7.6.2-13.9 6.8-14.6 15.4l-14 164.9c-.4 4.9 1 9.7 4 13.3 2.9 3.6 7.1 5.6 11.4 5.5l222.8-4.7c7.6-.2 13.9-6.8 14.6-15.4l14-164.9c.4-4.9-1-9.7-4-13.3-2.9-3.6-7.1-5.6-11.4-5.5L1473.3 1230.8zM1075.5 1423.1c-4.5-5.6-6.8-13.1-6.1-20.7l14-164.9c1.1-13.3 10.8-23.6 22.6-23.8l222.8-4.7c6.6-.1 13.1 3 17.6 8.6 4.5 5.6 6.8 13.1 6.1 20.6l-14 164.9c-1.1 13.3-10.8 23.6-22.6 23.8l-222.8 4.7C1086.4 1431.8 1080 1428.7 1075.5 1423.1zM1106.2 1223.1c-7.6.2-13.9 6.8-14.6 15.4l-14 164.9c-.4 4.9 1 9.7 4 13.3 2.9 3.6 7.1 5.6 11.4 5.5l222.8-4.7c7.6-.2 13.9-6.8 14.6-15.4l14-164.9c.4-4.9-1-9.7-3.9-13.3-2.9-3.6-7.1-5.6-11.4-5.5L1106.2 1223.1zM708.3 1415.4c-4.5-5.6-6.8-13.1-6.1-20.6l14-164.9c1.1-13.3 10.8-23.6 22.6-23.8l222.8-4.7c6.6-.1 13.1 3 17.6 8.6 4.5 5.6 6.8 13.1 6.1 20.7l-14 164.9c-1.1 13.3-10.8 23.6-22.6 23.8l-222.8 4.7C719.3 1424.1 712.9 1421 708.3 1415.4zM739 1215.5c-7.6.2-13.9 6.8-14.6 15.4l-14 164.9c-.4 4.9 1 9.7 4 13.3 2.9 3.6 7.1 5.6 11.4 5.5l222.8-4.7c7.6-.2 13.9-6.8 14.6-15.4l14-164.9c.4-4.9-1-9.7-4-13.3-2.9-3.6-7.1-5.6-11.4-5.5L739 1215.5zM341.2 1407.8c-4.5-5.6-6.8-13.1-6.1-20.7l14-164.9c1.1-13.3 10.8-23.6 22.6-23.8l222.8-4.7c6.6-.1 13.1 3 17.6 8.6 4.5 5.6 6.8 13.1 6.1 20.6l-14 164.9c-1.1 13.3-10.8 23.6-22.6 23.8l-222.8 4.7C352.1 1416.5 345.7 1413.4 341.2 1407.8zM371.8 1207.8c-7.6.2-13.9 6.8-14.6 15.4l-14 164.9c-.4 4.9 1 9.7 4 13.3 2.9 3.6 7.1 5.6 11.4 5.5l222.8-4.7c7.6-.2 13.9-6.8 14.6-15.4l14-164.9c.4-4.9-1-9.7-4-13.3-2.9-3.6-7.1-5.6-11.4-5.5L371.8 1207.8z" class="colorbdbdbd svgShape"></path><g fill="#000000" class="color000 svgShape"><path fill="#bdbdbd" d="M2139.5 1764.7c-4.5-5.6-6.8-13.1-6.1-20.6l14-164.9c1.1-13.3 10.8-23.6 22.6-23.8l222.8-4.7c6.6-.1 13.1 3 17.6 8.6 4.5 5.6 6.8 13.1 6.1 20.7l-14 164.9c-1.1 13.3-10.8 23.6-22.6 23.8l-222.8 4.7C2150.4 1773.4 2144 1770.3 2139.5 1764.7zM2170.1 1564.7c-7.6.2-13.9 6.8-14.6 15.4l-14 164.9c-.4 4.9 1 9.7 3.9 13.3 2.9 3.6 7.1 5.6 11.4 5.5l222.8-4.7c7.6-.2 13.9-6.8 14.6-15.4l14-164.9c.4-4.9-1-9.7-4-13.3-2.9-3.6-7.1-5.6-11.4-5.5L2170.1 1564.7zM1772.3 1757.1c-4.5-5.6-6.8-13.1-6.1-20.6l14-164.9c1.1-13.3 10.8-23.6 22.6-23.8l222.8-4.7c6.6-.1 13.1 3 17.6 8.6 4.5 5.6 6.8 13.1 6.1 20.6l-14 164.9c-1.1 13.3-10.8 23.6-22.6 23.8l-222.8 4.7C1783.3 1765.8 1776.9 1762.6 1772.3 1757.1zM1803 1557.1c-7.6.2-13.9 6.8-14.6 15.4l-14 164.9c-.4 4.9 1 9.7 3.9 13.3 2.9 3.6 7.1 5.6 11.4 5.5l222.8-4.7c7.6-.2 13.9-6.8 14.6-15.4l14-164.9c.4-4.9-1-9.7-4-13.3-2.9-3.6-7.1-5.6-11.4-5.5L1803 1557.1zM1405.2 1749.4c-4.5-5.6-6.8-13.1-6.1-20.6l14-164.9c1.1-13.3 10.8-23.6 22.6-23.8l222.8-4.7c6.6-.1 13.1 3 17.6 8.6 4.5 5.6 6.8 13.1 6.1 20.7l-14 164.9c-1.1 13.3-10.8 23.6-22.6 23.8l-222.8 4.7C1416.1 1758.1 1409.7 1755 1405.2 1749.4zM1435.8 1549.4c-7.6.2-13.9 6.8-14.6 15.4l-14 164.9c-.4 4.9 1 9.7 4 13.3 2.9 3.6 7.1 5.6 11.4 5.5l222.8-4.7c7.6-.2 13.9-6.8 14.6-15.4l14-164.9c.4-4.9-1-9.7-4-13.3-2.9-3.6-7.1-5.6-11.4-5.5L1435.8 1549.4zM1038 1741.7c-4.5-5.6-6.8-13.1-6.1-20.6l14-164.9c1.1-13.3 10.8-23.6 22.6-23.8l222.8-4.7c6.6-.1 13.1 3 17.6 8.6 4.5 5.6 6.8 13.1 6.1 20.6l-14 164.9c-1.1 13.3-10.8 23.6-22.6 23.8l-222.8 4.7C1048.9 1750.4 1042.5 1747.3 1038 1741.7zM1068.7 1541.8c-7.6.2-13.9 6.8-14.6 15.4l-14 164.9c-.4 4.9 1 9.7 3.9 13.3 2.9 3.6 7.1 5.6 11.4 5.5l222.8-4.7c7.6-.2 13.9-6.8 14.6-15.4l14-164.9c.4-4.9-1-9.7-4-13.3-2.9-3.6-7.1-5.6-11.4-5.5L1068.7 1541.8zM670.8 1734.1c-4.5-5.6-6.8-13.1-6.1-20.6l14-164.9c1.1-13.3 10.8-23.6 22.6-23.8l222.8-4.7c6.6-.1 13.1 3 17.6 8.6 4.5 5.6 6.8 13.1 6.1 20.7l-14 164.9c-1.1 13.3-10.8 23.6-22.6 23.8l-222.8 4.7C681.8 1742.8 675.4 1739.6 670.8 1734.1zM701.5 1534.1c-7.6.2-13.9 6.8-14.6 15.4l-14 164.9c-.4 4.9 1 9.7 3.9 13.3 2.9 3.6 7.1 5.6 11.4 5.5l222.8-4.7c7.6-.2 13.9-6.8 14.6-15.4l14-164.9c.4-4.9-1-9.7-4-13.3-2.9-3.6-7.1-5.6-11.4-5.5L701.5 1534.1zM303.7 1726.4c-4.5-5.6-6.8-13.1-6.1-20.7l14-164.9c1.1-13.3 10.8-23.6 22.6-23.8l222.8-4.7c6.6-.1 13.1 3 17.6 8.6 4.5 5.6 6.8 13.1 6.1 20.6l-14 164.9c-1.1 13.3-10.8 23.6-22.6 23.8l-222.8 4.7C314.6 1735.1 308.2 1732 303.7 1726.4zM334.3 1526.4c-7.6.2-13.9 6.8-14.6 15.4l-14 164.9c-.4 4.9 1 9.7 4 13.3 2.9 3.6 7.1 5.6 11.4 5.5l222.8-4.7c7.6-.2 13.9-6.8 14.6-15.4l14-164.9c.4-4.9-1-9.7-4-13.3-2.9-3.6-7.1-5.6-11.4-5.5L334.3 1526.4z" class="colorbdbdbd svgShape"></path></g><g fill="#000000" class="color000 svgShape"><path fill="#bdbdbd" d="M2102 2083.4c-4.5-5.6-6.8-13.1-6.1-20.6l14-164.9c1.1-13.3 10.8-23.6 22.6-23.8l222.8-4.7c6.6-.1 13.1 3 17.6 8.6 4.5 5.6 6.8 13.1 6.1 20.7l-14 164.9c-1.1 13.3-10.8 23.6-22.6 23.8l-222.8 4.7C2112.9 2092.1 2106.5 2088.9 2102 2083.4zM2132.6 1883.4c-7.6.2-13.9 6.8-14.6 15.4l-14 164.9c-.4 4.9 1 9.7 3.9 13.3 2.9 3.6 7.1 5.6 11.4 5.5l222.8-4.7c7.6-.2 13.9-6.8 14.6-15.4l14-164.9c.4-4.9-1-9.7-4-13.3-2.9-3.6-7.1-5.6-11.4-5.5L2132.6 1883.4zM1734.8 2075.7c-4.5-5.6-6.8-13.1-6.1-20.6l14-164.9c1.1-13.3 10.8-23.6 22.6-23.8l222.8-4.7c6.6-.1 13.1 3 17.6 8.6 4.5 5.6 6.8 13.1 6.1 20.6l-14 164.9c-1.1 13.3-10.8 23.6-22.6 23.8l-222.8 4.7C1745.8 2084.4 1739.4 2081.3 1734.8 2075.7zM1765.5 1875.7c-7.6.2-13.9 6.8-14.6 15.4l-14 164.9c-.4 4.9 1 9.7 3.9 13.3 2.9 3.6 7.1 5.6 11.4 5.5l222.8-4.7c7.6-.2 13.9-6.8 14.6-15.4l14-164.9c.4-4.9-1-9.7-4-13.3-2.9-3.6-7.1-5.6-11.4-5.5L1765.5 1875.7zM1367.7 2068c-4.5-5.6-6.8-13.1-6.1-20.6l14-164.9c1.1-13.3 10.8-23.6 22.6-23.8l222.8-4.7c6.6-.1 13.1 3 17.6 8.6 4.5 5.6 6.8 13.1 6.1 20.7l-14 164.9c-1.1 13.3-10.8 23.6-22.6 23.8l-222.8 4.7C1378.6 2076.7 1372.2 2073.6 1367.7 2068zM1398.3 1868c-7.6.2-13.9 6.8-14.6 15.4l-14 164.9c-.4 4.9 1 9.7 3.9 13.3 2.9 3.6 7.1 5.6 11.4 5.5l222.8-4.7c7.6-.2 13.9-6.8 14.6-15.4l14-164.9c.4-4.9-1-9.7-4-13.3-2.9-3.6-7.1-5.6-11.4-5.5L1398.3 1868zM1000.5 2060.4c-4.5-5.6-6.8-13.1-6.1-20.6l14-164.9c1.1-13.3 10.8-23.6 22.6-23.8l222.8-4.7c6.6-.1 13.1 3 17.6 8.6 4.5 5.6 6.8 13.1 6.1 20.7l-14 164.9c-1.1 13.3-10.8 23.6-22.6 23.8l-222.8 4.7C1011.5 2069.1 1005 2065.9 1000.5 2060.4zM1031.2 1860.4c-7.6.2-13.9 6.8-14.6 15.4l-14 164.9c-.4 4.9 1 9.7 3.9 13.3 2.9 3.6 7.1 5.6 11.4 5.5l222.8-4.7c7.6-.2 13.9-6.8 14.6-15.4l14-164.9c.4-4.9-1-9.7-4-13.3-2.9-3.6-7.1-5.6-11.4-5.5L1031.2 1860.4zM633.4 2052.7c-4.5-5.6-6.8-13.1-6.1-20.6l14-164.9c1.1-13.3 10.8-23.6 22.6-23.8l222.8-4.7c6.6-.1 13.1 3 17.6 8.6 4.5 5.6 6.8 13.1 6.1 20.7l-14 164.9c-1.1 13.3-10.8 23.6-22.6 23.8l-222.8 4.7C644.3 2061.4 637.9 2058.3 633.4 2052.7zM664 1852.7c-7.6.2-13.9 6.8-14.6 15.4l-14 164.9c-.4 4.9 1 9.7 3.9 13.3 2.9 3.6 7.1 5.6 11.4 5.5l222.8-4.7c7.6-.2 13.9-6.8 14.6-15.4l14-164.9c.4-4.9-1-9.7-4-13.3-2.9-3.6-7.1-5.6-11.4-5.5L664 1852.7zM266.2 2045c-4.5-5.6-6.8-13.1-6.1-20.6l14-164.9c1.1-13.3 10.8-23.6 22.6-23.8l222.8-4.7c6.6-.1 13.1 3 17.6 8.6 4.5 5.6 6.8 13.1 6.1 20.7l-14 164.9c-1.1 13.3-10.8 23.6-22.6 23.8l-222.8 4.7C277.1 2053.7 270.7 2050.6 266.2 2045zM296.9 1845c-7.6.2-13.9 6.8-14.6 15.4l-14 164.9c-.4 4.9 1 9.7 3.9 13.3 2.9 3.6 7.1 5.6 11.4 5.5l222.8-4.7c7.6-.2 13.9-6.8 14.6-15.4l14-164.9c.4-4.9-1-9.7-4-13.3-2.9-3.6-7.1-5.6-11.4-5.5L296.9 1845z" class="colorbdbdbd svgShape"></path></g><g fill="#000000" class="color000 svgShape"><path fill="#bdbdbd" d="M2064.5 2402c-4.5-5.6-6.8-13.1-6.1-20.6l14-164.9c1.1-13.3 10.8-23.6 22.6-23.8l222.8-4.7c6.6-.1 13.1 3 17.6 8.6 4.5 5.6 6.8 13.1 6.1 20.7l-14 164.9c-1.1 13.3-10.8 23.6-22.6 23.8l-222.8 4.7C2075.4 2410.7 2069 2407.6 2064.5 2402zM2095.1 2202c-7.6.2-13.9 6.8-14.6 15.4l-14 164.9c-.4 4.9 1 9.7 3.9 13.3 2.9 3.6 7.1 5.6 11.4 5.5l222.8-4.7c7.6-.2 13.9-6.8 14.6-15.4l14-164.9c.4-4.9-1-9.7-4-13.3-2.9-3.6-7.1-5.6-11.4-5.5L2095.1 2202zM1697.3 2394.3c-4.5-5.6-6.8-13.1-6.1-20.7l14-164.9c1.1-13.3 10.8-23.6 22.6-23.8l222.8-4.7c6.6-.1 13.1 3 17.6 8.6 4.5 5.6 6.8 13.1 6.1 20.7l-14 164.9c-1.1 13.3-10.8 23.6-22.6 23.8l-222.8 4.7C1708.3 2403 1701.9 2399.9 1697.3 2394.3zM1728 2194.3c-7.6.2-13.9 6.8-14.6 15.4l-14 164.9c-.4 4.9 1 9.7 4 13.3 2.9 3.6 7.1 5.6 11.4 5.5l222.8-4.7c7.6-.2 13.9-6.8 14.6-15.4l14-164.9c.4-4.9-1-9.7-4-13.3-2.9-3.6-7.1-5.6-11.4-5.5L1728 2194.3zM1330.2 2386.7c-4.5-5.6-6.8-13.1-6.1-20.6l14-164.9c1.1-13.3 10.8-23.6 22.6-23.8l222.8-4.7c6.6-.1 13.1 3 17.6 8.6 4.5 5.6 6.8 13.1 6.1 20.7l-14 164.9c-1.1 13.3-10.8 23.6-22.6 23.8l-222.8 4.7C1341.1 2395.3 1334.7 2392.2 1330.2 2386.7zM1360.8 2186.7c-7.6.2-13.9 6.8-14.6 15.4l-14 164.9c-.4 4.9 1 9.7 3.9 13.3 2.9 3.6 7.1 5.6 11.4 5.5l222.8-4.7c7.6-.2 13.9-6.8 14.6-15.4l14-164.9c.4-4.9-1-9.7-4-13.3-2.9-3.6-7.1-5.6-11.4-5.5L1360.8 2186.7zM963 2379c-4.5-5.6-6.8-13.1-6.1-20.6l14-164.9c1.1-13.3 10.8-23.6 22.6-23.8l222.8-4.7c6.6-.1 13.1 3 17.6 8.6 4.5 5.6 6.8 13.1 6.1 20.7l-14 164.9c-1.1 13.3-10.8 23.6-22.6 23.8l-222.8 4.7C974 2387.7 967.6 2384.6 963 2379zM993.7 2179c-7.6.2-13.9 6.8-14.6 15.4l-14 164.9c-.4 4.9 1 9.7 3.9 13.3 2.9 3.6 7.1 5.6 11.4 5.5l222.8-4.7c7.6-.2 13.9-6.8 14.6-15.4l14-164.9c.4-4.9-1-9.7-4-13.3-2.9-3.6-7.1-5.6-11.4-5.5L993.7 2179z" class="colorbdbdbd svgShape"></path><path fill="#ffa726" d="M626.5,2171.3c-7.6,0.2-13.9,6.8-14.6,15.4l-14,164.9c-0.4,4.9,1,9.7,3.9,13.3c2.9,3.6,7.1,5.6,11.4,5.5       l222.8-4.7c7.6-0.2,13.9-6.8,14.6-15.4l14-164.9c0.4-4.9-1-9.7-3.9-13.3c-2.9-3.6-7.1-5.6-11.4-5.5L626.5,2171.3z" class="colorffa726 svgShape"></path><path fill="#bdbdbd" d="M595.9,2371.3c4.5,5.5,10.9,8.7,17.6,8.6l222.8-4.7c11.8-0.2,21.5-10.5,22.6-23.9l14-164.9       c0.7-7.5-1.6-15.1-6.1-20.6c-4.6-5.5-11-8.7-17.6-8.6l-222.8,4.7c-11.8,0.2-21.5,10.5-22.6,23.8l-14,165       C589.1,2358.2,591.3,2365.7,595.9,2371.3z" class="colorbdbdbd svgShape"></path><path fill="#ffa726" d="M259.4,2163.7c-7.6,0.2-13.9,6.8-14.6,15.4l-14,164.9c-0.4,4.9,1,9.7,3.9,13.3c2.9,3.6,7.1,5.6,11.4,5.5       l222.8-4.7c7.6-0.2,13.9-6.8,14.6-15.4l14-164.9c0.4-4.9-1-9.7-4-13.3c-2.9-3.6-7.1-5.6-11.4-5.5L259.4,2163.7z" class="colorffa726 svgShape"></path><path fill="#bdbdbd" d="M228.7,2363.6c4.5,5.6,10.9,8.7,17.6,8.6l222.8-4.7c11.8-0.2,21.5-10.5,22.6-23.8l14-165       c0.7-7.5-1.6-15-6.1-20.6c-4.6-5.5-11-8.7-17.6-8.6l-222.8,4.7c-11.8,0.2-21.5,10.5-22.6,23.9l-14,164.9       C221.9,2350.5,224.1,2358.1,228.7,2363.6z" class="colorbdbdbd svgShape"></path></g></g><g fill="#000000" class="color000 svgShape"><polygon fill="#f7c19b" points="156.7 2541 156.6 2645.7 320.7 2645.7 320.8 2540.9" class="colorf7c19b svgShape"></polygon><path fill="#333333" d="M135.9,2646.9l-19.4,17.8l-6.4,4.9c-3.7,2.8-8.2,4.6-12.9,5l-18.2,1.6c-4.5,0.4-8.5-2.9-8.9-7.4l-1.7-19.9      l5.2-0.4l-0.9-10.8l-5.1,0.4l-2.6-23.9l4.2-0.4l-1-11.3l-4.6,0.4l-2.2-26.8l16.6-15.3c-8.2-20.8-17.6-39.4-28.6-55      c-0.6-0.7-3.1-27.8-2.4-28l4.1-0.4l-0.9-10.5l-4.1,0.4c-1.4-8.7-2.2-17.3-2.3-25.8l4.3-0.4l-0.9-10.3l-3.5,0.3      c-0.8-9.1-0.5-17.2,0.9-24.2l3.4-0.3l0.4-10.4l-3,0.3c0.3-6.2,1.5-11.9,3.2-17.4l3.5,0.2l3.1-9.5l-3.5-1.6      c3.3-10.3,6.8-19.8,10.9-28.1c0,0,13.9-2.9,15.3,5.6l21.7,107.9l31.8,138.3L135.9,2646.9z" class="color333 svgShape"></path><path fill="#58595b" d="M147.7,2666.5c-6.8,0.6-13.7,0.5-20.6-0.4l-10.7-1.3c-2.9-42-9.5-80.8-21.5-114.9      c-2.5-7.1-5.2-14-8.2-20.6c-25.9-57.1-27.9-118.5-9.1-183.5l10-0.9c7.4-0.6,14.2,3.9,16.3,10.9l13.7,45.9      c2.5,8.2,4.6,16.4,6.9,24.6c6.5,23,17.8,43.9,33.5,62.9c0.9,1,1.7,2.1,2.6,3.1c0.5,0.6,1,1.2,1.6,1.8      c-10.3,2.2-22.2,13.1-22.8,13.6c-0.4,0.3-0.5,0.8-0.4,1.2c0.1,0.2,0.2,0.4,0.3,0.6c0.5,0.5,1.3,0.6,1.9,0.1      c4.2-3.9,15.1-12.4,23.1-13.2c0.4,0.4,0.8,0.9,1.2,1.3c3,8,0.9,22.1-0.4,27.9c-0.2,0.7,0.3,1.4,1,1.6c0.7,0.2,1.4-0.3,1.6-1      c0.2-0.8,3.2-14.1,1.6-24.5c1.5,1.5,2.9,3,4.5,4.5c1,0.9,1.9,1.9,2.9,2.8c2.1,2,4.3,4,6.5,6c0.9,0.8,1.8,1.6,2.7,2.4      c3.3,2.9,6.8,5.7,10.3,8.4c0.1,6.6-3.9,15.4-5.9,19.1c-0.4,0.6-0.1,1.4,0.5,1.8c0.6,0.4,1.5,0.1,1.8-0.5      c0.3-0.6,5.5-10,6.2-18.4c1.4,1.1,2.9,2.2,4.4,3.3c2.4,1.8,4,4.4,4.4,7.4l13.6,108.4c0.5,4-2.5,7.5-6.6,7.8l-13.1,0.7      c-9.7,0.5-19.3,2.5-28.4,5.8C164.9,2663.9,156.3,2665.7,147.7,2666.5z" class="color58595b svgShape"></path><path fill="#231f20" d="M139.4 2509.5c-.2-.2-.3-.4-.3-.6-.1-.4 0-.9.4-1.2.6-.6 12.6-11.5 22.8-13.6.7.8 1.4 1.6 2.1 2.3-7.9.8-18.9 9.4-23.1 13.2C140.7 2510.1 139.9 2510.1 139.4 2509.5zM166.1 2527.1c-.7-.2-1.2-.9-1-1.6 1.4-5.8 3.5-19.9.4-27.9 1.2 1.3 2.5 2.6 3.7 3.9 1.7 10.4-1.4 23.7-1.6 24.5C167.5 2526.8 166.8 2527.3 166.1 2527.1z" class="color231f20 svgShape"></path><path fill="#303030" d="M190.8,2546.5c-0.7-0.3-0.9-1.1-0.5-1.8c2-3.7,6-12.5,5.9-19.1c0.9,0.7,1.7,1.3,2.6,2      c-0.7,8.4-5.9,17.9-6.2,18.4C192.2,2546.6,191.4,2546.9,190.8,2546.5z" class="color303030 svgShape"></path><path fill="#414042" d="M147.7,2666.5c-6.8,0.6-13.7,0.5-20.6-0.4l-10.7-1.3c-2.9-42-9.5-80.8-21.5-114.9l33.1-57      c1.9-3.3,6.3-4.3,9.4-2.1l70,47.6l13.6,108.4c0.5,4-2.5,7.5-6.6,7.8l-13.1,0.7c-9.7,0.5-19.3,2.5-28.4,5.8      C164.9,2663.9,156.3,2665.7,147.7,2666.5z" class="color414042 svgShape"></path><polygon fill="#58595b" points="202.7 2540.7 203.4 2539.8 204.3 2540.4 204.4 2541.4 203.2 2541.5 203.1 2541" class="color58595b svgShape"></polygon><path fill="#58595b" d="M122.3,2661.3l0.2-1.2l1.6,0.2l-0.2,1.2L122.3,2661.3z M125.4,2661.7l0.1-1.2l1.6,0.2l-0.1,1.2         L125.4,2661.7z M128.6,2662.1l0.1-1.2c0.5,0.1,1.1,0.1,1.6,0.2l-0.1,1.2C129.7,2662.2,129.2,2662.2,128.6,2662.1z          M131.8,2662.4l0.1-1.2c0.5,0,1.1,0.1,1.6,0.1l-0.1,1.2C132.9,2662.5,132.4,2662.5,131.8,2662.4z M135.1,2662.6l0.1-1.2         c0.5,0,1.1,0,1.6,0.1l0,1.2C136.1,2662.7,135.6,2662.7,135.1,2662.6z M138.3,2662.7l0-1.2c0.5,0,1.1,0,1.6,0l0,1.2         C139.4,2662.7,138.8,2662.7,138.3,2662.7z M141.5,2662.7l0-1.2c0.5,0,1.1,0,1.6,0l0,1.2         C142.6,2662.7,142.1,2662.7,141.5,2662.7z M144.8,2662.6l-0.1-1.2c0.5,0,1.1-0.1,1.6-0.1l0.1,1.2         C145.8,2662.5,145.3,2662.6,144.8,2662.6z M147.9,2661.2c0.5,0,1.1-0.1,1.6-0.2l0.1,1.2c-0.5,0.1-1.1,0.1-1.6,0.2         L147.9,2661.2z M151,2660.9c0.5-0.1,1.1-0.1,1.6-0.2l0.2,1.2c-0.5,0.1-1.1,0.1-1.6,0.2L151,2660.9z M154.2,2660.4         c0.5-0.1,1-0.2,1.6-0.3l0.2,1.2c-0.5,0.1-1.1,0.2-1.6,0.3L154.2,2660.4z M157.3,2659.9c0.5-0.1,1-0.2,1.6-0.3l0.3,1.1         c-0.5,0.1-1.1,0.2-1.6,0.3L157.3,2659.9z M160.5,2659.2c0.5-0.1,1-0.2,1.6-0.4l0.3,1.1c-0.5,0.1-1,0.3-1.6,0.4L160.5,2659.2         z M163.6,2658.4c0.5-0.1,1-0.3,1.5-0.4l0.3,1.1c-0.5,0.1-1,0.3-1.6,0.4L163.6,2658.4z M166.6,2657.6c0.5-0.2,1-0.3,1.5-0.5         l0.4,1.1c-0.5,0.2-1,0.3-1.5,0.5L166.6,2657.6z M169.6,2656.6c0.5-0.2,1-0.3,1.5-0.5l0.4,1.1c-0.5,0.2-1,0.4-1.5,0.5         L169.6,2656.6z M172.7,2655.5c0.5-0.2,1-0.3,1.5-0.5l0.4,1.1c-0.5,0.2-1,0.3-1.5,0.5L172.7,2655.5z M175.7,2654.5         c0.5-0.2,1-0.3,1.5-0.5l0.3,1.1c-0.5,0.2-1,0.3-1.5,0.5L175.7,2654.5z M178.8,2653.6c0.5-0.1,1-0.3,1.6-0.4l0.3,1.1         c-0.5,0.1-1,0.3-1.5,0.4L178.8,2653.6z M181.9,2652.8c0.5-0.1,1-0.3,1.6-0.4l0.3,1.1c-0.5,0.1-1,0.2-1.6,0.4L181.9,2652.8z          M185.1,2652.1c0.5-0.1,1.1-0.2,1.6-0.3l0.2,1.2c-0.5,0.1-1,0.2-1.6,0.3L185.1,2652.1z M188.2,2651.4         c0.5-0.1,1.1-0.2,1.6-0.3l0.2,1.2c-0.5,0.1-1,0.2-1.6,0.3L188.2,2651.4z M191.4,2650.9c0.5-0.1,1.1-0.1,1.6-0.2l0.2,1.2         c-0.5,0.1-1.1,0.1-1.6,0.2L191.4,2650.9z M194.6,2650.5c0.5-0.1,1.1-0.1,1.6-0.2l0.1,1.2c-0.5,0-1.1,0.1-1.6,0.2         L194.6,2650.5z M197.9,2651.4l-0.1-1.2c0.5,0,1.1-0.1,1.6-0.1l0.1,1.2C199,2651.3,198.5,2651.3,197.9,2651.4z M201.1,2651.2         l-0.1-1.2l1.6-0.1l0.1,1.2L201.1,2651.2z M204.3,2651l-0.1-1.2l1.6-0.1l0.1,1.2L204.3,2651z M207.5,2650.8l-0.1-1.2l1.6-0.1         l0.1,1.2L207.5,2650.8z M210.7,2650.6l-0.1-1.2l1.6-0.1l0.1,1.2L210.7,2650.6z M203.4,2543.1l1.2-0.1l0.2,1.6l-1.2,0.1         L203.4,2543.1z M203.8,2546.2l1.2-0.1l0.2,1.6l-1.2,0.1L203.8,2546.2z M204.2,2549.4l1.2-0.1l0.2,1.6l-1.2,0.1L204.2,2549.4         z M204.6,2552.5l1.2-0.1l0.2,1.6l-1.2,0.1L204.6,2552.5z M205,2555.6l1.2-0.1l0.2,1.6l-1.2,0.1L205,2555.6z M205.4,2558.8         l1.2-0.1l0.2,1.6l-1.2,0.1L205.4,2558.8z M205.7,2561.9l1.2-0.1l0.2,1.6l-1.2,0.1L205.7,2561.9z M206.1,2565l1.2-0.1         l0.2,1.6l-1.2,0.1L206.1,2565z M206.5,2568.2l1.2-0.1l0.2,1.6l-1.2,0.1L206.5,2568.2z M206.9,2571.4l1.2-0.3l0.2,1.6         l-1.2,0.1L206.9,2571.4z M213.8,2649.3c0.4-0.1,0.9-0.3,1.2-0.6l0.7,0.9c-0.5,0.4-1.1,0.6-1.7,0.8L213.8,2649.3z          M207.3,2574.4l1.2-0.1l0.2,1.6l-1.2,0.1L207.3,2574.4z M207.7,2577.6l1.2-0.1l0.2,1.6l-1.2,0.1L207.7,2577.6z          M208.1,2580.8l1.2-0.3l0.2,1.6l-1.2,0.1L208.1,2580.8z M208.5,2584l1.2-0.3l0.2,1.6l-1.2,0.1L208.5,2584z M208.9,2587.1         l1.2-0.2l0.2,1.6l-1.2,0.1L208.9,2587.1z M209.3,2590.1l1.2-0.2l0.2,1.6l-1.2,0.1L209.3,2590.1z M209.7,2593.2l1.2-0.1         l0.2,1.6l-1.2,0.1L209.7,2593.2z M210.1,2596.4l1.2-0.1l0.2,1.6l-1.2,0.1L210.1,2596.4z M210.4,2599.5l1.2-0.1l0.2,1.6         l-1.2,0.1L210.4,2599.5z M210.8,2602.6l1.2-0.1l0.2,1.6l-1.2,0.1L210.8,2602.6z M211.2,2605.8l1.2-0.1l0.2,1.6l-1.2,0.1         L211.2,2605.8z M211.6,2608.9l1.2-0.1l0.2,1.6l-1.2,0.1L211.6,2608.9z M212,2612l1.2-0.1l0.2,1.6l-1.2,0.1L212,2612z          M212.4,2615.2l1.2-0.1l0.2,1.6l-1.2,0.1L212.4,2615.2z M212.8,2618.3l1.2-0.1l0.2,1.6l-1.2,0.1L212.8,2618.3z          M213.2,2621.4l1.2-0.1l0.2,1.6l-1.2,0.1L213.2,2621.4z M213.6,2624.6l1.2-0.1l0.2,1.6l-1.2,0.1L213.6,2624.6z M214,2627.7         l1.2-0.1l0.2,1.6l-1.2,0.1L214,2627.7z M214.4,2630.8l1.2-0.1l0.2,1.6l-1.2,0.1L214.4,2630.8z M215.9,2647.7         c0.2-0.4,0.3-0.8,0.4-1.3l1.2,0.1c0,0.6-0.2,1.2-0.5,1.7L215.9,2647.7z M214.8,2634l1.2-0.1l0.2,1.6l-1.2,0.1L214.8,2634z          M215.2,2637.1l1.2-0.1l0.2,1.6l-1.2,0.1L215.2,2637.1z M215.5,2640.3l1.2-0.1l0.2,1.6l-1.2,0.1L215.5,2640.3z          M215.9,2643.4l1.2-0.1l0.2,1.6l-1.2,0.1L215.9,2643.4z" class="color58595b svgShape"></path><polygon fill="#58595b" points="119.6 2661 119.5 2659.7 120.7 2659.6 120.7 2659.9 121 2660 120.8 2661.1" class="color58595b svgShape"></polygon><path fill="#58595b" d="M99.7,2553l1.1-0.4l0.5,1.5l-1.1,0.4L99.7,2553z M100.7,2556l1.1-0.4l0.5,1.5l-1.1,0.4L100.7,2556z          M101.6,2558.9l1.1-0.3l0.5,1.5l-1.1,0.3L101.6,2558.9z M102.5,2561.9l1.1-0.3l0.5,1.5l-1.1,0.3L102.5,2561.9z          M103.4,2564.9l1.1-0.3l0.4,1.5l-1.2,0.3L103.4,2564.9z M104.3,2567.9l1.2-0.3l0.4,1.5l-1.2,0.3L104.3,2567.9z          M105.1,2570.9l1.2-0.3l0.4,1.5l-1.2,0.3L105.1,2570.9z M105.9,2573.9l1.2-0.3l0.4,1.5l-1.2,0.3L105.9,2573.9z          M106.7,2576.9l1.2-0.3l0.4,1.5l-1.2,0.3L106.7,2576.9z M107.5,2579.9l1.2-0.3l0.4,1.5l-1.2,0.3L107.5,2579.9z          M108.2,2582.9l1.2-0.3l0.4,1.5l-1.2,0.3L108.2,2582.9z M108.9,2585.9l1.2-0.3l0.3,1.5l-1.2,0.3L108.9,2585.9z M109.6,2589         l1.2-0.2l0.3,1.5l-1.2,0.2L109.6,2589z M110.2,2592l1.2-0.2l0.3,1.5l-1.2,0.2L110.2,2592z M110.9,2595.1l1.2-0.2l0.3,1.5         l-1.2,0.2L110.9,2595.1z M111.5,2598.1l1.2-0.2l0.3,1.5l-1.2,0.2L111.5,2598.1z M112.1,2601.2l1.2-0.2l0.3,1.5l-1.2,0.2         L112.1,2601.2z M112.6,2604.2l1.2-0.2l0.3,1.5l-1.2,0.2L112.6,2604.2z M113.2,2607.3l1.2-0.2l0.3,1.5l-1.2,0.2L113.2,2607.3         z M113.7,2610.3l1.2-0.2l0.3,1.5l-1.2,0.2L113.7,2610.3z M114.2,2613.4l1.2-0.2l0.2,1.5l-1.2,0.2L114.2,2613.4z          M114.7,2616.5l1.2-0.2l0.2,1.5l-1.2,0.2L114.7,2616.5z M115.1,2619.5l1.2-0.2l0.2,1.5l-1.2,0.2L115.1,2619.5z          M115.6,2622.6l1.2-0.2l0.2,1.5l-1.2,0.2L115.6,2622.6z M116,2625.7l1.2-0.2l0.2,1.5l-1.2,0.1L116,2625.7z M116.4,2628.8         l1.2-0.1l0.2,1.5l-1.2,0.1L116.4,2628.8z M116.8,2631.9l1.2-0.1l0.2,1.5l-1.2,0.1L116.8,2631.9z M117.1,2635l1.2-0.1         l0.2,1.5l-1.2,0.1L117.1,2635z M117.5,2638l1.2-0.1l0.2,1.5l-1.2,0.1L117.5,2638z M117.8,2641.1l1.2-0.1l0.2,1.5l-1.2,0.1         L117.8,2641.1z M118.1,2644.2l1.2-0.1l0.2,1.6l-1.2,0.1L118.1,2644.2z M119.3,2658.2l-0.1-1.6l1.2-0.1l0.1,1.6L119.3,2658.2         z M118.4,2647.3l1.2-0.1l0.1,1.5l-1.2,0.1L118.4,2647.3z M119.1,2655.1l-0.1-1.5l1.2-0.1l0.1,1.6L119.1,2655.1z          M118.7,2650.4l1.2-0.1l0.1,1.6l-1.2,0.1L118.7,2650.4z" class="color58595b svgShape"></path><polygon fill="#58595b" points="98.8 2550.6 99.4 2549.6 100.4 2550.2 100.1 2550.7 100.3 2551.2 99.2 2551.5" class="color58595b svgShape"></polygon><path fill="#58595b" d="M100.1,2548.3l0.8-1.4l1,0.6l-0.8,1.4L100.1,2548.3z M101.7,2545.6l0.8-1.3l1,0.6l-0.8,1.4         L101.7,2545.6z M103.3,2542.9l0.8-1.3l1,0.6l-0.8,1.4L103.3,2542.9z M104.9,2540.2l0.8-1.4l1,0.6l-0.8,1.4L104.9,2540.2z          M106.4,2537.5l0.8-1.4l1,0.6l-0.8,1.4L106.4,2537.5z M108,2534.8l0.8-1.3l1,0.6l-0.8,1.3L108,2534.8z M109.6,2532.1         l0.8-1.4l1,0.6l-0.8,1.4L109.6,2532.1z M111.1,2529.4l0.8-1.4l1,0.6l-0.8,1.3L111.1,2529.4z M112.7,2526.7l0.8-1.4l1,0.6         l-0.8,1.4L112.7,2526.7z M114.3,2524l0.8-1.4l1,0.6l-0.8,1.4L114.3,2524z M115.8,2521.3l0.8-1.4l1,0.6l-0.8,1.4         L115.8,2521.3z M117.4,2518.6l0.8-1.3l1,0.6l-0.8,1.4L117.4,2518.6z M119,2515.9l0.8-1.4l1,0.6l-0.8,1.3L119,2515.9z          M120.5,2513.2l0.8-1.4l1,0.6l-0.8,1.4L120.5,2513.2z M122.1,2510.5l0.8-1.3l1,0.6l-0.8,1.3L122.1,2510.5z M123.7,2507.8         l0.8-1.4l1,0.6l-0.8,1.4L123.7,2507.8z M125.3,2505.1l0.8-1.4l1,0.6l-0.8,1.3L125.3,2505.1z M126.8,2502.4l0.8-1.4l1,0.6         l-0.8,1.4L126.8,2502.4z M128.4,2499.7l0.8-1.3l1,0.6l-0.8,1.4L128.4,2499.7z M130,2497l0.8-1.3l1,0.6l-0.8,1.4L130,2497z          M132,2494.3c0.4-0.3,0.9-0.5,1.3-0.6c0.1,0,0.3-0.1,0.4-0.1l0.2,1.2c-0.1,0-0.2,0-0.3,0c-0.3,0.1-0.7,0.2-0.9,0.4         L132,2494.3z M135.1,2494.9l0.4-1.1c0.3,0.1,0.6,0.3,0.9,0.4l0.6,0.4l-0.7,1l-0.6-0.4C135.5,2495.1,135.3,2495,135.1,2494.9         z M137.7,2496.5l0.7-1l1.3,0.9l-0.7,1L137.7,2496.5z M140.3,2498.3l0.7-1l1.3,0.9l-0.7,1L140.3,2498.3z M142.9,2500.1l0.7-1         l1.3,0.9l-0.7,1L142.9,2500.1z M145.5,2501.8l0.7-1l1.3,0.9l-0.7,1L145.5,2501.8z M148.1,2503.6l0.7-1l1.3,0.9l-0.7,1         L148.1,2503.6z M150.7,2505.4l0.7-1l1.3,0.9l-0.7,1L150.7,2505.4z M153.3,2507.1l0.7-1l1.3,0.9l-0.7,1L153.3,2507.1z          M155.9,2508.9l0.7-1l1.3,0.9l-0.7,1L155.9,2508.9z M158.5,2510.7l0.7-1l1.3,0.9l-0.7,1L158.5,2510.7z M161.1,2512.4l0.7-1         l1.3,0.9l-0.7,1L161.1,2512.4z M163.7,2514.2l0.7-1l1.3,0.9l-0.7,1L163.7,2514.2z M166.3,2516l0.7-1l1.3,0.9l-0.7,1         L166.3,2516z M168.9,2517.7l0.7-1l1.3,0.9l-0.7,1L168.9,2517.7z M171.5,2519.5l0.7-1l1.3,0.9l-0.7,1L171.5,2519.5z          M174.1,2521.3l0.7-1l1.3,0.9l-0.7,1L174.1,2521.3z M176.7,2523l0.7-1l1.3,0.9l-0.7,1L176.7,2523z M179.3,2524.8l0.7-1         l1.3,0.9l-0.7,1L179.3,2524.8z M181.9,2526.6l0.7-1l1.3,0.9l-0.7,1L181.9,2526.6z M184.5,2528.4l0.7-1l1.3,0.9l-0.7,1         L184.5,2528.4z M187.1,2530.1l0.7-1l1.3,0.9l-0.7,1L187.1,2530.1z M189.7,2531.9l0.7-1l1.3,0.9l-0.7,1L189.7,2531.9z          M192.3,2533.7l0.7-1l1.3,0.9l-0.7,1L192.3,2533.7z M194.9,2535.4l0.7-1l1.3,0.9l-0.7,1L194.9,2535.4z M197.5,2537.2l0.7-1         l1.3,0.9l-0.7,1L197.5,2537.2z M200.1,2538.9l0.7-1l1.3,0.9l-0.7,1L200.1,2538.9z" class="color58595b svgShape"></path><path fill="#e6e7e8" d="M134.5 2510.3c-.7-3.3 1.4-6.5 4.7-7.2 3.3-.7 6.6 1.4 7.3 4.7.7 3.3-1.4 6.5-4.7 7.2C138.4 2515.7 135.2 2513.6 134.5 2510.3zM144.6 2508.2c-.5-2.2-2.7-3.7-5-3.2-2.3.5-3.8 2.7-3.3 4.9.5 2.2 2.7 3.7 5 3.2C143.6 2512.7 145.1 2510.4 144.6 2508.2zM159.4 2528.5c-.7-3.3 1.4-6.5 4.7-7.2 3.3-.7 6.6 1.4 7.3 4.7.7 3.3-1.4 6.5-4.7 7.2C163.4 2533.9 160.1 2531.8 159.4 2528.5zM169.6 2526.4c-.5-2.2-2.7-3.7-5-3.2-2.3.5-3.8 2.7-3.3 4.9.5 2.2 2.7 3.7 5 3.2C168.6 2530.9 170 2528.6 169.6 2526.4z" class="colore6e7e8 svgShape"></path><path fill="#231f20" d="M141.3,2509.6c-0.5,0.5-1.4,0.5-1.9-0.1c-0.2-0.2-0.3-0.4-0.3-0.6c-0.1-0.4,0-0.9,0.4-1.2         c0.6-0.6,12.6-11.5,22.8-13.6c0.3-0.1,0.6-0.1,0.9-0.2c1.1-0.2,2.2-0.2,3.2-0.2c1.2,0.1,2.3,0.3,3.3,0.8         c4.2,1.9,6.5,6.7,6.8,14.4c-1-0.9-2-1.9-2.9-2.8c-0.6-4.9-2.3-8-5-9.2c-0.2-0.1-0.5-0.2-0.7-0.3c-0.9-0.3-2-0.4-3-0.3         c-0.2,0-0.4,0-0.6,0C156.4,2497.2,145.5,2505.7,141.3,2509.6z" class="color231f20 svgShape"></path><path fill="#231f20" d="M166.1,2527.1c-0.7-0.2-1.2-0.9-1-1.6c1.4-5.8,3.5-19.9,0.4-27.9c-0.2-0.5-0.4-0.9-0.6-1.3         c-0.5-0.9-1-1.8-1.7-2.5c-0.3-0.3-0.6-0.5-0.9-0.8c-0.5-0.4-1-0.6-1.6-0.8c-0.9-1-1.8-2.1-2.6-3.1c2.2,0,4.2,0.6,5.8,1.8         c1,0.7,1.9,1.7,2.6,2.8c0.6,0.9,1.1,1.9,1.5,2.9c0.6,1.5,1,3.2,1.3,5c1.7,10.4-1.4,23.7-1.6,24.5         C167.5,2526.8,166.8,2527.3,166.1,2527.1z" class="color231f20 svgShape"></path><path fill="#e6e7e8" d="M185.3,2545.9c-0.3-3.3,2.2-6.3,5.6-6.6c3.4-0.3,6.4,2.2,6.7,5.5c0.3,3.3-2.2,6.3-5.6,6.6        C188.6,2551.7,185.6,2549.2,185.3,2545.9z M195.6,2545c-0.2-2.3-2.3-4-4.6-3.8c-2.3,0.2-4.1,2.2-3.8,4.5        c0.2,2.3,2.3,4,4.6,3.8C194.1,2549.3,195.8,2547.3,195.6,2545z" class="colore6e7e8 svgShape"></path><path fill="#231f20" d="M190.8,2546.5c-0.7-0.3-0.9-1.1-0.5-1.8c2-3.7,6-12.5,5.9-19.1c0-2.2-0.5-4.2-1.6-5.7        c-1.6-2.1-4.5-3-8.7-2.8c-0.9-0.8-1.8-1.6-2.7-2.4c6.5-0.9,11.1,0.3,13.6,3.6c1.9,2.4,2.3,5.7,2,9.2        c-0.7,8.4-5.9,17.9-6.2,18.4C192.2,2546.6,191.4,2546.9,190.8,2546.5z" class="color231f20 svgShape"></path><g fill="#000000" class="color000 svgShape"><polygon fill="#f7c19b" points="2526.5 2631.7 2518.6 2736.1 2355 2723.5 2362.9 2619.1" class="colorf7c19b svgShape"></polygon><path fill="#333333" d="M2539.2,2738.9l18,19.3l6,5.4c3.5,3.1,7.8,5.2,12.5,5.9l18.1,3c4.5,0.7,8.7-2.3,9.5-6.7l3.3-19.7l-5.1-0.8      l1.8-10.7l5.1,0.8l4.4-23.6l-4.2-0.7l1.8-11.2l4.5,0.7l4.2-26.6l-15.4-16.5c9.7-20.1,20.5-37.9,32.7-52.6      c0.7-0.7,5.3-27.5,4.6-27.7l-4.1-0.7l1.7-10.4l4.1,0.7c2-8.5,3.5-17.1,4.2-25.6l-4.3-0.7l1.7-10.2l3.5,0.6      c1.4-9,1.8-17.1,0.9-24.2l-3.3-0.5l0.4-10.4l3,0.5c0.2-6.2-0.6-12-1.9-17.6l-3.5,0l-2.3-9.7l3.7-1.3      c-2.5-10.6-5.3-20.3-8.7-28.8c0,0-13.6-3.9-15.7,4.4l-29.9,106l-42.2,135.5L2539.2,2738.9z" class="color333 svgShape"></path><path fill="#58595b" d="M2525.9,2757.5c6.8,1.1,13.6,1.5,20.5,1.2l10.7-0.5c6.1-41.7,15.6-79.9,30.2-113c3-6.9,6.3-13.5,9.8-19.9      c30.2-55,36.9-116,23.2-182.3l-9.9-1.6c-7.3-1.2-14.5,2.8-17.1,9.7l-17.2,44.7c-3.1,7.9-5.9,16-8.8,24      c-8.2,22.5-21.1,42.4-38.2,60.1c-0.9,1-1.9,1.9-2.9,2.9c-0.6,0.6-1.1,1.1-1.7,1.7c10.1,2.9,21.1,14.7,21.7,15.4      c0.3,0.4,0.4,0.8,0.3,1.3c-0.1,0.2-0.2,0.4-0.4,0.6c-0.5,0.5-1.4,0.5-1.9-0.1c-3.9-4.2-14.2-13.5-22-15      c-0.4,0.4-0.8,0.8-1.2,1.2c-3.6,7.8-2.6,21.9-1.7,27.9c0.1,0.7-0.4,1.4-1.1,1.5c-0.7,0.1-1.4-0.4-1.5-1.1      c-0.1-0.8-2.1-14.3,0.3-24.6c-1.6,1.4-3.2,2.8-4.8,4.1c-1,0.9-2.1,1.7-3.1,2.6c-2.2,1.8-4.6,3.6-6.9,5.4      c-0.9,0.7-1.9,1.5-2.9,2.2c-3.5,2.6-7.2,5.1-10.9,7.6c-0.6,6.6,2.7,15.7,4.5,19.5c0.3,0.7,0,1.4-0.7,1.7      c-0.7,0.3-1.5,0-1.8-0.7c-0.3-0.6-4.7-10.4-4.7-18.8c-1.5,1-3.1,2-4.6,2.9c-2.6,1.6-4.4,4.1-5,7l-21.8,107      c-0.8,3.9,1.9,7.7,6,8.2l13,1.7c9.6,1.3,19,4,27.8,8C2509,2753.6,2517.4,2756.1,2525.9,2757.5z" class="color58595b svgShape"></path><path fill="#231f20" d="M2546.2 2601.6c.2-.2.3-.4.4-.6.1-.4 0-.9-.3-1.3-.6-.6-11.6-12.4-21.7-15.4-.7.7-1.5 1.4-2.2 2.2 7.8 1.4 18.1 10.8 22 15C2544.8 2602.1 2545.7 2602.1 2546.2 2601.6zM2518.3 2617.1c.7-.1 1.2-.8 1.1-1.5-.9-5.9-1.9-20.1 1.7-27.9-1.3 1.2-2.7 2.4-4 3.6-2.5 10.3-.4 23.8-.3 24.6C2516.9 2616.7 2517.5 2617.2 2518.3 2617.1z" class="color231f20 svgShape"></path><path fill="#303030" d="M2492.2,2634.6c0.7-0.3,1-1.1,0.7-1.7c-1.8-3.8-5-12.9-4.5-19.5c-0.9,0.6-1.8,1.2-2.7,1.8      c0.1,8.4,4.5,18.3,4.7,18.8C2490.7,2634.6,2491.5,2634.9,2492.2,2634.6z" class="color303030 svgShape"></path><path fill="#414042" d="M2525.9,2757.5c6.8,1.1,13.6,1.5,20.5,1.2l10.7-0.5c6.1-41.7,15.6-79.9,30.2-113l-28.7-59.4      c-1.7-3.4-5.9-4.7-9.2-2.8l-73.4,42.1l-21.8,107c-0.8,3.9,1.9,7.7,6,8.2l13,1.7c9.6,1.3,19,4,27.8,8      C2509,2753.6,2517.4,2756.1,2525.9,2757.5z" class="color414042 svgShape"></path><polygon fill="#58595b" points="2480.7 2627.9 2480.1 2626.9 2479.2 2627.4 2479 2628.4 2480.2 2628.7 2480.3 2628.2" class="color58595b svgShape"></polygon><path fill="#58595b" d="M2550.1,2754.4l-0.1-1.2l1.6-0.1l0.1,1.2L2550.1,2754.4z M2546.9,2754.5l-0.1-1.2l1.6-0.1l0.1,1.2         L2546.9,2754.5z M2543.7,2754.6l0-1.2c0.5,0,1.1,0,1.6,0l0.1,1.2C2544.7,2754.6,2544.2,2754.6,2543.7,2754.6z          M2540.4,2754.7l0-1.2c0.5,0,1.1,0,1.6,0l0,1.2C2541.5,2754.7,2541,2754.7,2540.4,2754.7z M2537.2,2754.6l0.1-1.2         c0.5,0,1.1,0,1.6,0.1l0,1.2C2538.3,2754.6,2537.8,2754.6,2537.2,2754.6z M2534,2754.4l0.1-1.2c0.5,0,1.1,0.1,1.6,0.1         l-0.1,1.2C2535.1,2754.4,2534.5,2754.4,2534,2754.4z M2530.8,2754.1l0.1-1.2c0.5,0.1,1.1,0.1,1.6,0.2l-0.1,1.2         C2531.8,2754.2,2531.3,2754.1,2530.8,2754.1z M2527.6,2753.6l0.2-1.2c0.5,0.1,1.1,0.2,1.6,0.2l-0.2,1.2         C2528.6,2753.8,2528.1,2753.7,2527.6,2753.6z M2526,2753.4c-0.5-0.1-1.1-0.2-1.6-0.3l0.2-1.2c0.5,0.1,1,0.2,1.6,0.3         L2526,2753.4z M2522.8,2752.8c-0.5-0.1-1.1-0.2-1.6-0.3l0.3-1.1c0.5,0.1,1,0.2,1.6,0.3L2522.8,2752.8z M2519.6,2752.1         c-0.5-0.1-1-0.3-1.6-0.4l0.3-1.1c0.5,0.1,1,0.3,1.5,0.4L2519.6,2752.1z M2516.5,2751.3c-0.5-0.1-1-0.3-1.6-0.4l0.3-1.1         c0.5,0.1,1,0.3,1.5,0.4L2516.5,2751.3z M2513.4,2750.4c-0.5-0.2-1-0.3-1.5-0.5l0.4-1.1c0.5,0.2,1,0.3,1.5,0.5L2513.4,2750.4         z M2510.4,2749.4c-0.5-0.2-1-0.4-1.5-0.5l0.4-1.1c0.5,0.2,1,0.4,1.5,0.5L2510.4,2749.4z M2507.3,2748.3         c-0.5-0.2-1-0.4-1.5-0.6l0.5-1.1c0.5,0.2,1,0.4,1.5,0.6L2507.3,2748.3z M2504.3,2747c-0.5-0.2-1-0.4-1.5-0.6l0.5-1.1         c0.5,0.2,1,0.4,1.5,0.6L2504.3,2747z M2501.4,2745.8c-0.5-0.2-1-0.4-1.5-0.6l0.5-1.1c0.5,0.2,1,0.4,1.5,0.6L2501.4,2745.8z          M2498.5,2744.5c-0.5-0.2-1-0.4-1.5-0.6l0.4-1.1c0.5,0.2,1,0.4,1.5,0.6L2498.5,2744.5z M2495.5,2743.4         c-0.5-0.2-1-0.4-1.5-0.5l0.4-1.1c0.5,0.2,1,0.4,1.5,0.5L2495.5,2743.4z M2492.5,2742.3c-0.5-0.2-1-0.3-1.5-0.5l0.4-1.1         c0.5,0.2,1,0.3,1.5,0.5L2492.5,2742.3z M2489.4,2741.4c-0.5-0.1-1-0.3-1.5-0.4l0.3-1.1c0.5,0.1,1,0.3,1.6,0.4L2489.4,2741.4         z M2486.4,2740.5c-0.5-0.1-1-0.3-1.5-0.4l0.3-1.1c0.5,0.1,1,0.3,1.6,0.4L2486.4,2740.5z M2483.3,2739.8         c-0.5-0.1-1-0.2-1.6-0.3l0.2-1.1c0.5,0.1,1.1,0.2,1.6,0.3L2483.3,2739.8z M2480.1,2739.2c-0.5-0.1-1-0.2-1.6-0.3l0.2-1.2         c0.5,0.1,1.1,0.2,1.6,0.3L2480.1,2739.2z M2475.4,2738.4l0.2-1.2c0.5,0.1,1.1,0.2,1.6,0.2l-0.2,1.2         C2476.5,2738.5,2475.9,2738.4,2475.4,2738.4z M2472.2,2737.9l0.2-1.2l1.6,0.2l-0.2,1.2L2472.2,2737.9z M2469.1,2737.5         l0.2-1.2l1.6,0.2l-0.2,1.2L2469.1,2737.5z M2465.9,2737.1l0.2-1.2l1.6,0.2l-0.2,1.2L2465.9,2737.1z M2462.7,2736.7l0.2-1.2         l1.6,0.2l-0.2,1.2L2462.7,2736.7z M2479.5,2631.8l-1.2-0.2l0.3-1.6l1.2,0.2L2479.5,2631.8z M2478.9,2634.9l-1.2-0.2l0.3-1.6         l1.2,0.2L2478.9,2634.9z M2478.3,2638l-1.2-0.2l0.3-1.5l1.2,0.2L2478.3,2638z M2477.6,2641.1l-1.2-0.2l0.3-1.5l1.2,0.2         L2477.6,2641.1z M2477,2644.2l-1.2-0.2l0.3-1.5l1.2,0.2L2477,2644.2z M2476.4,2647.3l-1.2-0.2l0.3-1.5l1.2,0.2         L2476.4,2647.3z M2475.7,2650.3l-1.2-0.2l0.3-1.5l1.2,0.2L2475.7,2650.3z M2475.1,2653.4l-1.2-0.2l0.3-1.5l1.2,0.2         L2475.1,2653.4z M2474.5,2656.5l-1.2-0.2l0.3-1.5l1.2,0.2L2474.5,2656.5z M2473.9,2659.6l-1.2-0.2l0.3-1.5l1.1,0.4         L2473.9,2659.6z M2461,2736.4c-0.6-0.2-1.1-0.5-1.6-0.9l0.8-0.9c0.3,0.3,0.7,0.5,1.2,0.6L2461,2736.4z M2473.2,2662.7         l-1.2-0.2l0.3-1.5l1.2,0.2L2473.2,2662.7z M2472.6,2665.8l-1.2-0.2l0.3-1.5l1.2,0.2L2472.6,2665.8z M2472,2668.9l-1.2-0.2         l0.3-1.5l1.1,0.4L2472,2668.9z M2471.3,2672l-1.2-0.2l0.3-1.5l1.2,0.3L2471.3,2672z M2470.7,2675.1l-1.2-0.2l0.3-1.5         l1.2,0.3L2470.7,2675.1z M2470.1,2678.2l-1.2-0.2l0.3-1.5l1.2,0.3L2470.1,2678.2z M2469.4,2681.3l-1.2-0.2l0.3-1.5l1.2,0.2         L2469.4,2681.3z M2468.8,2684.4l-1.2-0.2l0.3-1.5l1.2,0.2L2468.8,2684.4z M2468.2,2687.5l-1.2-0.2l0.3-1.5l1.2,0.2         L2468.2,2687.5z M2467.6,2690.6l-1.2-0.2l0.3-1.5l1.2,0.2L2467.6,2690.6z M2466.9,2693.7l-1.2-0.2l0.3-1.5l1.2,0.2         L2466.9,2693.7z M2466.3,2696.8l-1.2-0.2l0.3-1.5l1.2,0.2L2466.3,2696.8z M2465.7,2699.9l-1.2-0.2l0.3-1.5l1.2,0.2         L2465.7,2699.9z M2465,2702.9l-1.2-0.2l0.3-1.5l1.2,0.2L2465,2702.9z M2464.4,2706l-1.2-0.2l0.3-1.5l1.2,0.2L2464.4,2706z          M2463.8,2709.1l-1.2-0.2l0.3-1.5l1.2,0.2L2463.8,2709.1z M2463.1,2712.2l-1.2-0.2l0.3-1.5l1.2,0.2L2463.1,2712.2z          M2462.5,2715.3l-1.2-0.2l0.3-1.5l1.2,0.2L2462.5,2715.3z M2461.9,2718.4l-1.2-0.2l0.3-1.5l1.2,0.2L2461.9,2718.4z          M2458.3,2734.1c-0.3-0.5-0.4-1.1-0.4-1.8l1.2,0c0,0.5,0.1,0.9,0.3,1.3L2458.3,2734.1z M2461.2,2721.5l-1.2-0.2l0.3-1.5         l1.2,0.2L2461.2,2721.5z M2460.6,2724.6l-1.2-0.2l0.3-1.5l1.2,0.2L2460.6,2724.6z M2460,2727.7l-1.2-0.2l0.3-1.6l1.2,0.2         L2460,2727.7z M2459.3,2730.8l-1.2-0.2l0.3-1.6l1.2,0.2L2459.3,2730.8z" class="color58595b svgShape"></path><polygon fill="#58595b" points="2554.4 2754.2 2554.6 2752.9 2553.4 2752.7 2553.4 2753.1 2553.1 2753.1 2553.1 2754.2" class="color58595b svgShape"></polygon><path fill="#58595b" d="M2581.9,2649.5l-1.1-0.5l0.6-1.4l1.1,0.5L2581.9,2649.5z M2580.7,2652.4l-1.1-0.4l0.6-1.4l1.1,0.4         L2580.7,2652.4z M2579.5,2655.2l-1.1-0.4l0.6-1.4l1.1,0.4L2579.5,2655.2z M2578.4,2658.1l-1.1-0.4l0.6-1.5l1.1,0.4         L2578.4,2658.1z M2577.3,2661l-1.1-0.4l0.6-1.5l1.1,0.4L2577.3,2661z M2576.2,2664l-1.1-0.4l0.5-1.5l1.1,0.4L2576.2,2664z          M2575.2,2666.9l-1.1-0.4l0.5-1.5l1.1,0.4L2575.2,2666.9z M2574.2,2669.8l-1.1-0.4l0.5-1.5l1.1,0.4L2574.2,2669.8z          M2573.2,2672.8l-1.1-0.4l0.5-1.5l1.1,0.4L2573.2,2672.8z M2572.2,2675.7l-1.1-0.4l0.5-1.5l1.1,0.4L2572.2,2675.7z          M2571.2,2678.7l-1.1-0.3l0.5-1.5l1.1,0.4L2571.2,2678.7z M2570.3,2681.6l-1.1-0.3l0.5-1.5l1.1,0.3L2570.3,2681.6z          M2569.4,2684.6l-1.1-0.3l0.4-1.5l1.1,0.3L2569.4,2684.6z M2568.5,2687.6l-1.1-0.3l0.4-1.5l1.2,0.3L2568.5,2687.6z          M2567.7,2690.6l-1.2-0.3l0.4-1.5l1.2,0.3L2567.7,2690.6z M2566.9,2693.6l-1.2-0.3l0.4-1.5l1.2,0.3L2566.9,2693.6z          M2566.1,2696.6l-1.2-0.3l0.4-1.5l1.2,0.3L2566.1,2696.6z M2565.3,2699.6l-1.2-0.3l0.4-1.5l1.2,0.3L2565.3,2699.6z          M2564.5,2702.6l-1.2-0.3l0.4-1.5l1.2,0.3L2564.5,2702.6z M2563.8,2705.6l-1.2-0.3l0.4-1.5l1.2,0.3L2563.8,2705.6z          M2563.1,2708.7l-1.2-0.3l0.4-1.5l1.2,0.3L2563.1,2708.7z M2562.3,2711.7l-1.2-0.3l0.3-1.5l1.2,0.3L2562.3,2711.7z          M2561.7,2714.7l-1.2-0.3l0.3-1.5l1.2,0.3L2561.7,2714.7z M2561,2717.8l-1.2-0.2l0.3-1.5l1.2,0.3L2561,2717.8z          M2560.4,2720.8l-1.2-0.2l0.3-1.5l1.2,0.2L2560.4,2720.8z M2559.7,2723.8l-1.2-0.2l0.3-1.5l1.2,0.2L2559.7,2723.8z          M2559.1,2726.9l-1.2-0.2l0.3-1.5l1.2,0.2L2559.1,2726.9z M2558.5,2729.9l-1.2-0.2l0.3-1.5l1.2,0.2L2558.5,2729.9z          M2558,2733l-1.2-0.2l0.3-1.5l1.2,0.2L2558,2733z M2557.4,2736.1l-1.2-0.2l0.3-1.5l1.2,0.2L2557.4,2736.1z M2556.9,2739.1         l-1.2-0.2l0.3-1.5l1.2,0.2L2556.9,2739.1z M2553.7,2751.2l0.2-1.5l1.2,0.2l-0.2,1.5L2553.7,2751.2z M2556.3,2742.2l-1.2-0.2         l0.3-1.5l1.2,0.2L2556.3,2742.2z M2554.1,2748.1l0.2-1.5l1.2,0.2l-0.2,1.5L2554.1,2748.1z M2555.8,2745.2l-1.2-0.2l0.3-1.5         l1.2,0.2L2555.8,2745.2z" class="color58595b svgShape"></path><polygon fill="#58595b" points="2583.5 2645.7 2583.1 2644.7 2582 2645.2 2582.2 2645.7 2582 2646.1 2583.1 2646.6" class="color58595b svgShape"></polygon><path fill="#58595b" d="M2581.3,2643.8l-0.7-1.4l1.1-0.5l0.7,1.4L2581.3,2643.8z M2580,2641l-0.7-1.4l1.1-0.5l0.7,1.4         L2580,2641z M2578.6,2638.2l-0.7-1.4l1.1-0.5l0.7,1.4L2578.6,2638.2z M2577.2,2635.4l-0.7-1.4l1.1-0.5l0.7,1.4         L2577.2,2635.4z M2575.9,2632.5l-0.7-1.4l1.1-0.5l0.7,1.4L2575.9,2632.5z M2574.5,2629.7l-0.7-1.4l1.1-0.5l0.7,1.4         L2574.5,2629.7z M2573.2,2626.9l-0.7-1.4l1.1-0.5l0.7,1.4L2573.2,2626.9z M2571.8,2624.1l-0.7-1.4l1.1-0.5l0.7,1.4         L2571.8,2624.1z M2570.4,2621.3l-0.7-1.4l1.1-0.5l0.7,1.4L2570.4,2621.3z M2569.1,2618.5l-0.7-1.4l1.1-0.5l0.7,1.4         L2569.1,2618.5z M2567.7,2615.7l-0.7-1.4l1.1-0.5l0.7,1.4L2567.7,2615.7z M2566.4,2612.8l-0.7-1.4l1.1-0.5l0.7,1.4         L2566.4,2612.8z M2565,2610l-0.7-1.4l1.1-0.5l0.7,1.4L2565,2610z M2563.7,2607.2l-0.7-1.4l1.1-0.5l0.7,1.4L2563.7,2607.2z          M2562.3,2604.4l-0.7-1.4l1.1-0.5l0.7,1.4L2562.3,2604.4z M2560.9,2601.6l-0.7-1.4l1.1-0.5l0.7,1.4L2560.9,2601.6z          M2559.6,2598.8l-0.7-1.4l1.1-0.5l0.7,1.4L2559.6,2598.8z M2558.2,2596l-0.7-1.4l1.1-0.5l0.7,1.4L2558.2,2596z          M2556.9,2593.1l-0.7-1.4l1.1-0.5l0.7,1.4L2556.9,2593.1z M2555.5,2590.3l-0.7-1.4l1.1-0.5l0.7,1.4L2555.5,2590.3z          M2554,2587.9c-0.3-0.2-0.6-0.4-0.9-0.5c-0.1,0-0.2,0-0.3-0.1l0.2-1.2c0.1,0,0.3,0.1,0.4,0.1c0.5,0.1,0.9,0.4,1.3,0.7         L2554,2587.9z M2551,2587.7l-0.6,0.4l-0.6-1l0.6-0.4c0.3-0.2,0.6-0.3,0.9-0.4l0.3,1.1         C2551.4,2587.5,2551.2,2587.6,2551,2587.7z M2547.6,2589.6l-0.6-1l1.4-0.8l0.6,1L2547.6,2589.6z M2544.9,2591.2l-0.6-1         l1.4-0.8l0.6,1L2544.9,2591.2z M2542.1,2592.7l-0.6-1l1.4-0.8l0.6,1L2542.1,2592.7z M2539.4,2594.3l-0.6-1l1.4-0.8l0.6,1         L2539.4,2594.3z M2536.7,2595.9l-0.6-1l1.4-0.8l0.6,1L2536.7,2595.9z M2533.9,2597.4l-0.6-1l1.4-0.8l0.6,1L2533.9,2597.4z          M2531.2,2599l-0.6-1l1.4-0.8l0.6,1L2531.2,2599z M2528.5,2600.6l-0.6-1l1.4-0.8l0.6,1L2528.5,2600.6z M2525.8,2602.1         l-0.6-1l1.4-0.8l0.6,1L2525.8,2602.1z M2523,2603.7l-0.6-1l1.4-0.8l0.6,1L2523,2603.7z M2520.3,2605.2l-0.6-1l1.4-0.8l0.6,1         L2520.3,2605.2z M2517.6,2606.8l-0.6-1l1.4-0.8l0.6,1L2517.6,2606.8z M2514.8,2608.4l-0.6-1l1.4-0.8l0.6,1L2514.8,2608.4z          M2512.1,2609.9l-0.6-1l1.4-0.8l0.6,1L2512.1,2609.9z M2509.4,2611.5l-0.6-1l1.4-0.8l0.6,1L2509.4,2611.5z M2506.7,2613.1         l-0.6-1l1.4-0.8l0.6,1L2506.7,2613.1z M2503.9,2614.6l-0.6-1l1.4-0.8l0.6,1L2503.9,2614.6z M2501.2,2616.2l-0.6-1l1.4-0.8         l0.6,1L2501.2,2616.2z M2498.5,2617.7l-0.6-1l1.4-0.8l0.6,1L2498.5,2617.7z M2495.7,2619.3l-0.6-1l1.4-0.8l0.6,1         L2495.7,2619.3z M2493,2620.9l-0.6-1l1.4-0.8l0.6,1L2493,2620.9z M2490.3,2622.4l-0.6-1l1.4-0.8l0.6,1L2490.3,2622.4z          M2487.5,2624l-0.6-1l1.4-0.8l0.6,1L2487.5,2624z M2484.8,2625.6l-0.6-1l1.4-0.8l0.6,1L2484.8,2625.6z M2482.1,2627.1         l-0.6-1l1.4-0.8l0.6,1L2482.1,2627.1z" class="color58595b svgShape"></path><path fill="#e6e7e8" d="M2543.5 2606.9c-3.3-.9-5.1-4.3-4.2-7.5.9-3.2 4.4-5 7.6-4.1 3.3.9 5.1 4.3 4.2 7.5C2550.1 2606 2546.7 2607.8 2543.5 2606.9zM2544 2605.1c2.2.6 4.6-.6 5.2-2.8.7-2.2-.6-4.5-2.9-5.2-2.2-.6-4.6.6-5.2 2.8C2540.5 2602.1 2541.8 2604.4 2544 2605.1zM2517.2 2623.1c-3.3-.9-5.1-4.3-4.2-7.5.9-3.2 4.4-5 7.6-4.1 3.3.9 5.1 4.3 4.2 7.5C2523.9 2622.2 2520.5 2624.1 2517.2 2623.1zM2517.7 2621.3c2.2.6 4.6-.6 5.2-2.8.7-2.2-.6-4.5-2.9-5.2-2.2-.7-4.6.6-5.2 2.8C2514.2 2618.4 2515.5 2620.7 2517.7 2621.3z" class="colore6e7e8 svgShape"></path><path fill="#231f20" d="M2544.3,2601.5c0.5,0.5,1.4,0.6,1.9,0.1c0.2-0.2,0.3-0.4,0.4-0.6c0.1-0.4,0-0.9-0.3-1.3         c-0.6-0.6-11.6-12.4-21.7-15.4c-0.3-0.1-0.6-0.2-0.9-0.2c-1.1-0.3-2.2-0.4-3.2-0.4c-1.2,0-2.3,0.2-3.4,0.5         c-4.3,1.5-7,6.2-7.9,13.8c1.1-0.8,2.1-1.7,3.1-2.6c1-4.9,2.9-7.8,5.7-8.8c0.2-0.1,0.5-0.2,0.7-0.2c0.9-0.2,2-0.2,3-0.1         c0.2,0,0.4,0,0.6,0.1C2530.2,2588,2540.4,2597.4,2544.3,2601.5z" class="color231f20 svgShape"></path><path fill="#231f20" d="M2518.3,2617.1c0.7-0.1,1.2-0.8,1.1-1.5c-0.9-5.9-1.9-20.1,1.7-27.9c0.2-0.5,0.4-0.9,0.7-1.3         c0.6-0.9,1.2-1.7,1.9-2.3c0.3-0.3,0.6-0.5,1-0.7c0.5-0.3,1.1-0.6,1.7-0.7c1-1,1.9-1.9,2.9-2.9c-2.2-0.1-4.2,0.3-5.9,1.4         c-1.1,0.7-2,1.5-2.8,2.5c-0.7,0.8-1.2,1.8-1.7,2.8c-0.7,1.5-1.2,3.1-1.6,4.9c-2.5,10.3-0.4,23.8-0.3,24.6         C2516.9,2616.7,2517.5,2617.2,2518.3,2617.1z" class="color231f20 svgShape"></path><g fill="#000000" class="color000 svgShape"><path fill="#e6e7e8" d="M2490.6,2639.4c-3.3-0.6-5.6-3.7-5.1-7c0.6-3.3,3.7-5.5,7.1-4.9c3.3,0.6,5.6,3.7,5.1,7        C2497.1,2637.7,2494,2639.9,2490.6,2639.4z M2490.9,2637.5c2.3,0.4,4.5-1.1,4.9-3.4c0.4-2.3-1.2-4.4-3.5-4.8        c-2.3-0.4-4.5,1.1-4.9,3.4C2487.1,2635,2488.6,2637.1,2490.9,2637.5z" class="colore6e7e8 svgShape"></path><path fill="#231f20" d="M2492.2,2634.6c0.7-0.3,1-1.1,0.7-1.7c-1.8-3.8-5-12.9-4.5-19.5c0.2-2.2,0.8-4.2,2-5.5        c1.8-2,4.7-2.7,8.9-2.1c1-0.7,1.9-1.4,2.9-2.2c-6.4-1.4-11.1-0.5-13.8,2.5c-2.1,2.3-2.8,5.5-2.7,9c0.1,8.4,4.5,18.3,4.7,18.8        C2490.7,2634.6,2491.5,2634.9,2492.2,2634.6z" class="color231f20 svgShape"></path></g></g><g fill="#000000" class="color000 svgShape"><path fill="#333333" d="M2452.1,2614l-22.8,132.6l-383.4-31.1c-55.6-5.2-111.4-9.4-167.2-12.8c-64.8-4.1-178.9-13.8-321.6-36.5      c-130.5-20.8-263.2-25.9-394.8-15.1c-144.2,11.8-258.6,12.7-323.5,11.8c-55.9-0.8-111.8-0.9-167.7,0l-418.6-0.1l-11.7-132      l446.3-24.1c58.3-2.1,116.1-11.6,171.9-28.4l172.2-59.4l0-0.1l123.4-42.6c44.9-57.7,46.2,19.8,90.9-62.1      c85.4-156.5,205.6,60.5,301.6,74.2l208.4,81.1l117.2,47.7c54.4,21,111.3,34.9,169.2,41.5L2452.1,2614z" class="color333 svgShape"></path><path fill="#414042" d="M1557.2,2666.1c-130.5-20.8-263.2-25.9-394.8-15.1l97-20.6c67.2-14.3,136.8-11.6,202.6,7.8L1557.2,2666.1z      " class="color414042 svgShape"></path></g><g fill="#000000" class="color000 svgShape"><path fill="#f7c19b" d="M2053 2027.4l58.5-.8c9.7-.1 18.8-4.5 25-11.9l17-20.4c2.8-3.3 7.5-4.1 11.2-1.9l0 0c4.1 2.5 5.5 7.9 3 12l-18 29.9c0 0 25.8 6.3 58.8-10.2 8.2-4.1 17.8 1.9 17.4 11.1l-.8 20.1c-.7 18.2-12.6 34.3-30 39.8-17.1 5.4-26.4 5.8-42.3 7.6-16.3 1.8-32.7.2-48.4-4.5l-22.5-6.7c0 0-40.1-.9-41.2 0M690.9 2047.3l-58.5-.8c-9.7-.1-18.8-4.5-25-11.9l-17-20.4c-2.8-3.3-7.5-4.1-11.2-1.9l0 0c-4.1 2.5-5.5 7.9-3 12l18 29.9c0 0-25.8 6.3-58.8-10.2-8.2-4.1-17.8 1.9-17.4 11.1l.8 20.1c.7 18.2 12.6 34.3 30 39.8 17.1 5.4 26.4 5.8 42.3 7.6 16.3 1.8 32.7.2 48.4-4.5l22.5-6.7c0 0 40.1-.9 41.2 0M1321.5 1690.7c40.6 69.3 77.3 62.4 110.5-16.4l2.4-79.7-106 6.9L1321.5 1690.7z" class="colorf7c19b svgShape"></path><path fill="#f7c19b" d="M1270,1446.7c0,0-39.3,106.4-5.6,168.1c17.5,32,56.6,45.1,90.3,31.3c25.8-10.5,63.8-31,93.9-67.5      c2.6-3.2-3.2-100-3.2-100l-22.5-33.4l-87.8-13.4L1270,1446.7z" class="colorf7c19b svgShape"></path><path fill="#333333" d="M1375.4,1499.2c0,0-11.6,4.3-25.7,6.2c-20.5,2.8-39.3-11.8-42-32.3l-0.7-5.1c0,0-90.5-6.2-54.7-86.9      c5.9-13.2,17.9-22.8,32.2-24.7c17.4-2.4,44.9,1.4,86.3,24.6c12.3,6.9,27.5,4.9,40.8,0.2c14.8-5.3,37.4-4.1,51.8,39.8      c2.5,7.7,6.3,14.8,11.1,21.3c13.9,18.6,52.3,97-38.6,177c-2.9,2.5-7.4,0.3-7-3.5c2.7-28.6,6.8-105.6-28.6-93.1l-0.1,0.1      c-6.6,2.3-11.7,7.8-13.6,14.6l-4.9,17.6c-1.1,4.1-6,5.9-9.5,3.5c-3.6-2.6-7.1-6.9-7.7-11.3l0,0      C1365.3,1536.2,1375.4,1499.2,1375.4,1499.2z" class="color333 svgShape"></path><path fill="#eeeeee" d="M1454.8,1718.1l-22.9-43.8c-31.2,43.5-67.8,50.9-110.5,16.4l-115.9,182.5l39,83.3l7.4,299.1l36.5,141.6        c25.4,36.9,65.9,41.7,115,28.2l54.9-38l74.9-298.8l0.2-125.8c0,0-25.2-88.1-29.3-92.6        C1500,1865.8,1454.8,1718.1,1454.8,1718.1z" class="coloreee svgShape"></path><path fill="#40916c" d="M2113.9 2007.6l-8.6 107.7c0 0-178.8-15.7-312.2-32.5-28.5-3.6-55.8-13.4-80.5-28l-118.2-70-8.6 456.2c0 5.4-4.5 9.7-9.9 9.5-33.1-1.2-140.8 41.1-172.5-25-2.9-6.1.3-14.7 1.6-20.9 2.1-10.3 3.7-20.8 5.1-31.3 16.5-124.9-14.2-249.4-11.6-374.4 2.1-99.9 20.4-200 30.6-299.4.1-1.3 2.8-25.2 2.8-25.2 101.1 21 187.8 71.2 295.5 227.7 24.6 35.7 63.5 59 106.6 63.3L2113.9 2007.6zM635.1 2031c0 0 338-65.4 363.7-97.6 178-222.7 320.4-241.2 322.6-242.6-5.3 25.8-10.6 51.6-15.8 77.4-9.9 48.6-14.2 95.5-9.7 145.2 3.6 39.8 9.6 79.4 9.9 119.4.3 46.8-10.3 91.6-16 137.7-10.7 85.8-2.6 173.3-.6 259.5.3 12.4-10.7 22-23 20.5-48.4-6.2-89.3-25.3-122.4-58-3.6-3.6-5.3-8.7-4.7-13.8 6.5-57 14-113.8 22.3-170.5 9.1-62 30.5-246.9 19.8-249.3-5.7-1.3-48.8 33.3-89.8 67.2-45.5 37.6-99.9 62.8-158 73.2-99.4 17.7-286.4 34.8-286.4 34.8L635.1 2031z" class="color1e88e5 svgShape"></path><path fill="#eab896" d="M1324.5,1651.5c0,0,43.9,5.7,87-26.7c0,0-25,37.3-88.3,44.1L1324.5,1651.5z" class="coloreab896 svgShape"></path></g><g fill="#000000" class="color000 svgShape"><path fill="#f7c19b" d="M2462.2,2048.1l-33.5,0.4l-1.9-9.9l-8.4-36.3l-1.2-93.5l44.9-0.6c0.9,0,1.9,0,2.8,0      c17.6,0.1,35,1.8,51.9,5.1l18.9,3.7l164,32l125.8,24.5l-125.1,27.8l-176.8,39.2l-5.1,1.1c-16.1,3.6-32.7,5.7-49.4,6.3      c-0.3,0-0.8,0-1.2,0.1C2466,2048.1,2464.2,2048.1,2462.2,2048.1z" class="colorf7c19b svgShape"></path><path fill="#eb7547" d="M411,2004.5l-0.9-69.9l2067.3-26.4c19.3-0.2,35.2,15.2,35.4,34.5l0,0c0.2,19.3-15.2,35.2-34.5,35.4      L411,2004.5z" class="coloref5350 svgShape"></path><path fill="#d05f36" d="M411.9,2074.4l-0.9-69.9l2067.3-26.4c19.3-0.2,35.2,15.2,35.4,34.5v0c0.2,19.3-15.2,35.2-34.5,35.4      L411.9,2074.4z" class="colore54545 svgShape"></path><path fill="#414042" d="M2700.5,2001.3c-33.7-17-33.9-34.4-0.7-52.3l125.8,24.5L2700.5,2001.3z" class="color414042 svgShape"></path><rect width="139.9" height="169" x="256.5" y="1921" fill="#e0e0e0" transform="rotate(89.267 326.467 2005.544) scale(.99998)" class="colore0e0e0 svgShape"></rect><rect width="139.9" height="44.2" x="222.2" y="1983.9" fill="#bdbdbd" transform="rotate(89.267 292.133 2005.983) scale(.99998)" class="colorbdbdbd svgShape"></rect><rect width="139.9" height="44.2" x="290.9" y="1983" fill="#bdbdbd" transform="rotate(89.267 360.8 2005.105) scale(.99998)" class="colorbdbdbd svgShape"></rect><path fill="#ffa726" d="M72.9,2008.8L72.9,2008.8c-0.5-38.6,30.4-70.3,69-70.8l99.1-1.3l1.8,139.9l-99.1,1.3    C105.1,2078.3,73.4,2047.4,72.9,2008.8z" class="colorffa726 svgShape"></path></g></g></svg></g></svg>