<svg xmlns="http://www.w3.org/2000/svg" xmlns:xlink="http://www.w3.org/1999/xlink" xmlns:svgjs="http://svgjs.com/svgjs" id="SvgjsSvg2624" width="360" height="360"><defs id="SvgjsDefs2625"></defs><g id="SvgjsG2626"><svg xmlns="http://www.w3.org/2000/svg" viewBox="248.224 187.264 1181.714 1364.85" width="360" height="360"><path fill="#847895" d="M1376.224 1477.888c0 6.731-238.639 12.188-533.016 12.188s-532.1-5.52-533.016-12.188c-.923-6.724 235.159-12.16 533.016-12.188 294.377-.027 533.016 5.457 533.016 12.188z" class="color847895 svgShape"></path><path fill="#99adbf" d="M1302.055 577.331c-72.051-36.148-145.087-70.203-218.679-102.734-3.382-1.495-4.83 3.857-1.496 5.346 73.031 32.619 145.309 66.979 217.122 102.447 3.522 1.74 6.612-3.273 3.053-5.059zM1317.921 568.663c-72.051-36.148-145.087-70.203-218.679-102.734-3.382-1.495-4.83 3.857-1.496 5.346 73.031 32.619 145.309 66.979 217.122 102.447 3.522 1.74 6.612-3.273 3.053-5.059zM1259.918 763.97l22.898-55.542c15.063-36.538 30.292-73.02 44.992-109.706 1.329-3.317-3.733-5.413-5.133-2.119-15.464 36.371-30.409 72.97-45.511 109.492l-22.353 54.057c-7.589 18.352-16.632 36.721-22.662 55.64-1.097 3.441 3.525 5.357 5.179 2.138 8.838-17.205 15.217-36.076 22.59-53.96zM1310.056 594.333c1.253-3.089-3.495-5.056-4.789-1.977-31.909 75.931-64.964 151.691-94.37 228.629-1.179 3.084 3.4 4.981 4.743 1.958 33.438-75.273 63.461-152.285 94.416-228.61z" class="color99adbf svgShape"></path><path fill="#e9c46a" d="M1330.056 567.998a14.833 14.833 0 0 0-6.415-1.093 14.816 14.816 0 0 0-5.317-3.751c-8.504-3.511-18.651 1.521-22.664 11.24-4.013 9.719-.372 20.444 8.132 23.955a14.833 14.833 0 0 0 6.415 1.093 14.828 14.828 0 0 0 5.317 3.751c8.504 3.511 18.651-1.521 22.664-11.24 4.013-9.718.372-20.443-8.132-23.955z" class="colorefb44b svgShape"></path><path fill="#ffffff" d="M1308.952 593.671c-1.973-4.128-3.435-7.658-1.704-12.339 1.744-4.72 5.864-7.926 10.204-10.119 3.177-1.605 1.121-6.713-2.14-5.151-6.301 3.018-11.964 7.618-14.011 14.564-1.644 5.58-.892 12.148 3.613 16.128 1.955 1.73 5.15-.756 4.038-3.083z" class="colorfff svgShape"></path><path fill="#e9c46a" d="M991.88 494.207s2.277-77.024 67.396-75.895c65.119 1.129 73.046 79.137 68.661 89.013L991.88 494.207z" class="colorefb44b svgShape"></path><path fill="#1a1a1a" d="M1127.936 507.326c-.181 1.878-30.785.465-68.356-3.158-37.571-3.623-67.882-8.082-67.7-9.961.181-1.879 30.785-.465 68.356 3.158 37.571 3.623 67.881 8.082 67.7 9.961z" class="color1a1a1a svgShape"></path><path fill="#ffffff" d="M1027.082 438.12c-12.462 8.982-19.571 23.255-19.477 38.598.025 4.021 6.284 4.697 6.298.607.046-13.821 6.246-25.928 17.287-34.219 3.345-2.511-.756-7.402-4.108-4.986z" class="colorfff svgShape"></path><path fill="#99adbf" d="M1258.688 800.417h-49.93a5.006 5.006 0 0 1-5.006-5.006v-8.905a5.006 5.006 0 0 1 5.006-5.006h49.93a5.006 5.006 0 0 1 5.006 5.006v8.905a5.006 5.006 0 0 1-5.006 5.006z" class="color99adbf svgShape"></path><path fill="#4a3333" d="M475.971 1425.382c.121-7.291.476-18.387 1.524-20.483 2.558-5.116 120.579-103.127 120.579-103.127l-30.145-42.838s-112.647 134.859-114.233 141.205c-1.316 5.262-2.565 21.912-1.198 27.043-.013.014-.033.026-.045.04-1.516 1.831 0 16.481 0 18.312 0 1.831 1.516 3.662 1.516 3.662s-3.032 12.819-1.516 12.819h3.032s3.041 17.729 21.223 18.312c22.669.727 22.669-16.726 22.669-16.726s7.933 2.565 7.933-4.76c.001-7.003 5.772-32.513-31.339-33.459z" class="color4a3333 svgShape"></path><path fill="#6c4e4e" d="M801.762 983.341a543.164 543.164 0 0 0 19.467 4.514c2.134-54.884.223-146.189.223-146.189l-19.779 7.142c.001-.001 1.688 86.1.089 134.533z" class="color6c4e4e svgShape"></path><path fill="#e9c46a" d="M621.641 824.037s219.467-13.988 227.086-2.994 4.406 35.031-.303 38.075c-4.708 3.043-221.182 8.478-228.845.594-7.664-7.885-2.602-35.741 2.062-35.675z" class="colorefb44b svgShape"></path><path fill="#acbed1" d="M562.006 1074.892h36.575v115.82h-36.575z" class="coloracbed1 svgShape"></path><path fill="#4a3333" d="M419.256 1038.401s56.323 62.67 154.691 65.843c98.367 3.173 156.277-69.016 156.277-69.016l-310.968 3.173z" class="color4a3333 svgShape"></path><path fill="#6c4e4e" d="M351.827 1020.948s4.76 22.212 15.866 30.145 118.993 7.933 258.611 7.933 188.802-12.693 193.562-17.452c4.76-4.76 2.251-24.897 2.251-24.897l-470.29 4.271z" class="color6c4e4e svgShape"></path><path fill="#4a3333" d="M558.027 1237.748s-3.662-108.042 0-109.873c3.662-1.831 42.118-3.662 43.949 0 1.831 3.662 0 108.042 0 108.042l-43.949 1.831z" class="color4a3333 svgShape"></path><path fill="#6c4e4e" d="M545.208 1254.97s-166.64 120.86-172.134 128.185c-5.494 7.325-5.494 37.539-1.831 37.539 3.662 0 20.143 0 20.143-1.831v-22.89l173.965-95.223s25.637 1.831 31.13 0c0 0 219.746 98.885 219.746 102.548v16.481s20.143 0 21.974-1.831c1.831-1.831 1.831-27.468-1.831-31.131s-225.239-135.51-225.239-135.51 0-25.637-1.831-27.468c-1.831-1.831-60.43-1.831-64.092 1.831-3.662 3.663 0 29.3 0 29.3zM369.412 1424.532s20.143 0 21.975 1.831c1.831 1.831 0 16.481 0 18.312 0 1.831-1.831 3.662-1.831 3.662s3.662 12.818 1.831 12.818h-3.662s-3.663 18.312-25.637 18.312c-18.312 0-21.975-16.481-21.975-16.481s-7.325 0-7.325-7.325c0-7.323 3.662-32.961 36.624-31.129z" class="color6c4e4e svgShape"></path><path fill="#4a3333" d="M340.165 1461.506a2.38 2.38 0 0 1-2.372-2.22c-.04-.592-.06-1.19-.06-1.793 0-14.439 11.747-26.186 26.185-26.186 14.439 0 26.186 11.747 26.186 26.186a2.38 2.38 0 1 1-4.76 0c0-11.814-9.612-21.427-21.427-21.427-11.814 0-21.426 9.612-21.426 21.427 0 .494.017.987.05 1.474a2.382 2.382 0 0 1-2.376 2.539z" class="color4a3333 svgShape"></path><path fill="#6c4e4e" d="M837.185 1424.532s-20.143 0-21.975 1.831c-1.831 1.831 0 16.481 0 18.312 0 1.831 1.831 3.662 1.831 3.662s-3.662 12.818-1.831 12.818h3.663s3.662 18.312 25.637 18.312c18.312 0 21.975-16.481 21.975-16.481s7.325 0 7.325-7.325c-.001-7.323-3.663-32.961-36.625-31.129z" class="color6c4e4e svgShape"></path><path fill="#333333" d="M866.432 1461.506a2.382 2.382 0 0 1-2.377-2.54c.032-.487.049-.979.049-1.474 0-11.814-9.612-21.427-21.426-21.427-11.815 0-21.427 9.612-21.427 21.427a2.38 2.38 0 1 1-4.76 0c0-14.439 11.747-26.186 26.186-26.186s26.186 11.747 26.186 26.186c0 .603-.02 1.201-.06 1.793a2.378 2.378 0 0 1-2.371 2.221z" class="color333 svgShape"></path><path fill="#e9c46a" d="M821.452 1027.295s-456.004 12.567-485.491-1.586c-39.664-19.039 11.106-150.725 3.173-212.601-7.933-61.876-33.318-144.378-34.905-196.735-1.586-52.357-7.933-117.406 11.106-133.272 19.039-15.866 280.975-7.036 290.343 6.346 11.106 15.866 1.586 106.3 9.519 126.926 7.933 20.625 25.385 165.004 25.385 195.148S627.89 941.62 629.477 947.966c1.586 6.346 191.975 0 199.908 4.76 7.933 4.76 19.039 74.569-7.933 74.569z" class="colorefb44b svgShape"></path><path fill="#d89b39" d="M622.838 988.512c-23.832 0-50.589-.023-77.259-.088-46.76-.115-84.087-.341-110.942-.669-52.507-.643-52.75-1.129-53.917-3.464-.858-1.718-.696-4.035 3.65-35.459 5.143-37.196 12.917-93.408 11.883-121.326-.737-19.902-15.056-91.05-26.882-138.975-11.935-48.369-11.053-76.918-10.121-107.143.25-8.102.509-16.479.509-25.303 0-62.13-15.333-69.978-15.488-70.049-1.647-.6-2.434-2.395-1.835-4.042.6-1.647 2.484-2.468 4.129-1.873 2 .728 19.541 9.039 19.541 75.965 0 8.921-.26 17.349-.512 25.498-.919 29.778-1.787 57.905 9.939 105.427 11.898 48.22 26.312 119.992 27.061 140.261 1.054 28.473-6.765 85.016-11.939 122.431-1.807 13.068-3.53 25.529-3.936 30.509 22.437 1.889 200.375 2.166 319.698 1.868h.008a3.174 3.174 0 0 1 .008 6.346c-.533-.001-36.291.086-83.595.086zm-236.195-6.287z" class="colord89b39 svgShape"></path><path fill="#6c4e4e" d="M718.151 1425.391s-16.675 0-18.191 1.831c-1.516 1.831 0 16.481 0 18.312 0 1.831 1.516 3.662 1.516 3.662s-3.032 12.819-1.516 12.819h3.032s3.041 17.729 21.223 18.312c22.669.727 22.669-16.725 22.669-16.725s7.933 2.565 7.933-4.76 6.345-34.904-36.666-33.451z" class="color6c4e4e svgShape"></path><path fill="#4a3333" d="m742.363 1462.366-.136-.003a2.382 2.382 0 0 1-2.243-2.51c.028-.496.041-.996.041-1.5 0-11.814-7.773-21.427-17.327-21.427-9.554 0-17.328 9.612-17.328 21.427a2.38 2.38 0 1 1-4.76 0c0-14.439 9.908-26.186 22.087-26.186 12.178 0 22.087 11.747 22.087 26.186 0 .593-.016 1.184-.049 1.766a2.376 2.376 0 0 1-2.372 2.247z" class="color4a3333 svgShape"></path><path fill="#6c4e4e" d="M596.159 1258.934s123.753 134.859 125.339 141.205c1.586 6.346 3.081 19.725 0 19.012-3.08-.714-22.212 3.173-22.212 3.173s0-14.252-1.586-17.425c-2.558-5.116-131.686-103.127-131.686-103.127l30.145-42.838z" class="color6c4e4e svgShape"></path><path fill="#ffffff" d="M692.147 1363.649a2.372 2.372 0 0 1-1.769-.787l-72.189-80.122a2.38 2.38 0 1 1 3.536-3.186l72.189 80.122a2.38 2.38 0 0 1-1.767 3.973z" class="colorfff svgShape"></path><path fill="#4a3333" d="M430.361 1153.429a3.173 3.173 0 0 1-.871-6.225c44.649-12.77 92.915-28.355 101.677-33.873-5.053-5.911-28.535-24.925-50.364-41.463a3.173 3.173 0 1 1 3.831-5.057c53.614 40.616 53.614 45.219 53.614 46.953 0 3.151 0 6.411-54.57 23.723-25.922 8.224-52.182 15.745-52.444 15.819a3.178 3.178 0 0 1-.873.123zm101.686-38.877z" class="color4a3333 svgShape"></path><path fill="#4a3333" d="M462.409 1138.894s-50.411-4.404-62.869 7.496c-4.876 4.658 18.728 22.11 36.375 22.11s26.494-29.606 26.494-29.606z" class="color4a3333 svgShape"></path><path fill="#e8a56d" d="M713.521 1453.671c1.659 11.611 34.833 11.611 92.888 14.929 58.055 3.317 131.039-1.659 139.333-9.952 8.294-8.294-29.857-13.27-41.468-16.587-11.611-3.318-69.666-36.492-81.277-54.738-3.782-5.955-6.867-13.137-9.289-20.12-5.043-14.431-6.72-28.388-6.72-28.388-15.506-6.229-86.256 6.589-86.256 6.589 0 14.149-1.09 33.924-1.869 45.187-2.24 33.588-6.586 54.388-5.342 63.08z" class="colore8a56d svgShape"></path><path fill="#ffffff" d="M818.779 1379.624c1.296 2.701 2.696 5.302 4.218 7.698 11.611 18.246 69.666 51.42 81.277 54.738 11.611 3.317 49.762 8.294 41.468 16.587-8.294 8.294-81.277 13.27-139.333 9.952-58.055-3.318-91.23-3.318-92.888-14.929-1.187-8.296 2.713-27.65 5.018-58.597 33.115-6.737 66.7-11.285 100.24-15.449z" class="colorfff svgShape"></path><path fill="#2f3534" d="M716.009 1409.715s54.738 21.563 72.984 14.929c18.246-6.635 6.635-29.857 11.611-33.175 4.976-3.318 24.881-6.635 29.857-3.318 4.976 3.318 36.492 31.516 61.373 38.151 24.881 6.635 51.42 13.27 59.714 21.563 8.294 8.294 8.294 16.587 6.635 18.246-1.659 1.659-48.103 13.27-122.746 11.611-74.643-1.659-121.087-4.976-124.404-9.952-3.318-4.976 3.317-41.468 4.976-58.055z" class="color2f3534 svgShape"></path><path fill="#ffffff" d="M835.437 1477.723c-74.643-1.659-121.087-4.976-124.404-9.952-1.435-2.153-1.006-10.208.075-19.994 11.082 1.442 29.962 3.795 56.322 6.724 44.786 4.976 39.809 9.952 81.277 13.27 36.588 2.927 92.059-2.488 109.984-7.853.684 3.092.284 5.403-.508 6.194-1.659 1.658-48.103 13.269-122.746 11.611z" class="colorfff svgShape"></path><path fill="#e8a56d" d="M1150.556 1454.915c7.612 8.923 35.642-8.822 86.468-37.073s109.83-71.495 112.401-82.938c2.571-11.444-32.325 4.759-43.909 8.167-11.585 3.408-78.382 6.432-97.952-2.773-6.381-3.008-12.829-7.426-18.611-12.031-11.98-9.496-45.331-65.789-45.331-65.789-16.434 3.031-66.05 58.001-66.05 58.001 7.568 11.955 38.389 68.349 43.755 78.282 16.075 29.577 23.529 49.476 29.229 56.154z" class="colore8a56d svgShape"></path><path fill="#ffffff" d="M1199.882 1336.049c2.54 1.589 5.115 3.038 7.682 4.248 19.57 9.205 86.367 6.181 97.952 2.773 11.585-3.408 46.481-19.61 43.909-8.167-2.571 11.444-61.574 54.687-112.401 82.938-50.826 28.251-78.856 45.996-86.468 37.073-5.441-6.374-12.498-24.814-27.104-52.194 24.376-23.405 50.319-45.212 76.43-66.671z" class="colorfff svgShape"></path><path fill="#2f3534" d="M1129.146 1416.445s41.866-28.705 59.544-36.731c24.876-11.293-.258-18.471 2.172-23.935 2.43-5.465 17.473-18.915 23.452-18.774 5.979.141 47.69 7.109 72.261-.594 24.571-7.703 38.201-25.587 61.988-13.722 10.496 5.235-18.179 48.81-82.133 87.335-63.954 38.525-104.97 60.565-110.435 58.135-5.464-2.43-19.378-36.812-26.849-51.714z" class="color2f3534 svgShape"></path><path fill="#ffffff" d="M1266.43 1410.024c-63.954 38.525-104.97 60.565-110.435 58.135-2.364-1.051-6.31-8.086-10.631-16.933 2.67-5.445 18.923-22.053 42.761-33.679 40.502-19.751 42.915-7.89 70.766-34.445 26.565-25.329 74.703-79.644 101.372-54.641 2.145 4.271-5.88 15.601-6.125 16.693-.514 2.288-23.754 26.345-87.708 64.87z" class="colorfff svgShape"></path><path fill="#4a3333" d="M891.784 1157.059c-.038-9.961-.034-19.922-.041-29.882-1.364-1.061-2.733-2.117-4.062-3.216-.705-.583.358 22.299 1.994 49.965l2.109-16.867z" class="color4a3333 svgShape"></path><path fill="#2f3534" d="M754.998 798.572h317.867" class="color2f3534 svgShape"></path><path fill="#40916c" d="M594.741 478.837s28.876 19.332 41.759 48.13 30.999 69.801 34.059 79.193 16.505 5.837 12.184 11.172c-4.322 5.335-4.752 13.39.848 14.661 5.6 1.271 5.607 11.011 5.607 11.011s6.319-3.193 17.33 6.123c11.011 9.317 25.313 35.951 25.313 35.951l-38.414 87.424-104.026 39.824 76.203 9.821S490.406 981.682 485.832 981.952c-4.574.269-92.908 6.519-92.908 6.519s-69.473-5.826-81.409-22.342c-11.936-16.516 86.251-146.158 86.251-146.158s-57.607-10.715-54.219-86.218c3.388-75.503 13.628-189.422 36.073-236.007 22.445-46.584 74.958-32.581 74.958-32.581s-4.659-6.496 4.235-12.791c8.893-6.295 38.827-3.446 58.163 0 19.334 3.446 70.132 13.059 77.765 26.463z" class="color61b5ae svgShape"></path><path fill="#32887d" d="m512.326 476.271-10.51-.754s-5.493-8.096-6.813-15.034c-1.319-6.938 20.975-4.851 17.323 15.788zM627.504 777.78c-29.949-4.161-121.689 44.609-121.689 44.609s-1.863 3.241-11.305 8.945c-8.982 5.427-36.793.72-56.535 3.365-22.282 2.985-11.042-10.231-11.042-10.231l-54.503-4.498s-37.038 65.914-53.968 109.731c58.241-22.159 208.489-78.744 208.489-78.744l96.696-28.568 27.449 12.946c16.475-14.942 19.462-14.734 19.462-14.734l-16.758-32.93c-9.922-5.142-19.156-8.899-26.296-9.891z" class="color338a80 svgShape"></path><path fill="#ffffff" d="M633.962 847.653c2.02-20.528 2.666-41.208 1.588-61.804-.109-2.079-.261-4.155-.407-6.232-2.732-.867-5.307-1.512-7.64-1.836-7.794-1.083-19.776 1.424-33.233 5.718.219 2.645.484 5.285.843 7.914 2.653 19.417 8.142 38.381 11.466 57.662l20.924-.495 6.459-.927z" class="colorfff svgShape"></path><path fill="#e09557" d="M929.667 696.651c-15.448-7.885-21.499-14.4-36.965-5.633-15.466 8.767-67.285 38.253-67.285 38.253l9.587 51.343s75.806-3.477 84.371-1.458c8.566 2.02 9.598-11.501-23.512-16.28-33.11-4.779-34.313-13.456-16.297-23.181 16.191-8.739 34.959 2.5 46.344 14.198-1.058 5.324-2.141 12.355 1.349 15.459 3.241 2.883 6.29.988 8.31-1.162 2.76 6.864 2.969 11 13.755 10.996 0 0-1.251-12.198-2.807-16.744-1.556-4.546 6.336-7.439-.524-23.058s-15.932-26.308-15.932-26.308 13.735 5.955 20.339 2.419c6.606-3.538-5.286-10.958-20.733-18.844z" class="colore09557 svgShape"></path><path fill="#d8874a" d="M947.11 760.444c-5.587-11.161-12.905-21.172-20.94-30.686-3.805-4.505-7.597-9.44-12.106-13.267-3.751-3.184-9.994-6.054-14.508-2.613-1.109.846-.395 2.479.99 2.204 5.868-1.166 10.203 1.459 14.164 5.593 3.805 3.971 7.408 8.171 10.938 12.387 7.222 8.627 13.975 17.772 19.542 27.565.726 1.277 2.561.098 1.92-1.183z" class="colord8874a svgShape"></path><path fill="#d27b54" d="M936.554 766.239c-1.36-2.446-2.655-4.87-4.338-7.115-1.715-2.286-3.631-4.443-5.616-6.498-1.025-1.061-2.451-2.904-4.132-2.4a1.847 1.847 0 0 0-1.295 1.786c.023 1.005.726 1.747 1.393 2.421 1.963 1.982 3.897 3.967 5.689 6.109 1.007 1.204 1.98 2.442 3.018 3.618 1.018 1.153 1.996 2.299 2.898 3.547 1.048 1.452 3.267.123 2.383-1.468z" class="colord27b54 svgShape"></path><path fill="#e09557" d="m825.417 729.271-93.577-42.442s-34.736 10.228-45.333 53.692c-10.597 43.464 148.497 40.094 148.497 40.094l-9.587-51.344z" class="colore09557 svgShape"></path><path fill="#99adbf" d="M1088.973 791.983c6.571-17.051 47.03-201.006 38.251-204.518-10.311-4.124-162.271-1.046-171.113 4.117-7.875 4.598-38.629 182.607-42.14 186.119-3.512 3.512-154.514 1.756-161.537 5.267-4.079 2.04-4.565 6.026-4.259 9.015h340.798z" class="color99adbf svgShape"></path><path fill="#32887d" d="M448.434 764.818a3.314 3.314 0 0 1-2.977-4.772c.079-.165 8.177-16.706 18.063-32.833 18.758-30.597 27.594-33.451 32.619-32.94 15.944 1.63 52.859 23.724 54.422 24.665a3.317 3.317 0 1 1-3.418 5.686c-.371-.222-37.2-22.271-51.678-23.752-.1-.01-.206-.014-.309-.014-8.297 0-29.031 31.977-43.737 62.097a3.32 3.32 0 0 1-2.985 1.863zM555.757 716.031a1.658 1.658 0 0 1-1.625-1.333c-15.091-75.449-59.557-133.023-73.016-133.023-8.893 0-11.815-21.873-15.845-57.56-2.704-23.953-5.77-51.103-11.919-57.83a1.661 1.661 0 0 1 .105-2.344 1.662 1.662 0 0 1 2.344.105c6.875 7.523 9.737 32.865 12.768 59.696 2.747 24.333 6.167 54.615 12.547 54.615 16.602 0 61.418 61.433 76.269 135.69a1.659 1.659 0 0 1-1.628 1.984zM660.258 745.888a1.658 1.658 0 0 1-1.525-1.006c-1.834-4.28-44.92-105.156-44.92-135.01 0-17.932 5.362-25.6 9.671-31.76 3.047-4.356 5.452-7.796 5.574-13.843.306-15.112-35.428-83.973-35.787-84.666a1.659 1.659 0 0 1 2.942-1.532c1.49 2.864 36.485 70.316 36.163 86.267-.143 7.055-3.071 11.242-6.173 15.677-4.252 6.079-9.071 12.972-9.071 29.859 0 29.179 44.206 132.661 44.651 133.704a1.657 1.657 0 0 1-1.525 2.31z" class="color338a80 svgShape"></path><path fill="#32887d" d="M645.393 684.374a3.315 3.315 0 0 1-3.016-4.688c.557-1.226 14.012-30.134 45.853-39.857a3.318 3.318 0 1 1 1.937 6.347c-28.908 8.827-41.627 35.985-41.753 36.259a3.322 3.322 0 0 1-3.021 1.939z" class="color338a80 svgShape"></path><path fill="#ffffff" d="M501.816 475.516s63.242 150.132 84.601 289.966l62.545-3.305s-39.506-94.429-56.019-181.702c-16.513-87.273-18.839-99.77-18.839-99.77l-72.288-5.189z" class="colorfff svgShape"></path><path fill="#333333" d="M646.026 262.865c-6.032-8.483-17.729-13.562-33.617-13.562-31.666 0-102.108 7.553-107.645 37.357a28.277 28.277 0 0 0-8.903-2.137c-6.224-.456-12.971 1.345-17.624 5.628-1.526 1.405.417 3.708 2.15 2.787 4.682-2.488 9.797-3.679 15.108-2.983 1.664.218 3.338.644 4.937 1.233-8.82 2.008-29.277 9.044-29.277 31.119 0 16.487 7.894 60.136 40.867 76.623 32.973 16.486 98.919-49.46 98.919-49.46s16.644-20.814 32.973-49.46c2.61-4.578 4.423-8.977 5.506-13.142.084 1.292.117 2.585.044 3.865-.47 8.165-3.551 16.361-6.84 23.775-3.305 7.451-7.325 14.797-12.312 21.256-1.477 1.913 1.818 4.477 3.372 2.602 9.286-11.212 16.718-23.56 20.732-37.663 3.743-13.149 2.036-28.231-8.39-37.838z" class="color333 svgShape"></path><path fill="#e8a56d" d="M502.396 468.249c-6.979 23.005 50.946 29.633 70.626 17.565 2.436-1.494 0-12.587.033-34.532.005-3.271-.413-6.532-.449-9.801-.071-6.479.212-12.964-.017-19.44-.228-6.563 0-12.359 0-12.359l-62.77-18.535c.691 2.46-3.645 64.647-7.423 77.102z" class="colore8a56d svgShape"></path><path fill="#1a1a1a" d="M516.974 410.565s6.18 32.663 27.366 39.725c21.187 7.062 28.682-6.096 28.682-6.096l-56.048-33.629z" class="color1a1a1a svgShape"></path><path fill="#e8a56d" d="M619.724 329.959a11.685 11.685 0 0 0-.284-1.856c-2.442-3.255-4.552-6.668-5.875-10.442a9.738 9.738 0 0 0-1.409-.515c-5.196-1.461-10.744-.215-15.909 1.351-5.165 1.566-10.37 3.474-15.766 3.331-6.917-.184-13.153-3.645-19.888-4.793-6.455-1.101-12.416 1.663-16.915 6.258-3.792 3.872-6.418 8.716-8.849 13.56-2.431 4.844-4.742 9.802-8.049 14.097-1.926 2.502-4.717 4.951-7.834 4.443-4.785-.78-8.164-7.48-12.077-10.062-2.055-1.356-4.492-2.351-6.936-2.046-1.876.234-3.58 1.212-5.094 2.345-2.625 1.965-4.493 4.351-5.596 7.433-3.141 8.78-.865 18.484 5.074 25.503 2.031 2.4 4.415 4.509 7.007 6.286.308.211 3.311 1.706 3.333 2.009 2.783 37.74 52.585 67.52 82.138 56.789 55.577-20.179 33.492-92.659 33.553-103.479.005-3.411-.412-6.816-.624-10.212z" class="colore8a56d svgShape"></path><path fill="#d8874a" d="M596.527 389.069c-.293-1.461-1.795-2.48-3.264-2.17l-4.339.916c-1.464.309-2.466 1.787-2.17 3.264.293 1.461 1.795 2.48 3.264 2.17l4.339-.916c1.464-.308 2.466-1.787 2.17-3.264z" opacity=".7" class="colord8874a svgShape"></path><path fill="#333333" d="M571.243 347.564c-3.417-1.821-6.517-4.16-10.036-5.796-3.571-1.66-7.34-2.867-10.97-4.387-3.274-1.371-5.695 3.617-2.393 5 3.628 1.52 7.407 2.715 10.971 4.387 3.512 1.649 6.618 3.975 10.036 5.796 3.145 1.677 5.54-3.323 2.392-5zM624.621 346.543c-4.164.377-7.43 2.114-11.093 4.251-3.848 2.245-1.385 7.084 2.503 4.815 2.424-1.414 4.774-3.044 7.56-3.296 4.272-.386 5.319-6.158 1.03-5.77z" class="color333 svgShape"></path><path fill="#1a1a1a" d="M561.907 366.827a10.497 10.497 0 0 0-2.397-1.002c-3.555-.976-7.545-.625-10.521.451-1.197.433-1.936.87-1.202 2.185.55.985 1.901 1.899 3.106 2.095 4.383.711 8.399 2.173 12.59 3.808 1.087.424 2.609.501 3.464-.044.958-.611.588-1.514.085-2.536-.968-1.967-3.017-3.763-5.125-4.957zM622.313 365.378l-.159-.026c-3.475-.557-7.849 4.015-9.298 6.367-.258.419-.467.866-.445 1.278.099 1.846 3.253.944 4.773.379 3.092-1.15 10.215-1.558 10.243-5.384.013-1.616-3.325-2.319-5.114-2.614z" class="color1a1a1a svgShape"></path><path fill="#ffffff" d="M599.003 414.919c-4.404-1.535-14.827-4.014-19.477-3.434-4.158.518 3.07 16.06 7.327 16.487 4.225.423 9.693-4.079 12.823-7.327 2.825-2.933 3.243-4.361-.673-5.726z" class="colorfff svgShape"></path><path fill="#333333" d="M670.559 820.601c4.189-2.243 188.27 15.441 283.232 27.978 84.294 11.129 211.553 313.025 239.081 380.715a17.7 17.7 0 0 1-6.577 21.405c-26.848 17.911-92.749 61.206-133.027 81.938 0 0-136.523-222.563-179.783-301.303-27.774-50.552-166.36-118.124-218.501-163.099-29.075-25.078 15.575-47.634 15.575-47.634z" class="color333 svgShape"></path><path fill="#1a1a1a" d="M1001.639 1113.668c-8.974-39.052-18.045-78.163-30.405-116.312-11.774-36.34-26.606-72.124-48.455-103.654a4.518 4.518 0 0 1-.4-.72c-1.91.18-3.823.335-5.737.465-14.821 1.005-29.701.683-44.513 1.866-15.608 1.247-30.624 5.082-45.698 9.138-27.307 7.348-54.227 16.059-80.871 25.521 54.099 34.184 111.172 70.869 127.925 101.362 43.26 78.74 179.783 301.303 179.783 301.303 3.706-1.908 7.631-4.136 11.713-6.612-11.045-30.206-21.753-60.535-31.458-91.2-12.633-39.913-22.514-80.383-31.884-121.157z" class="color1a1a1a svgShape"></path><path fill="#333333" d="M392.922 988.471s83.408 8.101 121.402-53.792 67.782-107.948 112.459-107.485c44.677.463 256.044 11.945 299.62 46.438 43.577 34.493-46.765 443.654-46.765 443.654s-7.122 11.392-32.583 18.874c-63.245 18.586-138.127 9.713-138.127 9.713s18.678-202.513 50.259-328.775l-366.265-28.627z" class="color333 svgShape"></path><path fill="#1a1a1a" d="M912.444 1152.988a3.317 3.317 0 0 1-3.272-3.886c37.945-217.834 25.793-264.461 15.173-272.868-19.633-15.539-78.247-28.54-169.504-37.598a3.316 3.316 0 0 1-2.974-3.628 3.298 3.298 0 0 1 3.629-2.974c64.522 6.405 146.904 18.369 172.967 38.998 4.48 3.547 18.116 14.342 11.169 104.182-3.479 44.983-11.528 103.87-23.922 175.026a3.32 3.32 0 0 1-3.266 2.748z" class="color1a1a1a svgShape"></path><path fill="#e8a56d" d="M825.149 775.417c-1.117-1.227-19.991-35.198-24.703-40.803-5.845-6.952-33.436-34.661-48.245-30.59-14.809 4.071-81.277 28.299-81.277 28.299l-126.974-3.701s-12.681-2.493-22.153 36.503-15.983 57.264-15.983 57.264 126.917-17.231 178.377-39.805c16.595-3.127 45.593-12.091 47.453-12.967 2.339-1.101 14.901-1.169 26.083 6.745 11.182 7.914 10.797-.464 10.592-.946-.206-.482-13.546-22.89-13.546-22.89s26.094 27.704 32.393 27.625c3.945-.049 5.133-2.079 4.465-6.262a51.803 51.803 0 0 1 2.598 1.768c6.705 4.975 14.178 4.197 12.293-.241-1.885-4.438-16.019-27.433-16.019-27.433s6.333 7.053 17.881 21.352c11.55 14.299 17.883 7.309 16.765 6.082z" class="colore8a56d svgShape"></path><path fill="#d8874a" d="M791.139 770.914c-5.508-8.298-10.997-16.572-16.71-24.734-2.257-3.224-4.479-6.512-7.139-9.424a30.368 30.368 0 0 0-3.946-3.65c-.842-.645-1.732-1.215-2.598-1.826-.302-.213-.584-.446-.898-.643a9.858 9.858 0 0 0-.754-.415c-.466-.872-1.301-1.324-2.347-1.119l-.215.042c-1.091.214-1.834 1.592-1.49 2.625.682 2.048 2.422 2.07 4.171 2.866 1.711.779 3.203 2.165 4.529 3.476 2.969 2.937 5.333 6.401 7.743 9.791 5.792 8.148 11.765 16.123 17.753 24.124.827 1.106 2.702.093 1.901-1.113zM791.885 747.53c-3.629-5.375-7.443-10.596-11.386-15.751-1.763-2.305-3.446-4.783-5.554-6.793-1.831-1.746-4.974-4.068-7.644-3.517-1.233.255-1.783 2.119-.778 2.946 1.003.825 2.258.997 3.396 1.596 1.18.62 2.192 1.427 3.126 2.373 1.981 2.006 3.668 4.319 5.452 6.498 3.856 4.708 7.806 9.304 11.922 13.78.708.768 2.064-.246 1.466-1.132z" class="colord8874a svgShape"></path><path fill="#32887d" d="M482.348 704.525c-.87 0-1.599-.677-1.654-1.557-6.013-97.035-37.875-163.332-38.196-163.99a1.657 1.657 0 0 1 .763-2.217 1.654 1.654 0 0 1 2.218.763c.324.664 32.471 67.507 38.527 165.241a1.658 1.658 0 0 1-1.554 1.758l-.104.002z" class="color338a80 svgShape"></path><path fill="#1a1a1a" d="M1155.996 1468.159s-6.457-7.354 17.048-24.366c23.504-17.012 63.503-24.763 81.623-45.097 18.12-20.334 78.936-86.925 103.316-72.126 14.24 8.644-6.141 29.967-38.187 54.969-49.2 38.382-150.364 98.28-163.8 86.62zM776.206 932.384c-4.549 16.422-9.395 32.772-13.749 49.247-4.18 15.818-7.903 31.636-8.122 48.062-.039 2.877 4.086 2.74 4.38 0 1.715-15.954 6.302-31.591 10.94-46.897 4.867-16.061 9.477-32.2 14.273-48.283 1.476-4.945-6.345-7.099-7.722-2.129z" class="color1a1a1a svgShape"></path><path fill="#6c4e4e" d="M600.637 808.844h490.883v31.249H600.637z" class="color6c4e4e svgShape"></path><path fill="#6c4e4e" d="M588.753 808.311h26.889v671.157h-26.889z" class="color6c4e4e svgShape"></path><path fill="#4a3333" d="M888.842 808.311h26.888v671.157h-26.888zM1281.083 808.311h26.888v671.157h-26.888z" class="color4a3333 svgShape"></path><path fill="#6c4e4e" d="M528.263 790.22h490.883v18.625H528.263z" class="color6c4e4e svgShape"></path><path fill="#4a3333" d="M885.341 790.22h490.883v18.625H885.341z" class="color4a3333 svgShape"></path><path fill="#4a3333" d="M872.517 808.844h435.455v31.249H872.517z" class="color4a3333 svgShape"></path><path fill="#4a3333" d="M884.356 810.504H601.213a1.658 1.658 0 1 1 0-3.318h283.143a1.658 1.658 0 1 1 0 3.318z" class="color4a3333 svgShape"></path><path fill="#6c4e4e" d="M548.451 857.531s3.173 180.869-6.346 188.802c-9.52 7.933-127.615 19.039-137.134-1.587-3.877-8.4-12.693-182.456-12.693-182.456l19.039 1.587s4.76 161.831 14.279 165.004c9.519 3.173 92.71 6.346 99.056-1.587 6.346-7.933 3.173-169.763 3.173-169.763h20.626z" class="color6c4e4e svgShape"></path><path fill="#e9c46a" d="M376.412 828.973s181.558-17.452 189.491-6.346c7.933 11.106 4.76 31.731 0 34.905-4.76 3.173-183.145 15.866-191.077 7.933-7.934-7.934-3.174-36.492 1.586-36.492z" class="colorefb44b svgShape"></path><path fill="#d89b39" d="M408.667 870.365c-11.237 0-20.29-.236-26.07-.772a2.38 2.38 0 0 1-2.15-2.589c.122-1.308 1.282-2.29 2.589-2.149 42.453 3.928 173.87-6.879 181.769-9.436a2.38 2.38 0 0 1 2.418 4.092c-5.09 3.394-95.284 10.854-158.556 10.854zm155.919-14.816-.004.003.004-.003z" class="colord89b39 svgShape"></path><path fill="#023047" d="M1177.459 790.22s-8.063-50.091-8.063-101.453c0-5.202 67.211-4.818 67.211 0 0 0-.161 75.025-6.74 101.453h-52.408z" class="color6265ab svgShape"></path><path fill="#023047" d="M1234.988 774.716h-17.238c-9.04 0-16.394-7.354-16.394-16.395v-35.667c0-9.039 7.354-16.393 16.394-16.393h23.776c9.04 0 16.394 7.354 16.394 16.393 0 .201-.018.4-.054.598l-6.487 35.387c-.17 8.895-7.458 16.077-16.391 16.077zm-17.238-61.82c-5.381 0-9.759 4.377-9.759 9.758v35.667c0 5.381 4.378 9.76 9.759 9.76h17.238c5.381 0 9.759-4.378 9.759-9.76 0-.201.018-.4.054-.598l6.479-35.35c-.148-5.252-4.468-9.478-9.755-9.478h-23.775z" class="color6265ab svgShape"></path><path fill="#ffffff" d="M1213.433 700.744c.185 26.685.613 53.415.36 80.092-.034 3.592 5.345 3.542 5.547 0 1.521-26.694.993-52.968.994-79.722 0-5.567-6.939-5.947-6.901-.37z" class="colorfff svgShape"></path></svg></g></svg>