<svg xmlns="http://www.w3.org/2000/svg" xmlns:xlink="http://www.w3.org/1999/xlink" xmlns:svgjs="http://svgjs.com/svgjs" id="SvgjsSvg1194" width="360" height="360"><defs id="SvgjsDefs1195"></defs><g id="SvgjsG1196"><svg xmlns="http://www.w3.org/2000/svg" viewBox="0 0 275 275" width="360" height="360"><path fill="#40916c" d="M175.7912,161.23489c-0.37456,0.0833-0.75926,0.13535-1.16505,0.14577l-1.8409,0.04152    c-3.36182,0.08209,15.0739-0.36813-50.68488,1.23779c-20.66528,53.85056-13.88052,36.17053-15.2793,39.81554    c-10.33875,0.82173-19.2109-1.17534-29.10241-4.11882c-0.1144-0.03123-0.38483-0.50964-0.48882-0.54088    c0.10399-0.27045-0.4473,0.75926-0.33285,0.46812c13.13274-34.8313,15.15769-40.22661,19.69979-52.29704    c0.46381-0.57384,0.29153-3.10918,6.67752-8.21693c1.22139-0.91615,1.99667-1.38626,1.97619-1.37289    c4.83752-2.86867,9.43996-2.53767,9.83951-2.63153c53.06675-1.35403,34.76395-0.88702,38.72341-0.98805    c2.33539-0.05527-7.93622,0.18782,20.21991-0.47853c-0.05757,4.899-0.21732,18.36241-0.27031,25.22279    C173.75261,158.87381,174.49104,160.15326,175.7912,161.23489z" class="color00c0ad svgShape"></path><path fill="#40916c" d="M173.01404 170.66882c-.10399.21838-.19769.44717-.27043.68639l.04164-9.93303.02069-5.67912c0-.73843.35373-1.49771.98819-2.23615-.01041 1.3418-.02083 2.68346-.03111 4.01483-.01041 1.35207.72803 2.63152 2.02818 3.71315.95682.81133 2.22572 1.51866 3.71315 2.05942C176.94571 165.43701 174.49104 167.56929 173.01404 170.66882zM227.2769 223.66264c-6.584 8.24818-13.54231 15.13374-21.54074 20.50064-6.64688-5.01578-14.7321-11.33629-20.73997-17.05779-10.49323-10.03659-12.3774-15.61583-12.3774-24.91072l.1144-29.19611c1.17593 2.35184 6.36691-.0797 8.34175-3.68205-.46329 13.14287-1.35648 14.69722-.8009 15.92422.43689.96724 1.75786 1.31056 2.7355.90489.97765-.41606 1.61223-1.40413 1.87225-2.43384.24962-1.00888.04164-2.72522.49924-3.61957.15591 2.32985.16632 4.97165 1.41454 7.02077.39525.65515.95695 1.28973 1.6954 1.45607 1.16492.26003 2.30902-.73845 2.64194-1.89296.33278-1.1441.06233-2.36108-.20798-3.526.18715.73843.3743 1.4977.82161 2.11147.4473.61363 1.22739 1.05052 1.96582.86325 1.9247-.46399 2.24368-4.70433 1.99695-6.6776.18727.62418.38496 1.2585.78009 1.76828.90994 1.17294 2.38837 1.04523 2.98524-.44731.62392-1.51852-.05205-3.21391-.32249-4.82602-.30167-1.77869-.0937-3.59889-.07288-5.39827.03123-2.7355-.3743-5.4606-.80092-8.16489 2.24683-1.19615 3.65082-2.75632 3.66124-4.49336 0-1.12328 0-2.24655-.01042-3.38037.43004.97406.15434-1.75282.19769 47.98053.32329.3533.70667 1.01167 3.18269 3.38037C211.29982 211.57982 224.65793 221.75401 227.2769 223.66264z" class="color00c0ad svgShape"></path><path fill="#eb7547" d="M174.1992,80.13181c0.27631,23.98857-0.12544,46.28842-0.3432,67.86753     c-3.71475,0.007-20.37097-0.01514-20.58392-3.70287c-0.10399-1.97612,0.10411-6.18863,0.54088-11.51414     c0.75926-9.08019,2.21545-21.3743,3.99402-31.30733c0.05205-0.33291,0.1144-0.66582,0.17686-0.98819     c1.02969-5.60623,2.16339-10.36992,3.3179-13.24065c2.61055-6.44766,6.72612-11.08768,10.48445-13.4071     c0.91518-0.59293,1.89294-1.11299,2.90196-1.53935c0.39511-0.16645,0.80078-0.32249,1.20644-0.45759     c1.4317-0.50156,3.57112-1.00083,5.23181-0.89461c0.468,0.03123,0.84256,0.18727,1.19603,0.40565     C177.48601,73.09022,174.22002,77.33384,174.1992,80.13181z" class="colorffc100 svgShape"></path><path fill="#ffffff" d="M172.74361,171.35521l-0.01042,1.64346C172.49399,172.48901,172.55632,171.90649,172.74361,171.35521z" class="colorfff svgShape"></path><path fill="#eb7547" d="M202.28232,92.11397c0.01041,0.84243-0.53047,1.59128-1.33125,1.83061      c-9.45474,2.88101-20.00153,4.61805-29.47696,1.68485c0.07288,0.12494-0.6657-0.34319-0.71762-0.30154      c-0.18452-7.18954-0.32205-15.13316,4.21239-21c6.51241-8.38621,19.7867-7.77254,26.02371,2.55865      c0.28085,0.47854,0.5513,0.96736,1.07135,2.55877C202.22963,79.94306,202.12436,79.47874,202.28232,92.11397z" class="colorffc100 svgShape"></path><path fill="#40916c" d="M79.02863 63.00114l-6.06383.07275v28.04147h-8.08171V63.19871c-.10268.00124-6.43933.07766-6.04307.07288l9.84986-11.69102C82.85815 67.23138 77.97147 61.83337 79.02863 63.00114zM100.92306 50.4677l-6.06383.07275v40.57492h-8.08172V50.65485c-.10268.00142-6.4289.08876-6.03266.08329l9.83945-11.69089C104.75257 54.69789 99.8659 49.29994 100.92306 50.4677zM57.13422 78.65481l-6.0743.07275v12.38781h-8.07124V78.85249c-.10268.00124-6.43932.07752-6.04307.07275l9.84986-11.69089C60.96374 82.88499 56.07706 77.48705 57.13422 78.65481z" class="color006bff svgShape"></path><path fill="#eb7547" d="M31.75538,91.09467v12.69977h74.3579V91.09467H31.75538z M51.90247,100.49723    c-1.67463,0-3.05794-1.38331-3.05794-3.05801c0-1.66403,1.38331-3.05788,3.05794-3.05788    c1.71615,0,3.05788,1.39384,3.05788,3.05788C54.96035,99.11392,53.61862,100.49723,51.90247,100.49723z" class="colorfe9e93 svgShape"></path><g fill="#000000" class="color000 svgShape"><path d="M175.29962 42.82402l-2.17062.31691c-.66843.09787-.54759 1.11371.15033 1.02996l2.17062-.31691c.28441-.04165.48045-.30574.43982-.59015C175.84711 42.97842 175.57895 42.78847 175.29962 42.82402zM168.71968 43.78288l-2.33112.34027c-.66911.09798-.54689 1.11362.15033 1.02996l2.33112-.34027c.28441-.04165.48044-.30574.4398-.59014C169.26717 43.93829 168.99799 43.74936 168.71968 43.78288z" fill="#000000" class="color000 svgShape"></path><path d="M164.03192,45.38445c-0.21352,1.62377-0.20529,2.8266-0.02553,4.2854c-0.61517,0.7933-1.26607,1.62528-1.95706,2.50912   c-0.4671,0.59685-0.14597,1.47788,0.59724,1.63128l2.64676,0.56145c2.14778,4.96835,6.51849,8.48293,11.57002,9.70944   l-2.1752,8.21858c0.39511-0.16645,0.80078-0.32249,1.20644-0.45759l1.01523-3.85015   c2.17229-1.07846,4.27994-2.2849,6.30875-3.61374c0.05942-0.00838,0.11859-0.01575,0.17789-0.02489   c0.14835,1.34115,0.16014,1.79598,0.37189,4.49311c0.34319-0.07275,0.68639-0.13509,1.02971-0.18715   c-0.13538-1.589-0.17593-2.74341-0.36871-4.49235c4.63747-1.00609,8.43443-3.75684,10.72466-7.56826   c1.62059,1.53115,4.28767,1.64055,5.91008-0.19934c0.80142-0.90875,1.59064-2.6407,1.39168-3.94157   c-0.03441-0.22511-0.3376-1.31081-0.68269-1.65464c-0.056-0.05574-0.02718-0.14068,0.05002-0.1582   c3.27246-0.74124,5.58923-4.46011,4.73639-7.72393c-0.82516-3.15818-4.44702-5.23613-7.59518-4.50277   c-0.10081,0.02349-0.15985-0.10792-0.07744-0.17077c2.40179-1.82926,3.49339-5.69955,1.10817-10.32066   c-1.50356-2.91352-4.09241-5.40842-7.29073-6.1301c-3.02638-0.68283-6.54121,0.55015-8.08018,3.2044   c-0.05244,0.09053-0.1902,0.05764-0.18474-0.04698c0.11745-2.27652-1.60487-4.41008-3.64536-5.53057   c-7.67265-4.21313-16.95297,2.5986-15.03291,11.28675c0.01802,0.08177-0.06146,0.14042-0.13536,0.10094   c-2.48195-1.32833-5.85204-0.52958-7.65294,1.64994C154.29707,36.9095,157.17111,44.16167,164.03192,45.38445z    M183.76579,63.25254c-7.358,1.38344-14.77898-2.61959-17.62914-9.53371c-0.05167-0.1281-0.2206-0.27884-0.37277-0.31082   c-1.50537-0.32056-2.25974-0.4882-2.89587-0.58811c0.73836-0.94354,1.39963-1.78735,2.08836-2.67748   c0.00024-0.00026,0.00024-0.00064,0.0005-0.00089c0.08524-0.11094,0.12125-0.24907,0.10309-0.3856c0-0.00025,0-0.00025,0-0.00051   c-0.24603-1.82768-0.19847-3.60482,0.24074-5.59138c4.68686-5.07691,10.80554-8.82257,17.47475-10.63122   c0.5513-0.14944,1.129,0.11935,1.3922,0.62646c2.67114,5.14573,6.36423,10.7879,11.57979,13.02912   c0.23795,0.10234,0.52045-0.05536,0.54977-0.31272c0.44829-3.94487,5.11546-4.13455,6.10535-1.48082   c1.23788,3.35996-3.37448,6.15495-5.18941,4.4276c-0.10023,0.01477-0.76683-0.4615-0.87354,0.30675   C195.42444,56.83206,190.48897,61.98287,183.76579,63.25254z" fill="#000000" class="color000 svgShape"></path><path d="M178.61195 52.22061c-.22855-.16861-.55562-.12087-.72728.11173-.16962.23159-.11986.55663.11174.72727.85272.62484.15909 1.99563-.85628 1.66378-.27322-.09344-.56677.0579-.65616.33113-.09041.27222.05789.56678.33113.65617C178.98824 56.42748 180.38654 53.52511 178.61195 52.22061zM102.03954 134.3938l22.53922-59.83813c.24266-.64062-.73132-1.01524-.97308-.36567l-22.53922 59.83813c-.10158.26814.03453.56779.3037.66937C101.62495 134.79683 101.93541 134.67238 102.03954 134.3938zM168.13055 215.15205h-58.53799c-.28745 0-.52006.2326-.52006.52007 0 .28745.2326.52005.52006.52005h58.53799c.28745 0 .52005-.2326.52005-.52005C168.6506 215.38466 168.418 215.15205 168.13055 215.15205z" fill="#000000" class="color000 svgShape"></path><path d="M117.16286 33.99218c.8316.66907 1.76144 1.91611 3.12949 2.73272.30504 1.25228 1.74757 4.28019 3.19081 5.68191-2.01783 1.16492-3.45313 2.57947-3.03712 4.16047.11541.42094-.43906-2.53278 4.52454 25.47242.01505.10633 2.17028 15.3441 2.15298 15.2273 1.46785 8.10857 7.07401 12.9962 13.91675 14.02074 2.42943.34383 3.01027.15985 16.76666.18728.05205-.33291.1144-.66582.17686-.98819-12.51227-.22468-15.96616.7892-20.82314-1.32096-3.1787-1.35107-5.95093-3.98279-7.5096-7.19765-1.78448-3.74028-1.4109-4.49454-3.71329-20.07415-.01756-.10046-4.50822-25.48608-4.53489-25.58681-.26003-.96737.86331-2.13229 3.01636-3.29721h.01041l.42635-.22879v-.00013c7.25745-3.64964 20.52535-5.48902 21.1144-3.51547 1.46132 5.47551 6.20232 34.97655 6.23027 35.14554.03123.23921.23921.42636.47842.42636l17.70277-.02083c.44731-.34319.91544-.67597 1.40427-.97765l-18.68044.01041c-.01682-.10355-5.18715-32.02654-6.19917-34.86469-.38484-1.27932-2.64182-1.62264-5.51254-1.45606 1.93448-3.28693 1.63293-7.41615.54088-10.52609-.02081-.08316-.04164-.15592-.07288-.2288-.47337-1.22129-1.24533-2.17678-3.26915-2.87581.75851-3.58252 1.03723-9.48191-.29964-12.76503-.59743-1.4477-2.28979-2.00499-3.6973-1.37632-3.60294 1.57481-2.1423 6.48964-2.25189 9.08781-.07433 1.30583-.22433 2.76595-1.356 2.13305-.81564-.45607-1.30014-1.44235-1.76941-2.39511-1.05884-2.1621-2.40887-4.48063-2.46317-4.58098-.90096-1.50837-2.582-4.32196-4.97305-3.78667-1.83849.39207-2.09343 2.70186-1.8202 4.07006.8055 3.89202 1.07446 4.2653 3.37167 8.61726-.18651-.15515-.40331-.31031-.63084-.43435-2.049-1.13369-4.10841 1.07135-4.69086 1.77868-.81132.97765-1.07135 2.02817-.74892 2.88114 0-.01041.01041 0 .01041 0 .00031.00102.00114.00178.00146.00279-1.44338.20513-3.17689 1.74204-3.08943 3.39917C114.27528 32.20738 115.88068 32.95716 117.16286 33.99218zM120.98102 14.07763c-.15744-.79024-.11986-2.60232 1.02184-2.8461 1.7001-.36624 3.09089 2.02334 3.9695 3.485 2.40895 4.00019 2.77043 6.19536 4.50684 7.16806 1.11993.6295 2.39206.27221 2.72522-1.47688.2706-1.34991.19273-2.32866.08736-3.68814-.18488-2.38394-.39513-5.08478 1.72371-6.01114.88657-.39576 1.94762-.07203 2.31587.81868 1.24857 3.07079.94531 8.7898.25978 12.0789-2.17308-.59717-6.68285-1.39096-8.21808.24302-.85831.91315-.75267 2.30674.27527 3.63736 1.30652 1.69488 2.94548 2.12918 7.19446 4.15234.93365.42642.97549.50381 1.17827.50381.5535 0 .72173-.75436.22244-.99035-5.3822-2.5591-6.67963-2.88525-7.77243-4.30165-1.1277-1.46296-.82249-2.70761 1.28491-2.88368 1.5674-.13069 3.6842.05229 6.09265.78212.0099.00279.01701.0099.02716.01219.00407.00102.00787-.00051.01207.00038 2.9781.92202 2.89743 2.32796 3.03642 2.49592.0005.00165.00127.00368.00165.00521 1.10246 3.09952 1.3833 7.2704-.82161 10.36992-4.69206.45939-11.37177 2.10313-15.65379 4.25416-1.03897-.82084-2.31639-3.13558-2.89974-4.62326 2.11559.56871 4.29103-.45313 3.69125-2.50951-.05586-.19375-.14753-.40058-.23489-.60538.00533.00305.01028.00698.01549.01003 2.84593 1.66861 6.85636.63722 5.99108-2.39219-.61559-2.12898-3.41094-4.68132-5.25314-6.57373-.26764-.53953.21982.53687-2.56525-4.79416C122.20838 18.50774 121.76619 17.86938 120.98102 14.07763zM118.82346 24.90158c.26003-.32237 1.47694-1.70568 2.6731-1.70568.78904 0 1.30455.59314 2.10099 1.3729 1.54748 1.45453 2.45988 2.33299 4.41009 4.45172.84338.95933 2.72316 3.11164 1.88266 4.18116-.76387.96193-3.24821 1.17907-5.31497-.64474-.93613-.84255-1.91384-1.74745-2.98512-2.77715-1.07012-1.01787-2.44013-1.68988-3.2244-2.78757C117.83534 26.24337 118.50103 25.28655 118.82346 24.90158zM118.06782 28.24285c.00254.00229.00426.00546.00679.00787.90184.92248 1.96314 1.47627 2.79792 2.28833.45071.43374 1.31947 1.24493 1.59661 1.50266.02139.05637.04926.11148.09135.15973.61196.69661 2.18525 2.92025 1.60588 3.64447-.41849.52717-1.35601.61554-2.10156.47739-1.44276-.27336-2.53048-1.51987-3.26662-2.21735-.73587-.74805-.8995-.88288-1.80496-1.5429-.78534-.56997-1.7199-1.17737-1.7684-2.08836C115.20147 30.02776 117.05725 27.75753 118.06782 28.24285zM93.21583 193.47316c.67325 0-.70801 2.13611 18.52445-43.22725.64487-1.52895 2.13223-2.54823 3.79645-2.57947l41.4174-.97765c-1.08176-.27045-1.96584-.59294-2.6003-.98807l-38.83793.9256c-2.06982.04164-3.93167 1.31056-4.73251 3.21405l-18.04604 42.91518C92.59202 193.08589 92.83501 193.47316 93.21583 193.47316zM243.06534 238.18771c-2.76688-2.88113-11.02533-11.17082-15.99712-14.92563-.15591-.10399-.45758-.2081-.73843.06235-.4465.22359-2.36734 3.83682-7.57208 9.28816.06438-.48206 1.43658 1.08395-26.85571-23.69374-1.64334-1.3833-2.57947-3.4012-2.55878-5.54376l.0937-14.03636c1.40616-.24142 2.14684-1.64897 2.29074-3.05495.40718.37469.88043.58913 1.50786.58913 1.38545 0 2.716-1.12518 2.90604-3.15489.06689-.72295-.0578-1.41077-.16049-2.18179 1.02556 1.30179 2.46095 1.4043 3.28387.76585.81256-.62503.87689-1.74519.80447-2.77296-.30237-4.37505-1.23241-17.79805-1.17419-16.93564 2.19348-1.26764 3.52321-2.90642 3.53273-4.70262 0-15.59062-.33574-39.35432-.28085-64.34165.35829-.08957.5128-.44758.38484-.73844-.1129-.24195-.41101-.37023-.68651-.26003-9.75719 4.44001-20.85989 4.84312-30.95386 1.9139-.53966-.14543-.88918.55273-.47359.89791 1.63622 7.9248 2.85017 14.34422 3.24542 24.4888.11447-6.48109-.24339 23.33418-.38992 37.66496-.01915 2.69753 2.4384 4.60829 4.88214 5.75186-4.16678 2.73743-6.32982 7.16245-6.32982 8.89888-.02782 1.28128.80077 2.43472 2.2529 2.43472 2.05666 0 4.83556-2.23466 6.25847-3.71964-.43034 5.20534-.448 9.72165-.50735 12.60632-.02133 1.23514-.04469 2.63483 1.68816 3.29709.95604.36627 2.04131.15576 2.70795-.50787.7648-.75928.89813-1.97055 1.07999-3.18396.36391 2.7177.45975 5.77675 3.1013 6.22737-.06441 8.68871-.03969 5.35378-.10411 14.04358-.02069 2.45467 1.05052 4.77409 2.92279 6.34468 26.4942 22.88965 26.6718 23.57779 27.08464 23.37137-3.68456 3.81589-8.19328 7.52994-12.33232 10.26009-.66333-1.11099-2.17786-1.50938-3.25468-.88268-.88618.51506-1.27443 1.80408-3.77448.31285l-.16252-.0975c-2.40739-1.44345-3.25784-1.30754-4.9507-.29457-.60335.35855-1.11833.67039-1.6394.55663-.67587-.14534-.89153.87007-.22144 1.01573.91823.20316 1.70135-.26714 2.39409-.67952 1.29788-.77574 1.75693-.98158 3.88216.29456.37607.15376 2.22836 1.54384 3.8598.64297.50145-.2762.7617-.63373 1.13559-.8522.46352-.26706 1.1528-.18005 1.60893.2265-1.00833.58521-.7057 1.95259-.76282 2.38495-.03047.21941-.16353.37888-.22244.37888-.00102 0-.00102 0-.00102 0-.17952 0-.64799-.4321-1.22092-.29152-.57491.13814-.78009.67851-.94159 1.10208-.38597 1.00557-1.40781 1.72878-2.4845 1.75925-.28644.00813-.51294.24785-.50482.53529.00813.28137.23972.50482.52007.50482.00508 0 .01016 0 .01523 0 1.48399-.04265 2.89282-1.04012 3.45148-2.49464.04774-.12494.1351-.35652.1808-.3941.12383 0 .52388.31737.98019.31894.00203 0 .00406 0 .00609 0 .70695 0 1.16505-.64195 1.25139-1.27983.05562-.41423-.02037-.89098.03252-1.1945.05586-.32822.13991-.44032.51193-.52971 1.61705 2.52826 2.4167 3.87079 4.56168 6.32729-.6761.02081-1.60182.14551-2.90196.41594-6.99185 1.47226-9.73685 8.19749-4.12923 12.1382 3.38066 2.33386 9.33148 3.13171 14.48872.96735 6.64923-2.80856 10.99863-9.34435 15.87218-14.10402.36414-.35359 2.86032-3.13075 5.13824-5.74146C243.60622 238.74942 243.47087 238.60379 243.06534 238.18771zM174.25113 157.52672c.36052-35.23639.54088-43.5295.54088-61.05473 8.79054 1.75201 17.84953 1.02714 26.36703-2.49631-.06601 29.69302.29126 43.61547.29126 63.90476-.03731 5.87088-18.01724 9.13448-25.34773 2.97472C174.88571 159.84615 174.24084 158.69177 174.25113 157.52672zM187.1604 187.17152c-.26918-.54544-.3799-1.16708-.48654-1.86488-1.4131-9.18956-.68488-10.79251-.92293-11.65636.008-.54317.02095-1.0965.0433-1.67317.02711-.69786-1.01164-.70985-1.04012-.04063-.10881 2.82074.11032 12.24014-1.26155 13.60378-.37988.37685-1.03706.4906-1.60284.27425-1.0076-.38496-1.04214-1.02081-1.01979-2.30775.11078-8.35083.32419-10.44896.62239-13.95496.03035-.0381.06348-.06958.0937-.10793.16759-.2133.13103-.52209-.08228-.68968-.21127-.1676-.52209-.13205-.68968.08226-.15649.19881-.2178.19522-.29178.33621-1.47054 1.78174-3.11667 3.14929-4.93724 4.04671l.23361.43269-.36261-.37378c-.77184.34303-1.85246.60286-2.33925-.08736-.56282-.70282-.24881-1.74838.10056-2.57083 1.20593-2.85092 3.34546-5.28185 6.03235-6.87883 5.7549 2.19331 13.73528 1.7247 18.69478-.64804.0072.10013 1.19461 16.74731 1.15387 17.30537-.03047.56374-.16759.92026-.43474 1.12544-.42152.32706-1.08379.16048-1.49719-.16455-.48854-.3833-.79254-.97545-1.06042-1.4901-.07452-.11697-.0956-.29918-.33177-.40604-.24603-2.7832-.4772-5.96849-.9572-8.48674-.13274-.68083-1.15005-.47754-1.02184.19502.65791 3.45241.8614 8.4496 1.20467 10.88362.0782.54749.15236 1.06349.10564 1.56627-.07008.75775-.35449 1.3936-.8004 1.79279-.46826.41849-1.15388.53935-1.63026.28644-1.73634-.92567-1.96461-9.05812-2.517-13.17514-.03758-.28542-.30472-.49263-.58405-.44591-.28441.03758-.48451.29965-.44591.58405.53929 4.03896.47208 7.17564 1.44806 11.19826-.01511.07898-.0179.16074.00647.24301.16252.54749.20924 1.87811.03658 2.54138-.29051 1.11592-.77983 1.54126-1.30219 1.65718-.64377-.02588-.65747.02829-.97917-.05435C187.87447 188.13141 187.43465 187.72815 187.1604 187.17152zM232.83051 249.38979c-4.8891 4.77615-9.17982 11.20497-15.53926 13.87511-3.33873 1.40411-7.22876 1.58099-10.6716.48895-8.11131-2.62708-6.36514-10.07541.9256-11.60785 1.46672-.31197 2.42354-.40555 2.99565-.40555.40555 0 .62405.04166.69681.09358.46294.51204 1.23032-.20105.75926-.69693-.42625-.46039-.64952-.73094-.73743-.83252 1.85168-.43105 3.43599-1.75278 4.16579-3.51433.10971-.26511-.01625-.56982-.28136-.67952-.26511-.11174-.5688.01726-.67952.28136-.61859 1.49313-2.04367 2.65108-3.63228 2.95071-.1116.02083-.20125.0824-.27388.15897-.4959-.63956-.50949-.48184-2.27791-2.9982.0137-.00546.02844-.00305.0419-.0099 2.15031-1.07161 4.06091-2.64499 5.52663-4.55153.1747-.22752.13205-.5546-.09549-.72929-.22752-.17268-.55357-.13307-.72929.09547-2.37859 3.0927-5.06302 4.12462-5.29581 4.35663-.07716-.12012-.94821-1.46913-1.01509-1.56944.19708-.11806.27271-.18069.37442-.24962 7.97774-5.4502 14.42639-11.82597 19.69972-19.48134 4.82628 3.72369 12.40863 11.30617 15.28978 14.29117C240.99551 240.32001 233.621 248.6097 232.83051 249.38979z" fill="#000000" class="color000 svgShape"></path><path d="M227.42195 231.56219c-1.22688 1.35919-.3 3.61958 1.61223 3.61958.10013-.02292.91818.06081 1.62251-.71776.38484-.42635.5824-.98805.55118-1.57057C231.10323 230.96953 228.70721 230.12677 227.42195 231.56219zM228.2748 233.85052c-.459-.4155-.49097-1.14064-.08316-1.59142.69856-.76215 1.94263-.27344 1.97612.69679C230.23552 233.93776 229.03372 234.53305 228.2748 233.85052zM106.99736 202.44937c-.56551-.31439-13.86795.97615-29.75763-5.24591.57719-1.26695-.0397-2.80305-1.20815-3.33112-.42802-.19244-1.08418-.28822-1.40781-.44286-1.18401-.56981-1.18656-2.72301-1.21076-2.83696-.23917-2.96576-.87686-3.58842-2.76687-4.41743-.68461-.29965-1.27576-.55865-1.50024-1.0838-.11275-.26408-.42052-.388-.68258-.27425-.26409.11275-.38699.41849-.27425.68257.38598.90401 1.2646 1.28897 2.0396 1.62823 1.49859.65526 1.93786.94029 2.14727 3.54797.09776.41614.03796 2.84447 1.79785 3.69119.89523.4297 1.83632.18391 2.18384 1.38445.06399.22346.08025.45099.04977.66328-1.1077-.52861-2.03581.52748-2.5302.78923-.21838.11375-.45302.09953-.50076.03453-.17847-.25566.09079-1.89842-1.99389-1.35399-1.11122.28644-2.37581-.15236-3.07058-1.06956-.17268-.22955-.50177-.27324-.72828-.10056-.22855.17267-.27425.49974-.10056.72829.93956 1.24326 2.65108 1.83949 4.23258 1.43016.13408-.03555.41442-.10971.48349-.07822.12454.1503-.00276 1.5358 1.3428 1.5358 1.32681 0 1.798-1.5547 2.67679-.78656-.96541 2.49748-1.75933 4.10306-2.66117 7.89063-.42641-.56171-1.10252-1.31056-2.17381-2.28821-6.76393-6.14946-15.35848-2.09172-12.28376 7.44714 1.23774 3.87961 3.94202 7.33286 7.40562 9.46515 6.46426 3.9812 14.76146 3.74309 21.86325 5.00288 1.21365.21413 12.1209 1.38332 14.70718 1.38332 1.27938 0 1.32096-.19756 1.37296-.50964.78009-4.13965 2.84991-16.34018 3.02677-22.92419C107.47583 202.82379 107.38219 202.52213 106.99736 202.44937zM103.49217 225.41507c-2.04906.12482-13.77112-1.16492-14.93604-1.3833-7.32667-1.27234-15.35095-1.05193-21.49923-4.85739-3.25557-2.00735-5.8038-5.25262-6.96873-8.89304-2.76412-8.5974 4.7309-11.70444 10.59878-6.36537 2.02818 1.86172 2.54823 2.79785 2.53789 3.01624-.06247.28085.12481.56169.40559.61375.27044.05193.55129-.11452.6137-.39537.09718-.49788.18764-.85582.27228-1.2039 1.49346 1.3343 3.64369 1.90947 5.58827 1.46037.66864-.15504.43979-1.16708-.23362-1.0137-1.67902.38597-3.55711-.13307-4.7953-1.32249-.09072-.0871-.2055-.12773-.3218-.13637.47905-1.89145.8065-2.73645 1.2065-3.86894.02127.01587.03676.03708.06094.05003 3.78207 2.00932 7.41456 1.97455 7.31433 1.95935.67749 0 .69382-1.01625.01828-1.04012-4.24871-.15259-6.65196-1.85936-7.03963-1.89575.17364-.45763.59847-1.47952.74841-1.8918.09364.04164.18727.07274.28085.10397 2.08769.56825 12.87743 5.33223 29.07124 5.0759C106.17569 209.8654 104.29308 221.1091 103.49217 225.41507z" fill="#000000" class="color000 svgShape"></path><path d="M102.57687,210.94716c0.13522-1.23781-0.75926-2.36108-1.997-2.50671c-2.07542-0.22299-3.24972,2.15303-2.02824,3.67151   C99.76957,213.6347,102.32782,213.01028,102.57687,210.94716z M101.27672,209.92787   c0.67085,0.8385,0.01037,2.10538-1.0921,1.98653c-0.69356-0.08958-1.09211-0.66771-1.09211-1.20645   C99.09251,209.53221,100.56497,209.02841,101.27672,209.92787z" fill="#000000" class="color000 svgShape"></path><polygon points="74.764 65.05 80.828 64.988 79.029 63.001 72.965 63.074 72.965 91.095 74.764 91.095" fill="#000000" class="color000 svgShape"></polygon><polygon points="107.902 93.071 106.113 93.071 106.113 103.794 33.555 103.794 33.555 105.771 107.902 105.771" fill="#000000" class="color000 svgShape"></polygon><polygon points="52.87 80.704 58.923 80.631 57.134 78.655 51.06 78.728 51.06 91.095 52.87 91.095" fill="#000000" class="color000 svgShape"></polygon><polygon points="42.989 78.852 40.44 78.884 38.735 80.901 42.989 80.86" fill="#000000" class="color000 svgShape"></polygon><polygon points="96.659 52.527 102.722 52.444 100.923 50.468 94.859 50.54 94.859 91.095 96.659 91.095" fill="#000000" class="color000 svgShape"></polygon><polygon points="86.778 50.655 84.25 50.686 82.544 52.714 86.778 52.662" fill="#000000" class="color000 svgShape"></polygon><polygon points="64.883 63.199 62.345 63.23 60.65 65.248 64.883 65.206" fill="#000000" class="color000 svgShape"></polygon><path d="M61.10226 97.43719c0 .28745.2326.52006.52006.52006h27.40359c.28745 0 .52006-.2326.52006-.52006s-.2326-.52006-.52006-.52006H61.62232C61.33487 96.91714 61.10226 97.14974 61.10226 97.43719zM90.98425 72.86853c.28745 0 .52006-.2326.52006-.52006V65.1408c0-.28746-.2326-.52006-.52006-.52006s-.52006.2326-.52006.52006v7.20767C90.4642 72.63593 90.6968 72.86853 90.98425 72.86853zM68.92953 80.92028c.28745 0 .52006-.2326.52006-.52006v-7.20666c0-.28745-.2326-.52006-.52006-.52006s-.52006.2326-.52006.52006v7.20666C68.40948 80.68768 68.64208 80.92028 68.92953 80.92028zM46.89819 89.11018c.28745 0 .52006-.2326.52006-.52006v-7.20767c0-.28746-.2326-.52006-.52006-.52006s-.52006.2326-.52006.52006v7.20767C46.37813 88.87757 46.61073 89.11018 46.89819 89.11018z" fill="#000000" class="color000 svgShape"></path></g></svg></g></svg>