<svg xmlns="http://www.w3.org/2000/svg" xmlns:xlink="http://www.w3.org/1999/xlink" xmlns:svgjs="http://svgjs.com/svgjs" id="SvgjsSvg2831" width="360" height="360"><defs id="SvgjsDefs2832"></defs><g id="SvgjsG2833"><svg xmlns="http://www.w3.org/2000/svg" viewBox="0 0 1000 1000" width="360" height="360"><path fill="#ecedda" d="M186.02,614.79h583.32c6.89,0,12.47-5.95,12.47-13.29V179.9H186.02V614.79z" class="colorecedda svgShape"></path><path fill="#f4a261" d="M769.34,126.7H63.66c-6.89,0-12.47,5.95-12.47,13.29v39.91h134.83h595.79v-39.91      C781.81,132.64,776.23,126.7,769.34,126.7z" class="color4083b2 svgShape"></path><path fill="#f7f6f1" d="M51.18,179.9V601.5c0,7.34,5.58,13.29,12.47,13.29h122.36V179.9H51.18z" class="colorf7f6f1 svgShape"></path><ellipse cx="118.6" cy="234.01" fill="#e9c46a" rx="18.4" ry="19.6" class="colorf3c256 svgShape"></ellipse><ellipse cx="118.6" cy="299.34" fill="#e9c46a" rx="18.4" ry="19.6" class="colorf3c256 svgShape"></ellipse><ellipse cx="118.6" cy="364.68" fill="#e9c46a" rx="18.4" ry="19.6" class="colorf3c256 svgShape"></ellipse><ellipse cx="118.6" cy="430.01" fill="#e9c46a" rx="18.4" ry="19.6" class="colorf3c256 svgShape"></ellipse><ellipse cx="118.6" cy="495.34" fill="#e9c46a" rx="18.4" ry="19.6" class="colorf3c256 svgShape"></ellipse><ellipse cx="118.6" cy="560.67" fill="#e9c46a" rx="18.4" ry="19.6" class="colorf3c256 svgShape"></ellipse><ellipse cx="78.94" cy="151.64" fill="#ffffff" rx="10.33" ry="11" class="colorfff svgShape"></ellipse><ellipse cx="105.69" cy="151.64" fill="#ffffff" rx="10.33" ry="11" class="colorfff svgShape"></ellipse><ellipse cx="133.02" cy="151.64" fill="#ffffff" rx="10.33" ry="11" class="colorfff svgShape"></ellipse><path fill="#e9c46a" d="M768.07 342.74v-11.52l-10.48 0c-.6-2.81-1.65-5.53-3.14-8.04l7.43-7.91-7.65-8.14-7.43 7.92c-2.35-1.57-4.89-2.68-7.52-3.31v-11.19h-10.82v11.19c-2.63.64-5.18 1.74-7.53 3.32l-7.42-7.91-7.65 8.15 7.42 7.9c-1.49 2.51-2.53 5.22-3.13 8.03h-10.48v11.52h10.47c.6 2.81 1.64 5.54 3.12 8.05l-7.4 7.88 7.65 8.14 7.39-7.87c2.36 1.59 4.92 2.7 7.57 3.34v11.13h10.82v-11.13c2.64-.64 5.2-1.75 7.56-3.34l7.39 7.87 7.65-8.15-7.4-7.88c1.48-2.51 2.52-5.24 3.12-8.05L768.07 342.74zM725.75 329.97c4.22-5.48 12.01-5.48 16.23 0 3.12 4.05 3.12 10.02 0 14.07-4.22 5.48-12.01 5.48-16.23 0C722.63 339.99 722.63 334.03 725.75 329.97zM729.32 280.52l5.36-14.93-13.58-5.54c.53-3.96.44-8.04-.32-12.08l13.3-6.33-6.12-14.59-13.32 6.34c-2.31-3.28-5.09-6.05-8.2-8.26l5.21-14.49-14.01-5.71-5.21 14.49c-3.7-.57-7.52-.48-11.3.32l-5.93-14.16-13.7 6.51 5.93 14.15c-3.09 2.46-5.71 5.43-7.79 8.75l-13.58-5.54-5.36 14.93 13.56 5.53c-.54 3.96-.46 8.04.29 12.08l-13.25 6.3 6.12 14.59 13.23-6.3c2.32 3.31 5.12 6.1 8.25 8.32l-5.18 14.42 14.01 5.71 5.18-14.42c3.72.57 7.56.48 11.35-.33l5.91 14.1 13.7-6.51-5.91-14.11c3.09-2.47 5.71-5.45 7.79-8.78L729.32 280.52zM680.44 241.63c8.01-4.87 18.11-.75 21.03 8.57 2.15 6.9-.62 14.63-6.55 18.23-8.01 4.87-18.11.75-21.03-8.57C671.74 252.96 674.52 245.23 680.44 241.63z" class="colorf3c256 svgShape"></path><rect width="155.97" height="95.61" x="204.27" y="198.73" fill="#f4a261" class="color4083b2 svgShape"></rect><path fill="#d6d6b9" d="M303.52 333.85h-88.11c-6.13 0-11.14-5.01-11.14-11.14v-.36c0-6.13 5.01-11.14 11.14-11.14h88.11c6.13 0 11.14 5.01 11.14 11.14v.36C314.67 328.84 309.65 333.85 303.52 333.85zM279.76 402.22h-65.7c-5.39 0-9.79-4.41-9.79-9.79v-3.06c0-5.39 4.41-9.79 9.79-9.79h65.7c5.39 0 9.79 4.41 9.79 9.79v3.06C289.56 397.81 285.15 402.22 279.76 402.22zM271.11 367.72h-55.7c-6.13 0-11.14-5.01-11.14-11.14v-.36c0-6.13 5.01-11.14 11.14-11.14h55.7c6.13 0 11.14 5.01 11.14 11.14v.36C282.25 362.7 277.23 367.72 271.11 367.72zM350.35 367.72h-50.13c-5.87 0-10.67-4.8-10.67-10.67v-1.31c0-5.87 4.8-10.67 10.67-10.67h50.13c5.87 0 10.67 4.8 10.67 10.67v1.31C361.01 362.92 356.21 367.72 350.35 367.72zM349.09 333.85h-15.92c-6.13 0-11.14-5.01-11.14-11.14v-.36c0-6.13 5.01-11.14 11.14-11.14h15.92c6.13 0 11.14 5.01 11.14 11.14v.36C360.23 328.84 355.22 333.85 349.09 333.85zM440.69 246.53h-41.75c-10.31 0-18.67-8.36-18.67-18.67v-.6c0-10.31 8.36-18.67 18.67-18.67h41.75c10.31 0 18.67 8.36 18.67 18.67v.6C459.36 238.17 451 246.53 440.69 246.53zM614.06 541.9h-41.75c-10.31 0-18.67-8.36-18.67-18.67v-.6c0-10.31 8.36-18.67 18.67-18.67h41.75c10.31 0 18.67 8.36 18.67 18.67v.6C632.73 533.55 624.37 541.9 614.06 541.9zM335.54 590.82h-41.75c-10.31 0-18.67-8.36-18.67-18.67v-.6c0-10.31 8.36-18.67 18.67-18.67h41.75c10.31 0 18.67 8.36 18.67 18.67v.6C354.21 582.46 345.85 590.82 335.54 590.82z" class="colord6d6b9 svgShape"></path><path fill="#1a1a1a" d="M527.16 587.29l-62.75 20.88c-9.24 0-12.98-2.13-21.92 0-23.44-11.56-22.81-48.96-13.53-65.26 18.02-31.66 36.83-77.17 46.61-101.91 5.18 5.64 12.93 9.97 20.84 12.38-2.37 21.32 2.29 38.75 9.67 52.54 4.81 8.98 11.08 16.88 18.42 23.49L527.16 587.29zM743.38 590.45c-13.55-4.24-22.76-3.77-22.76-3.77l-76.99-.15 20.14-69.44c5.05-5.49 10.8-12.31 15.25-19.43 0 0 16.38 7.27 31.49 4.41 2.07 12.13 7.82 36.35 20.3 56.33C737.51 569.14 743.71 591.44 743.38 590.45z" class="color1a1a1a svgShape"></path><g fill="#000000" class="color000 svgShape"><path fill="#1a1a1a" d="M716.7,455.03c-6.17-1.48-11.47-1.14-11.47-1.14s-71.22,6.44-108.02-62.43      c-4.34-8.12-8.22-17.28-11.42-27.63c0,0-27.05-2.6-52.26,15.92h-0.04c-0.62,0.47-1.23,0.93-1.85,1.42      c-3.74,2.92-7.42,6.31-10.96,10.29c-2.37,2.64-4.66,5.54-6.85,8.71c-2.74,3.96-5.32,8.36-7.7,13.2      c-4.07-1.97-12.65-5.4-20.85-4.32c6.78-21.42,19.87-56.95,38.9-82.97c29.06-39.75,54.34-10.72,54.34-10.72      s33.37-25.44,71.7-6.05c9.13,4.61,18.52,11.77,27.82,22.39c5.44,6.23,10.6,12.91,15.28,20.44      C707.49,374.94,717.18,405.58,716.7,455.03z" class="color1a1a1a svgShape"></path><path fill="#f7a695" d="M556.43,549.48c0,0,0.01-0.01,0.01-0.01c-12.17-3.88-23.39-10.71-32.68-20.07l2.17,49.6l0.05,1.25       c0,0,14.33,53.77,49.15,57.52c34.81,3.76,69.1-51.26,69.1-51.26l1.35-4.68C571.75,628.57,556.43,549.48,556.43,549.48z" class="colorf7a695 svgShape"></path><path fill="#f16b6b" d="M664.38,516.76c-27.51,32.34-63.28,37.57-88.3,36.31c-6.72-0.34-13.3-1.57-19.64-3.59       c0,0-0.01,0.01-0.01,0.01s15.32,79.09,89.17,32.36l0.82-2.83L664.38,516.76z" class="colorf16b6b svgShape"></path><path fill="#f7a695" d="M716.7,448.79c-6.17-1.38-11.47-1.07-11.47-1.07s-71.22,6.01-108.02-58.18       c-4.34-7.57-8.22-16.11-11.42-25.75c0,0-27.05-2.42-52.26,14.84h-0.04c-0.62,0.44-1.23,0.86-1.85,1.32       c-3.74,2.72-7.42,5.88-10.96,9.59c-2.37,2.46-4.66,5.16-6.85,8.12c-2.74,3.69-5.32,7.79-7.7,12.3       c-3.91,7.44-7.27,16.05-9.82,26.06c-1.55,6.06-2.56,11.85-3.13,17.35c-2.24,21.32,2.17,38.75,9.16,52.54       c4.55,8.98,10.49,16.88,17.45,23.49c14.92,14.23,34.54,22.66,55.26,23.65c26.43,1.27,64.21-3.97,93.28-36.31       c4.86-5.4,9.46-11.55,13.73-18.55c0,0,15.74,7.14,30.27,4.33c9.27-1.78,18.05-7.64,21.95-21.98       C740.29,458.41,727.21,451.14,716.7,448.79z M622.31,483.39c-0.57,13.9-10.9,26.06-23.41,31.22       c-7.13,2.94-17.31,4.74-27.07,4.02c-12.4-0.9-24.14-5.82-28.21-17.5c-0.94-2.7-1.16-5.71-0.53-8.47h0.02       c0.34-1.54,0.96-3.01,1.87-4.3c2.24-3.14,5.91-4.9,9.59-5.8c0.64-0.17,1.3-0.31,1.96-0.44c5.83-1.25,11.7-1.8,17.48-3.56       c7.29-2.22,14.37-5.16,21.18-8.63c6.39-3.25,13.3-4.44,18.57-2.57c4.39,1.56,7.63,5.25,8.41,11.64       C622.32,480.34,622.38,481.81,622.31,483.39z" class="colorf7a695 svgShape"></path><path fill="#f7a695" d="M506.14,409.97c-3.91,7.44-7.27,16.05-9.82,26.06c-1.55,6.06-2.56,11.85-3.13,17.35      c-7.49-2.41-14.83-6.74-19.74-12.38c-5.89-6.74-8.27-15.33-3.18-24.76c3.7-6.81,9.27-9.6,15.03-10.3      C493.49,404.93,502.07,408.13,506.14,409.97z" class="colorf7a695 svgShape"></path><path fill="#f16b6b" d="M553.18 466.47c-2.79 0-5.6-.75-7.51-3.17-7.58-9.56 9.38-37.58 12.86-43.1.81-1.28 2.5-1.66 3.78-.86 1.28.81 1.66 2.5.86 3.78-7.56 12.01-16.99 32.01-13.2 36.78 1.23 1.55 4.92 1.41 10.12-.38 1.43-.49 2.99.27 3.48 1.7s-.27 2.99-1.7 3.48C560.22 465.26 556.71 466.47 553.18 466.47zM711.44 486.42c-1.17 0-2.26-.76-2.62-1.94-.74-2.43-1.9-3.94-3.55-4.59-2.99-1.19-7.24.56-8.5 1.27-1.02.57-2.28.44-3.16-.33-.87-.77-1.16-2.01-.72-3.09 3.41-8.32 7.88-13.12 13.27-14.25 6.78-1.42 12.1 3.63 12.32 3.84 1.09 1.05 1.12 2.78.07 3.87-1.05 1.08-2.77 1.12-3.86.08-.08-.08-3.54-3.26-7.43-2.42-2.27.49-4.44 2.3-6.4 5.31 2.04-.28 4.3-.22 6.45.64 3.24 1.29 5.51 4.01 6.75 8.08.44 1.45-.37 2.98-1.82 3.42C711.97 486.38 711.7 486.42 711.44 486.42zM479.89 437.24c-.46 0-.93-.12-1.36-.37-1.31-.75-1.76-2.43-1.01-3.74 2.34-4.07 5.16-6.19 8.38-6.3 1.24-.05 2.37.22 3.38.65-.64-4.9-2.17-6.15-2.73-6.45-1.69-.89-4.28.83-4.3.84-1.23.88-2.94.59-3.82-.64-.88-1.23-.59-2.94.64-3.82 1.95-1.39 6.26-3.21 10.03-1.23 4.16 2.19 6.1 7.86 5.93 17.35-.02 1.19-.81 2.24-1.96 2.58-1.15.34-2.38-.1-3.05-1.09-.62-.9-2.42-2.78-3.94-2.71-1.17.05-2.53 1.31-3.82 3.56C481.76 436.75 480.84 437.24 479.89 437.24z" class="colorf16b6b svgShape"></path><path fill="#1a1a1a" d="M716.58,322.86c0,17.01-12.72,31.15-29.54,34.27c-4.68-7.02-9.84-13.24-15.28-19.04      c-9.3-9.9-18.69-16.56-27.82-20.86c2.81-16.6,17.89-29.29,36.07-29.29C700.2,287.93,716.58,303.58,716.58,322.86z" class="color1a1a1a svgShape"></path><ellipse cx="531.73" cy="418.86" fill="#1a1a1a" rx="9.05" ry="4.63" transform="rotate(-80.648 531.718 418.87)" class="color1a1a1a svgShape"></ellipse><ellipse cx="596.2" cy="427.83" fill="#1a1a1a" rx="9.05" ry="4.63" transform="rotate(-80.648 596.187 427.839)" class="color1a1a1a svgShape"></ellipse><path fill="#474748" d="M508.59,399.52c-0.49,0-0.99-0.13-1.44-0.41c-1.28-0.8-1.68-2.49-0.88-3.77      c7.58-12.18,16.68-18.72,27.04-19.43l0.19-0.01c1.51,0,2.75,1.23,2.75,2.74c0,1.48-1.16,2.68-2.62,2.74      c-8.48,0.61-16.12,6.28-22.7,16.85C510.4,399.06,509.51,399.52,508.59,399.52z" class="color474748 svgShape"></path><path fill="#474748" d="M554.3 388.57c-.64 0-1.29-.23-1.81-.68-.08-.07-8.4-7.21-18.78-6.52-1.49.12-2.81-1.04-2.92-2.55-.1-1.51 1.04-2.81 2.55-2.92 12.71-.86 22.36 7.52 22.77 7.88 1.13 1 1.24 2.73.25 3.86C555.82 388.26 555.06 388.57 554.3 388.57zM640.9 416.4c-.91 0-1.8-.45-2.32-1.28-9-14.3-18.89-22.31-29.41-23.82-12.11-1.73-20.87 5.89-20.96 5.97-1.13 1-2.86.9-3.87-.24-1-1.13-.9-2.86.24-3.86.43-.38 10.8-9.37 25.37-7.29 12.18 1.75 23.37 10.6 33.26 26.32.81 1.28.42 2.97-.86 3.78C641.9 416.26 641.4 416.4 640.9 416.4z" class="color474748 svgShape"></path><ellipse cx="611.47" cy="446.33" fill="#f16b6b" rx="9.87" ry="4.63" transform="rotate(-41.175 611.513 446.314)" class="colorf16b6b svgShape"></ellipse><ellipse cx="519.35" cy="441" fill="#f16b6b" rx="4.6" ry="9.92" transform="rotate(-38.381 519.303 440.974)" class="colorf16b6b svgShape"></ellipse><path fill="#1a1a1a" d="M623.88,477.65c-8.9,1.56-24,6.44-30.04,21.98c0,0-17.46,4.89-22.5,21.55      c-12.92-0.97-25.17-6.39-29.42-19.22c-1-2.96-1.21-6.27-0.57-9.31h0.02c13.95-0.41,47.25-4.03,73.71-27.8h0.02      C619.7,466.57,623.07,470.64,623.88,477.65z" class="color1a1a1a svgShape"></path><path fill="#ffffff" d="M615.1,464.85c-26.46,23.77-59.76,27.39-73.71,27.8c0.36-1.69,1-3.31,1.94-4.71      c2.34-3.47,6.17-5.39,10.01-6.39c0.66-0.17,1.36-0.33,2.04-0.49c6.09-1.36,12.22-1.97,18.25-3.91      c7.6-2.43,14.99-5.67,22.1-9.48C602.39,464.11,609.59,462.83,615.1,464.85z" class="colorfff svgShape"></path><path fill="#db393a" d="M624.03,482.47c-0.59,15.27-11.38,28.63-24.42,34.3c-7.44,3.25-18.06,5.21-28.27,4.42      c5.05-16.66,22.49-21.57,22.49-21.57c6.05-15.53,21.14-20.42,30.05-21.97C624.05,479.12,624.11,480.74,624.03,482.47z" class="colordb393a svgShape"></path><g fill="#000000" class="color000 svgShape"><path fill="#f7a596" d="M686.7,196.1c10.35-0.69,21.67-0.43,33.81,1.24" class="colorf7a596 svgShape"></path><path d="M248.73,674.93c-1.17,0-2.13-0.96-2.15-2.17c-0.03-1.23,0.92-2.24,2.1-2.27c6.53-0.15,13.86-0.42,21.79-0.82    c1.2-0.06,2.2,0.89,2.25,2.11c0.06,1.23-0.86,2.27-2.05,2.33c-7.97,0.4-15.34,0.68-21.91,0.82    C248.77,674.93,248.75,674.93,248.73,674.93z" fill="#000000" class="color000 svgShape"></path><path fill="#f7a596" d="M278.08,670.96c-12.28,0.66-21.88,0.92-29.59,0.87c-16.07-0.1-23.94-1.6-30.76-3.89    c-9.01-3.03-16.22-12.14-18.92-25.27c-2.7-13.14,7.21-29.31,19.82-27.28c7.14,1.14,30.71,2.5,46.43,3.31h0.01" class="colorf7a596 svgShape"></path><path fill="#f7a596" d="M304.07,625.14c0,0-45.45-1.97-55.43-3.5c-11.41-1.75-20.38,12.27-17.93,23.66s8.97,19.28,17.12,21.91    c9.14,2.95,20.38,4.38,54.61,2.63" class="colorf7a596 svgShape"></path><line x1="265.06" x2="265.05" y1="618.7" y2="618.7" fill="#f7a596"></line><path fill="#f7a596" d="M368.67,684.71c-1.7,1.42-3.42,2.79-5.15,4.1c-36.39,27.89-76.51,35.8-99.56,37.95l-15.22-54.05    c-28.67,0.68-40.4-1.1-50.27-4.16c-10.76-3.33-19.37-13.34-22.6-27.78c-3.23-14.45,8.61-32.23,23.68-30.01    c9.3,1.38,41.94,3.02,60.33,3.88c-4.11-5.27-2.21-11.66-2.21-11.66s-1.08-10,33.37-13.34c19.14-1.86,34.28,6.25,43.97,13.8    c7.24,5.66,12.55,13.52,15.33,22.44l17.23,55.31L368.67,684.71z" class="colorf7a596 svgShape"></path><path fill="#40916c" d="M381.8,901.03c-66.69,6.16-83.23-51.33-83.23-51.33l-34.62-122.93c23.06-2.16,63.17-10.06,99.56-37.95    c1.72-1.31,3.44-2.68,5.15-4.1l37.54,120.53c4.05,13.28,6.71,24.68,8.33,34.45c1.37,8.12,2.01,15.13,2.16,21.16    C417.2,881.59,401.82,899.17,381.8,901.03z" class="color239476 svgShape"></path><path fill="#f7a596" d="M829.28 165.8c-20.92 65.31-63.8 95.04-91.81 107.95-14.04-18.33-24.49-29.73-24.49-29.73s-83.96 12.22-95.8 0c-4.27-4.41-5.75-8.82-5.88-12.67-.2-5.96 2.95-11.49 7.89-14.57 9.18-5.71 33.08-18.4 67.51-20.68 1.03-6.32.17-15.04-7.48-24.45-4.87 2.54-10.22 5.05-15.77 7.12-8.86 3.32-18.21 5.57-26.9 5.23-14.53-.56-18.84-9.45-19.51-18.19-.36-4.7.37-9.36 2-13.67 1.55-4.15 3.95-7.97 7.03-11.2 29.27-30.76 60.56-40.32 84.58-42.17 21.86-1.68 43.58 4.69 61.59 17.59C786.71 126.73 807.36 143.15 829.28 165.8zM679.22 171.65c13.34-6.98 22.99-14.31 22.99-14.31" class="colorf7a596 svgShape"></path><path fill="#f7a596" d="M663.45,178.78c-5.86,6.56-12.95,12.72-20.38,17.79c0,0,0,0-0.01,0.01c-5.15,3.51-10.45,6.49-15.63,8.71    c-14.2,6.07-30.81-0.16-28.56-17.95c0.14-1.11,0.36-2.24,0.62-3.37v-0.02c2.64-11.11,11.06-22.57,19.54-31.81    c-1.64,4.31-2.36,8.97-2,13.67c0.68,8.75,4.98,17.64,19.51,18.19C645.24,184.35,654.59,182.1,663.45,178.78z" class="colorf7a596 svgShape"></path><path fill="#f7a596" d="M643.07,196.58c-7.43,6.89-16.18,12.82-24.53,16.4c-11.99,5.12-26.02-0.13-24.12-15.16    c0.58-4.58,2.46-9.28,5.09-13.85c-0.27,1.12-0.48,2.26-0.62,3.37c-2.25,17.79,14.36,24.02,28.56,17.95    C632.61,203.07,637.92,200.09,643.07,196.58z" class="colorf7a596 svgShape"></path><path fill="#40916c" d="M829.28,165.8c-20.92,65.31-63.8,95.04-91.81,107.95c28.22,36.84,65.07,98.97,66.51,155.38    c2.15,84.46-16.73,122.73-39.33,139.4c-17.62,12.99-75.12,8.43-99.63,5.79c-5.25-0.57-15.22-1.12-16.72-1.32    c-12.11,19.82-33.65,56.66-73.09,56.66c-29.48,0-43.14-28.22-48.27-48.44l-14.74,4.57l-85.53,22.75c0,0-22.6,4.45-45.21,46.68    c-5.48,10.22-10.06,18.83-13.89,25.98l1.1,3.51l37.54,120.53c4.05,13.28,6.71,24.68,8.33,34.45c102.72,0,205.43,0.16,308.15-0.21    c18.76-0.07,37.8-0.17,55.86-5.43c49.54-14.43,78.56-69.37,101.6-113.25c29.32-55.84,49.87-116.55,60.37-179.15    c4.94-29.46,7.67-59.3,8.22-89.19C951.19,320.45,882.67,220.98,829.28,165.8z" class="color239476 svgShape"></path><path d="M414.82,841.92c-0.92,0-1.77-0.61-2.06-1.57l-46.28-154.47c-0.35-1.17,0.28-2.42,1.42-2.78    c1.14-0.36,2.34,0.29,2.69,1.47l46.28,154.47c0.35,1.17-0.28,2.42-1.42,2.78C415.24,841.89,415.03,841.92,414.82,841.92z" fill="#000000" class="color000 svgShape"></path><path fill="#f16a69" d="M720.51 199.57c-.1 0-.19-.01-.29-.02-11.19-1.54-22.42-1.96-33.38-1.23-1.19.07-2.21-.85-2.29-2.08-.08-1.22.82-2.28 2.01-2.36 11.25-.75 22.76-.33 34.23 1.26 1.18.16 2.01 1.28 1.85 2.5C722.5 198.76 721.58 199.57 720.51 199.57zM679.22 173.88c-.79 0-1.54-.45-1.92-1.22-.54-1.1-.11-2.43.95-2.99 13.03-6.82 22.59-14.05 22.69-14.12.96-.73 2.31-.51 3.01.47.7.99.5 2.38-.46 3.11-.4.3-9.95 7.52-23.29 14.51C679.88 173.8 679.55 173.88 679.22 173.88zM616.75 209.76c-5.11 0-9.88-1.46-13.49-4.31-5.18-4.1-7.49-10.63-6.51-18.39.13-1.06.34-2.19.61-3.35v0l.06-.28c2.32-9.79 9.07-20.82 20.06-32.81l7.6-8.28-4.03 10.62c-1.56 4.11-2.19 8.38-1.86 12.69.81 10.44 6.52 15.73 17.45 16.14 7.51.28 16.29-1.43 26.08-5.1l8.31-3.12-6 6.71c-5.88 6.58-12.99 12.81-20.57 18l-.21.15c-5.36 3.66-10.74 6.66-15.99 8.91C624.47 208.97 620.52 209.76 616.75 209.76zM601.65 184.25l-.06.27c-.26 1.09-.46 2.14-.58 3.12-.78 6.21.9 11.15 4.86 14.29 5.07 4.02 13.21 4.54 20.73 1.32 4.93-2.12 10-4.94 15.08-8.38l.2-.14c4.85-3.31 9.5-7.05 13.74-11.05-6.96 1.93-13.38 2.79-19.16 2.57-16.59-.63-20.89-11.35-21.58-20.24-.15-1.93-.13-3.86.06-5.77C607.88 168.99 603.42 177.04 601.65 184.25z" class="colorf16a69 svgShape"></path><path fill="#f16a69" d="M609.51 217.1c-4.39 0-8.5-1.26-11.6-3.71-4.48-3.54-6.48-9.17-5.63-15.85.58-4.55 2.39-9.5 5.38-14.7l7.44-12.95-3.5 14.62c-.26 1.09-.46 2.14-.58 3.12-.78 6.21.9 11.15 4.86 14.29 5.07 4.02 13.21 4.54 20.73 1.32 4.99-2.14 10.13-5.01 15.27-8.51l2.63 3.51c-7.79 7.23-16.72 13.19-25.14 16.8C616.12 216.42 612.74 217.1 609.51 217.1zM597.05 195.4c-.22.93-.39 1.83-.5 2.72-.64 5.11.73 9.17 3.98 11.75 4.19 3.32 10.94 3.74 17.18 1.07 1.06-.46 2.14-.95 3.22-1.49-6.63 1-13.09-.37-17.67-4C600.07 202.93 597.97 199.48 597.05 195.4zM250.5 674.06c-.69 0-1.36 0-2.03-.01-16.48-.1-24.48-1.67-31.41-4-9.98-3.36-17.59-13.42-20.36-26.92-1.66-8.07 1.05-17.67 6.74-23.88 4.4-4.8 9.91-6.96 15.51-6.06 7.23 1.16 32.06 2.56 46.21 3.29 1.19 0 2.1.99 2.1 2.22 0 1.23-1.01 2.22-2.2 2.22l-.12 0c-17.39-.9-39.6-2.2-46.66-3.34-4.16-.67-8.32 1.01-11.72 4.72-4.76 5.2-7.04 13.2-5.66 19.91 2.45 11.93 8.99 20.76 17.48 23.62 6.55 2.2 14.18 3.68 30.11 3.78 7.87.06 17.51-.23 29.47-.86 1.19-.05 2.2.88 2.26 2.11.06 1.23-.85 2.27-2.04 2.33C267.15 673.77 258.07 674.06 250.5 674.06z" class="colorf16a69 svgShape"></path><path fill="#f16a69" d="M277.36,672.81c-15.69,0-23.43-1.32-30.18-3.49c-9.1-2.93-16.04-11.74-18.58-23.55    c-1.5-6.97,0.76-15.04,5.76-20.57c4.09-4.53,9.28-6.58,14.6-5.77c9.76,1.5,54.75,3.46,55.2,3.48c1.19,0.05,2.11,1.09,2.06,2.31    c-0.05,1.23-1.04,2.18-2.24,2.13c-1.86-0.08-45.68-1.99-55.65-3.53c-3.87-0.59-7.71,0.97-10.81,4.4    c-3.99,4.42-5.88,11.09-4.7,16.58c2.2,10.24,8.05,17.81,15.66,20.26c9.18,2.96,20.48,4.24,53.87,2.53    c1.18-0.05,2.2,0.88,2.26,2.11c0.06,1.23-0.86,2.27-2.04,2.33C292.32,672.57,284.1,672.81,277.36,672.81z" class="colorf16a69 svgShape"></path><path fill="#023047" d="M240.44,577.42c-0.76,0-1.53-0.21-2.23-0.65c-2.03-1.27-2.68-4.01-1.45-6.11l76.42-130.03     c1.07-1.82,3.24-2.6,5.17-1.87l37.76,14.36l23.94-36.04c1.17-1.76,3.39-2.42,5.29-1.55l32.86,14.97l59.51-121.81     c0.53-1.08,1.46-1.89,2.57-2.25s2.33-0.23,3.35,0.35l28.2,16.07l83.82-97.36c1.58-1.83,4.3-2,6.08-0.37     c1.78,1.63,1.94,4.44,0.36,6.28l-86.11,100.02c-1.34,1.55-3.54,1.94-5.3,0.94l-27.3-15.55l-59.34,121.46     c-1.03,2.11-3.49,3.02-5.58,2.07l-33.33-15.18l-23.81,35.85c-1.11,1.68-3.19,2.36-5.04,1.66l-37.57-14.29l-74.58,126.89     C243.32,576.66,241.9,577.42,240.44,577.42z" class="colorffd36a svgShape"></path><ellipse cx="240.06" cy="573.37" fill="#eb7547" rx="12.48" ry="12.88" class="coloree3c3b svgShape"></ellipse><ellipse cx="317.56" cy="443.35" fill="#eb7547" rx="8.83" ry="9.12" class="coloree3c3b svgShape"></ellipse><ellipse cx="357.39" cy="457.8" fill="#eb7547" rx="8.83" ry="9.12" class="coloree3c3b svgShape"></ellipse><ellipse cx="384.3" cy="420.01" fill="#eb7547" rx="8.83" ry="9.12" class="coloree3c3b svgShape"></ellipse><ellipse cx="419.82" cy="434.46" fill="#eb7547" rx="8.83" ry="9.12" class="coloree3c3b svgShape"></ellipse><ellipse cx="482.25" cy="311.1" fill="#eb7547" rx="8.83" ry="9.12" class="coloree3c3b svgShape"></ellipse><ellipse cx="512.39" cy="325.55" fill="#eb7547" rx="8.83" ry="9.12" class="coloree3c3b svgShape"></ellipse><ellipse cx="598.5" cy="228.86" fill="#eb7547" rx="15.31" ry="15.81" class="coloree3c3b svgShape"></ellipse></g></g></svg></g></svg>