<svg xmlns="http://www.w3.org/2000/svg" xmlns:xlink="http://www.w3.org/1999/xlink" xmlns:svgjs="http://svgjs.com/svgjs" id="SvgjsSvg1545" width="360" height="360"><defs id="SvgjsDefs1546"></defs><g id="SvgjsG1547"><svg xmlns="http://www.w3.org/2000/svg" viewBox="0 0 500 500" width="360" height="360"><circle cx="219.4" cy="345.1" r="19.8" fill="#40916c" class="colorf4baee svgShape"></circle><circle cx="313.7" cy="265.4" r="26" fill="#f4a261" class="color8fabfe svgShape"></circle><circle cx="170.2" cy="206.3" r="24.1" fill="#eb7547" class="colorfaddad svgShape"></circle><path fill="#fcfffe" d="m390 89 13-.1M389.2 79.4l11.7-7.5M383.8 72.1l6.9-11.6M358 235.4v8.1M354 239.5h8.1M380.4 192.5c2.7-.5 4.7-2.6 5.3-5.3 0-.2.2-.2.3 0 .5 2.7 2.6 4.7 5.3 5.3.2 0 .2.2 0 .3-2.7.5-4.7 2.6-5.3 5.3 0 .2-.2.2-.3 0-.5-2.7-2.6-4.7-5.3-5.3-.1-.1-.1-.3 0-.3zM119 186.1c0 3 2.4 5.4 5.4 5.4-3 0-5.4 2.4-5.4 5.4 0-3-2.4-5.4-5.4-5.4 3 0 5.4-2.4 5.4-5.4zM173.3 96.6h23.3c4.2 0 7.6 3.4 7.2 7.6-.3 3.6-3.3 6.4-7 6.4h-24l-6.8 3.9v-10.7c0-3.9 3.3-7.2 7.3-7.2zM200.6 67.5h-31.3c-5.8 0-10.5 4.8-10 10.5.4 5 4.6 8.9 9.7 8.9h32.2l9.4 5.4V77.6c0-5.6-4.5-10.1-10-10.1z" class="colorfcfffe svgShape"></path><circle cx="184.6" cy="90.7" r="13.3" fill="#aed8ad" class="coloraed8ad svgShape"></circle><path fill="#fcfffe" d="M173.3 105.2h13.9M196.8 102.1h-23.3M200.6 79.4h-18.4M169 75.1h31.3" class="colorfcfffe svgShape"></path><circle cx="258.1" cy="83.9" r="4" fill="#f4a261" class="color8fabfe svgShape"></circle><path fill="#fcfffe" d="m255.6 407.6 9.1-10.7-13.5-14.4-10 11.8-2.2 3.6c2.5 9.3 12.6 8.9 16.6 9.7z" class="colorfcfffe svgShape"></path><path fill="#fcfffe" d="M240.2 399.9h4.9v45.8h-4.9z" transform="rotate(-49.684 242.672 422.763)" class="colorfcfffe svgShape"></path><path fill="#f4a261" d="M241.6 394.2c3.6 13 16.6 13.1 16.6 13.1s-3.5 9.7 3.6 19.5c3.7 5-.1 8.9-.1 8.9l-34.9-29.6 12.2-14.4 2.6 2.5z" class="color97a5f7 svgShape"></path><path fill="#eb7547" d="m315.8 327.6-12.3-69.8-8.6 2.1c-17.5 4.3-28.1 22.2-23.6 39.6l9 34.3-39.1 50.3 24.3 19.6 44.9-55.6c5.5-5.2 7.5-13.2 5.4-20.5z" class="colorfaddad svgShape"></path><path fill="#ea5e27" d="M265.5 403.8c-8.3-12.4-6.6-26.9 2.6-38.6l19.9-28.8c1.1-1.3 1.5-3.1 1.2-4.7l-4.6-28.9c-4.4-16.7 4-35.4 20.1-40.7l-1.3-4.3-8.6 2.1c-17.5 4.3-28.1 22.2-23.6 39.6l9 34.3-39.1 50.3 24.4 19.7z" class="colorefc07d svgShape"></path><path fill="#fcfffe" d="m206.5 397.7 10-9.8-12.2-15.6-11 10.9-2.5 3.4c1.7 9.4 11.8 9.9 15.7 11.1z" class="colorfcfffe svgShape"></path><path fill="#fcfffe" d="M189.8 388.7h4.9v45.8h-4.9z" transform="rotate(-44.514 192.282 411.631)" class="colorfcfffe svgShape"></path><path fill="#f4a261" d="M193.8 383.1c2.4 13.3 15.4 14.6 15.4 14.6s-4.4 9.4 1.8 19.7c3.2 5.4-.9 8.9-.9 8.9L178 393.6l13.5-13.2 2.3 2.7z" class="color97a5f7 svgShape"></path><path fill="#eb7547" d="m283.1 328.5-6.7-72.2-8.8.9c-18 1.9-30.9 18.1-28.8 36l4.2 35.2-46.8 43 21.4 22.8 57.3-46.1c6.2-4.5 9.3-12 8.2-19.6z" class="colorfaddad svgShape"></path><path fill="#ea5e27" d="M217.6 394.3c-6.5-13.4-2.6-27.7 8.2-38l24.8-24.3c1.2-1.2 1.9-2.8 1.9-4.5l-.6-29.2c-2-17.1 8.6-34.4 25.2-37.4l-.6-4.5-8.8.9c-18 1.9-30.9 18.1-28.8 36l4.2 35.2-46.8 43 21.3 22.8z" class="colorefc07d svgShape"></path><path fill="#40916c" d="m291.1 198.6 15.8 73.8s-16.4 16.4-68.5 15.5l-20.3-84.1-5.8 10.7-2.3-8.6c-2.2-8.1 1.4-16.9 8.9-20.7.3-.2.7-.3 1-.5l27.5-9.7 35.7-4.5c5.4-.5-.2-.3 6.3 1.3" class="colorf4baee svgShape"></path><path fill="#39885e" d="M306.9 272.4c-67.4 17.6-85.2-53.9-85.3-54.1l16.8 69.6c52.1.8 68.5-15.5 68.5-15.5z" class="coloreaa4e6 svgShape"></path><path fill="#fcfffe" d="m147 122.6.4 10.6c.9.8 2.3 2.3 2.5 4.7l1.9 1.8c2.6 10.1-2.5 13.4-12 12.6l-3.6-3s-2.7-.7-4.6-2.8l-11.3-.4c-1.8-.1-3.3-1.6-3.2-3.5.1-1.8 1.6-3.3 3.5-3.2l5.1.5-8.7-3.7c-1.7-.8-2.4-2.8-1.6-4.5.8-1.7 2.8-2.4 4.5-1.6l9.4 5.5-9.6-8.7c-1.3-1.3-1.3-3.4-.1-4.7 1.3-1.3 3.4-1.3 4.7-.1l9.5 10.1-5.2-9.5c-.9-1.6-.3-3.6 1.3-4.5 1.6-.9 3.6-.3 4.5 1.3l5.7 10.5-.2-7.1c-.1-2 1.5-3.6 3.4-3.7 2-.1 3.7 1.5 3.7 3.4z" class="colorfcfffe svgShape"></path><path fill="#fcfffe" d="M140.2 130s1.1 1.3-1.2 4.6c-2.2 3.3-1.3 6.2-1.3 6.2" class="colorfcfffe svgShape"></path><path fill="#40916c" d="M223.1 218.2 176.2 204l-38-50.4 14.9-15.8 34.6 40.9 32.2 5.9" class="colorf4baee svgShape"></path><path fill="#fcfffe" d="m321.2 86.8 4.1 9.8c-.5 1.1-1.1 3-.3 5.3l-1 2.4c1.8 10.2 7.9 11.1 16.2 6.4l2-4.2s2.2-1.8 3-4.5l10.1-5.1c1.6-.8 2.3-2.8 1.5-4.5-.8-1.6-2.8-2.3-4.5-1.5l-4.4 2.6 6.3-7c1.2-1.4 1-3.5-.4-4.7-1.4-1.2-3.5-1-4.7.4l-6.2 9 5-11.9c.7-1.7-.2-3.7-1.9-4.3-1.7-.7-3.7.2-4.3 1.9L337.2 90l.7-10.8c.1-1.8-1.3-3.4-3.1-3.6-1.8-.1-3.4 1.3-3.6 3.1l-.8 11.9-2.8-6.6c-.8-1.8-2.8-2.7-4.6-1.9-1.7.8-2.6 2.9-1.8 4.7z" class="colorfcfffe svgShape"></path><path fill="#fcfffe" d="M330.5 90.6s-.4 1.6 3 3.7 3.8 5.1 3.8 5.1" class="colorfcfffe svgShape"></path><path fill="#40916c" d="m287 212.8 41.6-47.7 15.3-55.1-23.6-7.3-12.5 47-24.4 20.8" class="colorf4baee svgShape"></path><path fill="#fcfffe" d="m228.8 150.4-6.1 2.3c-2.6 1-3.9 3.9-2.9 6.5s3.9 3.9 6.5 2.9l6.1-2.3-3.6-9.4z" class="colorfcfffe svgShape"></path><path fill="#fcfffe" d="m232.3 159.8-4.3 1.6c-2.3-6.1-3.6-9.5-3.6-9.4l4.3-1.6 3.6 9.4zM238.6 168.1l4.7 12.3c1.7 4.4 6.5 6.6 10.9 4.9 4.4-1.7 6.6-6.5 4.9-10.9l-4.7-12.3-15.8 6z" class="colorfcfffe svgShape"></path><path fill="#fcfffe" d="M238.4 133.8c-.9 3.6-4.4 9.8-10.4 12.1-1.9.7-3.9 1.2-5.7 1.5l6.2 16.2c3.3 8.7 13 13 21.7 9.7 8.7-3.3 13-13 9.7-21.7l-6.5-17c-5.1 2-11.8.5-15-.8z" class="colorfcfffe svgShape"></path><path fill="#fcfffe" d="M255.2 159.2c.8.3.9 4.6-2.2 6.2-3.2 1.5-6.5-1.2-6.2-2 .2-.8 2.6-.2 4.6-1.3 2-1 3-3.3 3.8-2.9zM385.9 160.3h30.8" class="colorfcfffe svgShape"></path><circle cx="373.4" cy="163.3" r="4.3" fill="#aed8ad" class="coloraed8ad svgShape"></circle><path fill="#aed8ad" d="M390.8 340.6s-23.9 1.8-29.9-13c-3.4-8.5-2.5-12.2-6.9-18.3 0 0 38.5 0 36.8 31.3zM399.6 381.2s12.1 6.8 20 .5c4.5-3.6 5.1-5.9 9.3-7.9 0-.1-22.6-11.1-29.3 7.4zM349.9 377.6s-.8-6.4 5.7-5.6c0 0 2.1-7.1 7.4-4.2 0 0 2.7-6.5 9.6-.4 0 0 7-4.2 13.9 13.6 0 0-22.3-5.9-38.8 8.1 0 0-5.5-8.5 2.2-11.5z" class="coloraed8ad svgShape"></path><circle cx="369" cy="351.2" r="7.3" fill="#aed8ad" class="coloraed8ad svgShape"></circle><path fill="#aed8ad" d="M396.7 362.5s19.3-12.2 39.1-4c0 0 2.7-9.7-5.5-10.2 0 0-1.2-6.3-7.1-3.6 0 0-4.1-6.1-8.2-1.7 0 0-4.5-5.3-9.2 2.5 0 0-7.9-1.9-9.1 17zM403.9 439.5h-21.2c-12.4-13.8-10.6-42.2-10.6-42.2h42.5c-.1-.1 1.7 28.4-10.7 42.2z" class="coloraed8ad svgShape"></path><path fill="#a1cc9f" d="M382.6 439.5h21.2c-24.8-4.4-31.9-42.2-31.9-42.2s-1.7 28.4 10.7 42.2z" class="colora1cc9f svgShape"></path><path fill="#fcfffe" d="M167.5 337.2h-100c-1.6 0-3 1.3-3 3v5.9c0 1.6 1.3 3 3 3h99.9c1.6 0 3-1.3 3-3v-5.9c.1-1.7-1.3-3-2.9-3z" class="colorfcfffe svgShape"></path><path fill="#eb7547" d="M157.9 439.5 125.5 407v18l24 14.5zM85.5 439.5l24.1-14.5v-18l-32.5 32.5z" class="colorfaddad svgShape"></path><path fill="#fcfffe" d="M109.6 407h15.9v18.1h-15.9z" class="colorfcfffe svgShape"></path><path fill="#eb7547" d="m121.1 439.5 4.4-14.5h-15.9l4.4 14.5z" class="colorfaddad svgShape"></path><path fill="#40916c" d="M150.5 297.7h-19.3l-2 4.1h23.4z" class="colorf4baee svgShape"></path><path fill="#fcfffe" d="M154.8 301.8h-27.9l-2.5 5.5h33z" class="colorfcfffe svgShape"></path><path fill="#eb7547" d="m150.5 337.2 4.4-29.9h-28l4.3 29.9z" class="colorfaddad svgShape"></path><path fill="#ea5e27" d="M150.5 337.2c-16.6-5.7-23.7-30-23.7-30l4.4 30h19.3z" class="colorefc07d svgShape"></path><circle cx="140.9" cy="320.6" r="3.7" fill="#fcfffe" class="colorfcfffe svgShape"></circle><path fill="#fcfffe" d="M102.8 330.7c0 3.6-2.9 6.5-6.5 6.5H70.1v-13h26.2c3.6 0 6.5 2.9 6.5 6.5z" class="colorfcfffe svgShape"></path><path fill="#f4a261" d="M96.3 324.2H69.6c-.7 0-1.3.6-1.3 1.3 0 .7.6 1.3 1.3 1.3h26.7c2.2 0 4 1.9 3.9 4.1-.1 2.1-1.9 3.7-4 3.7H69.6c-.7 0-1.3.6-1.3 1.3 0 .7.6 1.3 1.3 1.3h26.6c3.4 0 6.3-2.5 6.6-5.9.3-3.9-2.7-7.1-6.5-7.1z" class="color97a5f7 svgShape"></path><path fill="#f4a261" d="M116 324.2H96.3c3.6 0 6.5 2.9 6.5 6.5s-2.9 6.5-6.4 6.5H116c3.6 0 6.5-2.9 6.5-6.5s-2.9-6.5-6.5-6.5z" class="color97a5f7 svgShape"></path><path fill="#889bea" d="M96.4 324.2c3.5.1 6.4 3 6.4 6.5 0 3.6-2.9 6.5-6.4 6.5H116c1.4 0 2.6-.4 3.7-1.2-5.5 0-11.4-11.7-23.3-11.8z" class="color889bea svgShape"></path><path fill="#56327a" d="M389.6 89c0 .2.2.4.4.4l13.1-.1c.2 0 .4-.2.4-.4s-.2-.4-.4-.4l-13.1.1c-.2 0-.4.1-.4.4zM388.9 79.6c.1.1.2.2.3.2.1 0 .1 0 .2-.1l11.7-7.5c.2-.1.2-.4.1-.6-.1-.2-.4-.2-.6-.1L389 79c-.2.1-.2.4-.1.6zM383.6 72.4c.1 0 .1.1.2.1s.3-.1.3-.2l6.9-11.5c.1-.2.1-.4-.1-.5-.2-.1-.4-.1-.5.1l-6.9 11.5c-.2.1-.1.4.1.5zM282.9 111.5c1.4.4 2.7.5 4.1.3 1.7 2.8 2 6.3.6 9.5-.1.2 0 .4.2.5h.2c.1 0 .3-.1.4-.2 1.5-3.3 1.3-7-.4-10 3.3-.7 6.2-2.9 7.7-6.1.1-.2 0-.4-.2-.5-.2-.1-.4 0-.5.2-1.4 3.1-4.3 5.2-7.5 5.7-.8-1.1-1.7-2.1-2.9-2.9-1-.7-2.3-.3-2.8.7-.7 1.2-.1 2.5 1.1 2.8zm-.5-2.3c.3-.6 1.1-.8 1.6-.4 1 .6 1.8 1.4 2.4 2.3-1.1.1-2.2 0-3.4-.3-.6-.3-.9-1-.6-1.6zM354 239.1c-.2 0-.4.2-.4.4s.2.4.4.4h3.7v3.7c0 .2.2.4.4.4s.4-.2.4-.4v-3.7h3.7c.2 0 .4-.2.4-.4s-.2-.4-.4-.4h-3.7v-3.7c0-.2-.2-.4-.4-.4s-.4.2-.4.4v3.7H354zM380.3 193.2c2.5.5 4.5 2.5 5 5 .1.3.3.4.5.4s.5-.2.5-.4c.5-2.5 2.5-4.5 5-5 .3-.1.4-.3.4-.5 0-.3-.2-.5-.4-.5-2.5-.5-4.5-2.5-5-5-.1-.3-.3-.4-.5-.4s-.5.2-.5.4c-.3 1.3-.9 2.4-1.8 3.2-.9.9-2 1.5-3.2 1.7-.3 0-.4.3-.4.5 0 .3.2.5.4.6zm5.5-5c.7 2.1 2.4 3.7 4.4 4.4-2.1.7-3.7 2.4-4.4 4.4-.7-2.1-2.4-3.7-4.4-4.4 2.1-.7 3.7-2.3 4.4-4.4zM89.9 130.4c.1 0 .2 0 .2-.1.2-.1.2-.4.1-.5 0-.1-4-5.7.8-16 .2-.4.3-.7.5-1 1.2.6 5 2.4 7.6.5 1.5-1.1 1.7-2.8 1.2-4.1-.6-1.5-1.9-2.4-3.5-2.3-1.9.2-3.7 1.6-5.3 4.3-.8-3.4-.3-6.3 1.5-8.8 5.6-7.7 21.9-8.4 22.1-8.4.2 0 .4-.2.4-.4s-.2-.4-.4-.4c-.7 0-16.9.7-22.7 8.7-2.1 2.9-2.5 6.3-1.4 10.3-.2.4-.4.8-.6 1.3-5 10.8-.9 16.6-.7 16.9-.1-.1 0 0 .2 0zm7-22.8c1.4-.1 2.3.9 2.7 1.8.3.9.3 2.3-1 3.2-2.2 1.6-5.6 0-6.7-.6 1.5-2.7 3.2-4.2 5-4.4zM113.6 191.9c2.8 0 5 2.3 5 5 0 .2.2.4.4.4s.4-.2.4-.4c0-2.8 2.3-5 5-5 .2 0 .4-.2.4-.4s-.2-.4-.4-.4c-2.8 0-5-2.3-5-5 0-.2-.2-.4-.4-.4s-.4.2-.4.4c0 2.8-2.3 5-5 5-.2 0-.4.2-.4.4s.1.4.4.4zm5.4-3.7c.6 1.5 1.8 2.7 3.3 3.3-1.5.6-2.7 1.8-3.3 3.3-.6-1.5-1.8-2.7-3.3-3.3 1.5-.6 2.7-1.8 3.3-3.3zM173.3 96.2c-4.2 0-7.6 3.4-7.6 7.6v10.7c0 .3.3.5.6.3l6.7-3.9h23.9c3.8 0 7.1-3 7.4-6.8.4-4.5-3.3-8.1-7.6-8.1h-23.4zm30.1 8c-.3 3.4-3.2 6.1-6.6 6.1h-24c-.1 0-.1 0-.2.1l-6.2 3.6v-10c0-3.8 3.1-6.8 6.8-6.8h23.3c4-.2 7.3 3.1 6.9 7zM169 87.4h32.1l9.3 5.3c.3.2.6 0 .6-.3V77.6c0-5.8-4.7-10.4-10.4-10.4h-31.3c-6 0-10.9 4.9-10.4 11 .4 5.1 4.9 9.2 10.1 9.2zm.3-19.5h31.3c5.3 0 9.6 4.3 9.6 9.6v14.1l-8.8-5.1c-.1 0-.1-.1-.2-.1H169c-4.8 0-8.9-3.8-9.3-8.5-.5-5.5 4.1-10 9.6-10z" class="color56327a svgShape"></path><path fill="#56327a" d="M187.2 104.8h-14c-.2 0-.4.2-.4.4s.2.4.4.4h14c.2 0 .4-.2.4-.4s-.1-.4-.4-.4zM173.1 102.1c0 .2.2.4.4.4h23.3c.2 0 .4-.2.4-.4s-.2-.4-.4-.4h-23.3c-.2 0-.4.1-.4.4zM182.2 79c-.2 0-.4.2-.4.4s.2.4.4.4h18.4c.2 0 .4-.2.4-.4s-.2-.4-.4-.4h-18.4zM169 75.5h31.3c.2 0 .4-.2.4-.4s-.2-.4-.4-.4H169c-.2 0-.4.2-.4.4s.2.4.4.4z" class="color56327a svgShape"></path><path fill="#56327a" d="m316.2 327.5-9.6-54.4c.3-.3.5-.4.5-.5.1-.1.1-.2.1-.4l-14.1-66 35.7-40.9s.1-.1.1-.2l15.3-55.1c.1-.2-.1-.4-.3-.5l-2.5-.8 1-2.1c.4-.3 2.2-2 3-4.4l10-5c1.8-.9 2.6-3.2 1.7-5v-.1c-.4-.9-1.2-1.5-2.1-1.8-1-.3-2-.2-2.9.2l-2.2 1.3 4.6-5.1c1.3-1.6 1.1-4-.5-5.3-1.6-1.3-3.9-1.1-5.3.5l-4 5.8 3.5-8.4c.7-1.9-.2-4.1-2.2-4.8-1.9-.7-4.1.2-4.8 2.2L337.8 87l.5-7.8c.1-2-1.4-3.8-3.5-4-2.1-.1-3.8 1.4-4 3.5l-.7 10.2-2.1-5c-.8-2-3.2-2.9-5.2-2.1-1.5.6-2.4 2.1-2.4 3.6 0 .5.1 1 .3 1.5l4 9.6c-.5 1.1-1.1 3-.3 5.3l-.6 1.5-3.5-1.1h-.3c-.1.1-.2.1-.2.2l-12.5 46.9-13.2 11.2c-4.5-1.3-9.2-2.2-12.8-2.7-3.1-.5-5.6-2.3-6.3-5-1.3-5.2-6.3-15.2-24.3-29.6-28.5-22.8-44.9 15.2-42 26.7 2.6 10.1-1.8 20.8-10.2 30.2l-10.8-2-34.5-40.8c-.1-.1-.2-.1-.3-.1-.1 0-.2 0-.3.1l-1.3 1.3-1.3-1.2c-.3-2.4-1.7-3.9-2.5-4.7l-.4-10.4c-.1-2.1-1.8-3.8-3.9-3.8h-.1c-2.2.1-3.9 1.9-3.8 4.1l.2 5.4-4.9-9c-1-1.8-3.3-2.5-5.1-1.5-1.8 1-2.5 3.3-1.5 5.1l3.7 6.8-7.4-7.9c-1.5-1.4-3.8-1.4-5.3.1-1.4 1.5-1.4 3.9.1 5.3l6.7 6.2-6.1-3.6c-1.8-.9-4.1-.1-5 1.7-.9 1.9-.1 4.1 1.8 5l6.4 2.7-2.6-.2c-2.1-.1-3.8 1.5-3.9 3.6v.1c0 1 .3 1.9 1 2.7.7.7 1.6 1.1 2.6 1.2l11.2.4c1.8 1.9 4.1 2.6 4.6 2.8l3 2.5-1.1 1.2c-.1.1-.1.4 0 .5l37.9 50.4c.1.1.1.1.2.1l45.1 13.6L238 288c0 .1.1.2.2.3-.1 1.7 0 3.4.2 5.1l4.2 35-46.7 42.9c-.2.2-.2.4 0 .6l4 4.2-6.3 6.2-1.9-2.2c-.2-.2-.4-.2-.6 0l-13.5 13.2-3.5 3.4c-.1.1-.1.2-.1.3 0 .1 0 .2.1.3l32.1 32.7c.1.1.4.2.6 0l3.5-3.4c.4-.3 4.2-4 1-9.4-.9-1.4-1.5-2.9-2-4.3 1.7-1.7 3.2-3.6 1.6-5.3-.6-.6-1.3-.9-2.1-.9 1.2-1.3 2.6-3.2 1-4.8-.3-.3-.7-.6-1.2-.8.4-2 1-3.2 1-3.3.1-.1.1-.3 0-.4-.1-.1-.2-.2-.3-.2 0 0-.6-.1-1.5-.3l6.1-6 3.4 3.7c.1.2.4.2.6 0l39.2-31.5-16.2 20.9c-.1.2-.1.4.1.6l4.7 3.8-4.3 5.1c-2.2-2-2.1-2.1-2.4-2.1-.3 0 .5-.7-12.5 14.5l-3.2 3.8c-.1.2-.1.4.1.6l34.9 29.6c.2.1.4.1.6 0l3.1-3.7s4-4.2.1-9.5c-1-1.4-1.8-2.7-2.4-4.1 1.2-1.4 3-3.8 1.1-5.5-.6-.5-1.4-.8-2.2-.7 1.1-1.4 2.3-3.4.6-4.8-.4-.3-.8-.5-1.2-.6.2-2 .7-3.3.7-3.4.1-.3-.1-.5-.4-.5 0 0-.6 0-1.5-.1l4.8-5.6 3.7 3c.1.1.2.1.3.1.1 0 .2-.1.3-.2l44.8-55.6c5.5-5.7 7.6-13.7 5.5-21.2zm9.1-225.5v-.3c-.7-2.2-.1-4.1.3-5 0-.1.1-.2 0-.3l-4.1-9.8c-.7-1.6.1-3.4 1.7-4.1 1.6-.7 3.4.1 4.1 1.7l2.7 6.4c-.1.5 0 2.1 3.2 4s3.6 4.8 3.6 4.8c0 .2.2.3.4.3h.1c.2 0 .4-.2.3-.5 0-.1-.5-3.3-4-5.4-3-1.8-2.8-3.2-2.8-3.2v-.1l.8-11.9c.1-1.6 1.5-2.8 3.1-2.7 1.6.1 2.9 1.5 2.7 3.1l-.6 11c0 .2.1.4.3.4.2 0 .4-.1.4-.3L342 77c.6-1.5 2.3-2.3 3.8-1.7s2.3 2.3 1.7 3.8l-5 11.9c-.1.2 0 .4.2.5.2.1.4 0 .5-.1l6.2-8.9c1-1.3 2.9-1.4 4.1-.4 1.2 1 1.4 2.9.4 4.1l-6.4 7c-.1.1-.1.4 0 .5.1.1.3.2.5.1l4.4-2.5c.7-.4 1.5-.4 2.3-.2.7.2 1.3.8 1.7 1.5.7 1.4.1 3.2-1.3 3.9l-10.1 5.1c-.1.1-.2.1-.2.2-.8 2.5-2.9 4.3-2.9 4.3-.1 0-.1.1-.1.1l-1.1 2.3-16.1-5 .7-1.5zm-66.5 72.6c1.6 4.1-.5 8.8-4.7 10.4-4.2 1.6-8.8-.5-10.4-4.7 0-.1-2.3-6-2.2-5.7 5.4.8 11.3-1.1 15.2-5.3 0 .1 1.9 4.9 1.8 4.6l.3.7zm-5.7-39.4 6.3 16.6c3.2 8.4-1 17.9-9.5 21.2-2.8 1.1-5.8 1.4-8.7.8-.3-.1-.6-.1-.9-.2-1-.2-1.9-.6-2.9-1-4-1.8-7.1-5-8.6-9.1 0-.1-4.6-12.1-4.3-11.4 0-.1-1.8-4.7-1.7-4.4 1.8-.3 3.5-.8 5.3-1.4 6-2.3 9.6-8.2 10.6-11.9 3.2 1.1 9.4 2.5 14.4.8zm-30.3 17.9 1.1-.4 3.3 8.6-1.1.4c-2.4.9-5-.3-5.9-2.7-1-2.3.2-4.9 2.6-5.9zm-86.3-4.1c-.1 0-.1-.1-.2-.1 0 0-2.6-.7-4.4-2.7-.1-.1-.2-.1-.3-.1l-11.3-.4c-.8 0-1.5-.4-2-.9-.5-.6-.8-1.3-.8-2.1v-.1c.1-1.6 1.4-2.9 3-2.8l5.1.5c.5 0 .6-.6.2-.8l-8.7-3.7c-1.5-.7-2.1-2.4-1.4-3.9.7-1.5 2.5-2.1 3.9-1.4l9.4 5.6c.4.2.8-.3.5-.6l-9.5-8.7c-1.2-1.1-1.2-3 0-4.2 1.1-1.2 3-1.2 4.1-.1l9.5 10.1c.3.4.9-.1.6-.5l-5.2-9.5c-.8-1.4-.3-3.2 1.2-4 1.4-.8 3.2-.3 4 1.2l5.7 10.5v.1c.1.2.6 1.3-1.2 4.1-2.3 3.4-1.4 6.5-1.4 6.6.1.2.2.3.4.3.3 0 .5-.3.4-.5 0 0-.8-2.8 1.3-5.9 2-3 1.5-4.5 1.2-4.9l-.2-7c-.1-1.8 1.4-3.2 3-3.3 1.7-.1 3.2 1.3 3.3 3l.4 10.6c0 .1.1.2.1.3.8.7 2.1 2.1 2.4 4.4 0 .1 0 .2.1.3l1.4 1.3-11.4 12.1-3.2-2.8zm85.5 69.3 1 .3h.1c.2 0 .3-.1.4-.3.1-.2-.1-.4-.3-.5l-1.4-.4-.9-.3-8.3-2.5-.8-.2-35.4-10.7-37.7-50c14.7-15.6-2 2.2 12.8-13.6l.6-.7.9-1 34.3 40.5c.1.1.1.1.2.1l10.5 1.9 20.5 3.8 1.2.2h.2l21.7-7.6 1.2 3.2c1.7 4.5 6.8 6.9 11.4 5.1 4.6-1.7 6.9-6.9 5.1-11.4l-.2-.5 23.8-3h.1c.1.1.3.1.4 0l1-.9 10.5-8.9 12.9-11c.1 0 .1-.1.1-.2l12.4-46.6 3 .9.8.2 16 5 .8.2 2.2.7-15.2 54.6-34.9 40.6-.6.7-5.6 6.5c-.2.2-.1.4 0 .6.1.1.2.1.3.1.1 0 .2 0 .3-.1l5.3-6 10.8 50.3 3.2 14.8c-.1.1-.4.3-.7.6-2.4 1.9-10.3 7.3-26.4 11-.3.1-.5.1-.8.2-2.3.5-4.8 1-7.4 1.4-.3.1-.6.1-.8.1-7.8 1.2-17.1 2-28 2H238.9l-.3-1.3-16.6-67.9zm-15.4 210.8L175 397l2.9-2.9 31.6 32.1-2.9 2.9zm3.7-21c.6.6.6 1.2.2 2-.3.6-.9 1.3-1.5 1.9-.5-1.6-.8-3.2-.9-4.6.7-.1 1.6 0 2.2.7zm-1.1-5.7c1 1 .4 2.2-1.1 3.7-.1-1.6.1-3 .3-4.2.3.1.5.3.8.5zm-.6-4.4c-.2.6-.6 1.6-.8 3-1.6-.2-3.3.7-4.4 1.8-.2.1-.2.4 0 .6.1.2.4.2.6 0 1.2-1.2 2.7-1.6 3.7-1.5-.2 1.4-.4 3.1-.3 5.1-1 .3-2 .9-2.8 1.6-.2.1-.2.4 0 .6.2.2.4.2.6 0 .7-.7 1.5-1.1 2.3-1.4.1 1.7.5 3.5 1.1 5.4.5 1.5 1.2 3.1 2.2 4.6 2.6 4.3.3 7.2-.6 8.1l-31.6-32.1 12.9-12.7 1.6 1.9.4.4c0 .1 0 .2.1.3 1.6 8 7 11.7 11.1 13.3.9.4 1.8.7 2.5.8.5 0 1.1.1 1.4.2zm-1.7-1.3c-3.8-1.1-10.9-4.3-12.7-13.7 0-.1 0-.1-.1-.1l6.3-6.2 12.9 13.7-6.4 6.3zm10.8-2.9-3.2-3.4-.5-.6-13-13.7-.5-.6-3.7-3.9 46.6-42.8c.1-.1.1-.2.1-.3l-4.2-35.3c-.2-1.7-.3-3.3-.2-5h3.3c10.9 0 20.1-.8 27.9-2 .3 0 .6-.1.8-.1 2.7-.4 5.2-.9 7.6-1.4l4 43.8c1.1 7.4-2 14.8-8 19.4l-12.8 10.3-2.7 2.2-41.5 33.4zm40.8 45.1-34.3-29.1 2.7-3.1 34.3 29.1-2.7 3.1zm1.8-21.3c1.1.9.5 2.3-.9 4-.6-1.6-1.1-3.1-1.3-4.5.7-.1 1.5-.1 2.2.5zm-1.6-5.6c1.1.9.6 2.1-.7 3.8-.2-1.6-.2-3-.1-4.2.2.1.5.2.8.4zm-1-4.3c-.2.6-.4 1.6-.6 3-.4 0-.8.1-1.2.2-1.1.3-2.2 1-3 2-.2.2-.1.4 0 .6.2.1.4.1.6-.1.7-.8 1.6-1.5 2.6-1.7.3-.1.6-.1.9-.1-.1 1.4-.1 3.2.2 5.1-1 .4-1.9 1-2.6 1.9-.2.2-.1.4 0 .6.2.1.4.1.6 0 .6-.7 1.3-1.3 2.1-1.6.3 1.6.8 3.4 1.6 5.2v.2c.6 1.4 1.5 2.9 2.5 4.4 2.9 4 .9 7.2.2 8.1L227.3 406l11.7-13.8c.1.1 2.4 2.3 2.2 2.1 0 .1.1.2.1.3 2.3 7.9 8.1 11 12.2 12.2 1 .3 1.8.5 2.6.6.7.2 1.2.2 1.6.3zm-1.9-1.1c-3.9-.7-11.3-3.3-13.8-12.6 0-.1 0-.1-.1-.1l4.3-5.1 14.7 11.8-5.1 6zm9.7-3.3-3.4-2.8-.6-.5-14.7-11.8-.6-.5-4.4-3.6 18.1-23.2 15.4-12.4c6.2-4.7 9.4-12.4 8.3-20.1l-4.1-43.9c15.6-3.6 23.6-8.7 26.4-10.9l9.5 54c2.1 7.2.1 15-5.3 20.3l-44.6 55.4z" class="color56327a svgShape"></path><path fill="#56327a" d="m251.6 153.4-4 2.3c-.2.1-.3.4-.1.5.1.1.2.2.3.2.1 0 .1 0 .2-.1l4.5-2.6c.1-.1.2-.2.2-.3 0-.1 0-.3-.1-.3l-7.2-6.5c-.2-.2-.4-.1-.6 0-.1.2-.1.4 0 .6l6.8 6.2zM250.8 142.7c-.9.3-1.3 1.3-1 2.2.3.9 1.3 1.3 2.2 1 .9-.3 1.3-1.3 1-2.2-.3-.9-1.3-1.4-2.2-1zM248.9 140.3s1.5-1 3.4 0c.2.1.4 0 .5-.2.1-.2 0-.4-.2-.5-2.3-1.2-4.1 0-4.2.1-.2.1-.2.4-.1.6.1.1.3.2.6 0zM236.5 148.4c-.9.3-1.3 1.3-1 2.2.3.9 1.3 1.3 2.2 1 .9-.3 1.3-1.3 1-2.2-.4-.9-1.4-1.3-2.2-1zM236.5 144.6c-.1-.2-.3-.3-.5-.3-.1 0-2.2.6-2.7 3.2-.1.2.1.4.3.5h.1c.2 0 .3-.1.4-.3.4-2.1 2.1-2.6 2.2-2.6.2-.1.3-.3.2-.5zM251.1 161.6c-1.9 1-4.5.4-4.8 1.5-.3.7.7 1.6 1.3 2 2.6 1.8 6.2 1.3 7.7-1.7.5-1 .8-2.2.7-3.1 0-.5-.2-1.3-.7-1.5-1.1-.5-2 1.9-4.2 2.8zm3.9-2.1c.1.1.4.7.2 1.7-.5 4-4.6 5.3-7.5 3-.5-.4-.7-.7-.7-.9.2-.4 2.6 0 4.4-1 1.9-.8 3.2-2.8 3.6-2.8zM385.5 160.3c0 .2.2.4.4.4h30.7c.2 0 .4-.2.4-.4s-.2-.4-.4-.4h-30.7c-.2 0-.4.1-.4.4zM385.9 165.9c-.2 0-.4.2-.4.4s.2.4.4.4h18.4c.2 0 .4-.2.4-.4s-.2-.4-.4-.4h-18.4zM245.1 439.1h-87l-32.4-32.4c-.1-.1-.2-.1-.3-.1h-1.7v-57.2h43.8c1.9 0 3.4-1.5 3.4-3.4v-5.9c0-1.9-1.5-3.4-3.4-3.4H151l4.2-29.1h2.2c.3 0 .5-.3.4-.6l-2.6-5.5c-.1-.1-.2-.2-.4-.2h-2l-1.9-3.9c-.1-.1-.2-.2-.4-.2h-19.3c-.2 0-.3.1-.4.2l-1.9 3.9h-2c-.2 0-.3.1-.4.2l-2.6 5.5c-.1.3.1.6.4.6h2.2l4.2 29.1h-11.5c2.2-1.2 3.7-3.4 3.7-6.1 0-3.8-3.1-6.9-6.9-6.9H69.5c-.9 0-1.7.8-1.7 1.7 0 .9.8 1.7 1.7 1.7h.2v7h-.2c-.9 0-1.7.8-1.7 1.7 0 .3.1.6.3.9h-.6c-1.9 0-3.4 1.5-3.4 3.4v5.9c0 1.9 1.5 3.4 3.4 3.4h43.8v57.2h-1.7c-.1 0-.2 0-.3.1l-32.4 32.4H50c-.2 0-.4.2-.4.4s.2.4.4.4h195.2c.2 0 .4-.2.4-.4s-.3-.4-.5-.4zm-95.4 0-23.8-14.2V408l31.1 31.1h-7.3zm-35.4 0-4.2-13.6h14.8l-4.2 13.6h-6.4zm-5-13.4 4.1 13.4H86.9l22.4-13.4zm16.4 0 22.4 13.4h-26.5l4.1-13.4zm5.8-127.6h18.8l1.6 3.3h-22.1l1.7-3.3zm-4.3 4.1h27.4l2.2 4.7H125l2.2-4.7zm.1 5.5h27.1l-4.2 29.1h-18.6l-4.3-29.1zM116 324.6c3.4 0 6.1 2.7 6.1 6.1 0 3.4-2.7 6.1-6.1 6.1H99.5c.1-.1.2-.1.3-.2 0 0 .1 0 .1-.1.8-.5 1.8-1.5 2.2-2.1.1-.2.2-.3.3-.5l.3-.6c.1-.3.4-1.2.4-1.8 0-.1.1-.6 0-1.1v-.2c0-1.7-1.6-4.3-3.3-5.2-.1-.1-.2-.1-.2-.1l-.1-.1H116zm-18.2.2c2.9.6 4.9 3.5 4.6 6.5 0 .4-.1.8-.2 1.2 0 0-.1.4-.2.5-.6 1.8-2.7 3.5-5.2 3.8H70.5V335h25.7c2.3 0 4.3-1.8 4.4-4.1.1-2.5-1.9-4.5-4.3-4.5H70.5v-1.8c25.3 0 26.8-.1 27.3.2zm-28.2 1.6c-.5 0-.9-.4-.9-.9s.4-.9.9-.9h.2v1.8h-.2zm.9 4.7h10.7c.2 0 .4-.2.4-.4s-.2-.4-.4-.4H70.5v-3.1h25.8c2 0 3.6 1.7 3.5 3.7-.1 1.9-1.7 3.3-3.6 3.3H70.5v-3.1zm-1.8 4.8c0-.5.4-.9.9-.9h.2v1.8h-.2c-.5 0-.9-.4-.9-.9zm-1.2 12.7c-1.4 0-2.6-1.1-2.6-2.6v-5.9c0-1.4 1.1-2.6 2.6-2.6H131c.1.1.1.1.2.1h19.3c.1 0 .2 0 .2-.1h16.7c1.4 0 2.6 1.2 2.6 2.6v5.9c0 1.4-1.1 2.6-2.6 2.6H67.5zm44.2 58.8H125v17.3h-15v-17.3H111.7zm-2.5.5v16.9L85.4 439h-7.3l31.1-31.1zM370 439.1h-99.4c-.2 0-.4.2-.4.4s.2.4.4.4H370c.2 0 .4-.2.4-.4s-.2-.4-.4-.4zM450 439.1h-71.4c-12.9-14.6-12.1-42.8-12-46.4h26.1v4.6h.8v-4.6h21.3c.2 0 .4-.2.4-.4s-.2-.4-.4-.4h-21.3v-5c.1 0 .1-.1.2-.1 6.8-7.7 16.2-11 27.3-9.8.2 0 .4-.1.4-.4 0-.2-.1-.4-.4-.4-11.1-1.3-20.6 2-27.6 9.5V368c6.5-12.5 17.8-15.6 23.9-16.4.2 0 .4-.2.3-.4 0-.2-.2-.4-.4-.3-6.1.8-17 3.9-23.8 15.6v-8.1c0-4.5-.4-8.8-1.2-12.9-.2-.9-.3-1.6-.5-2.2-3.2-12.4-11.6-20.8-25.7-25.6-.2-.1-.4 0-.5.3-.1.2 0 .4.3.5 13.8 4.7 22.1 12.9 25.2 25 .2.6.3 1.3.5 2.1.8 4.1 1.1 8.4 1.1 12.8v8c-6.8-11.7-17.7-14.8-23.8-15.5-.2 0-.4.1-.4.3 0 .2.1.4.3.4 6.1.8 17.3 4 23.9 16.4v17.7c-6.9-7.5-16.4-10.8-27.5-9.5-.2 0-.4.2-.4.4s.2.4.4.4c11.1-1.3 20.5 2.1 27.3 9.8 0 0 .1 0 .1.1v5H366c-.2 0-.4.2-.4.4 0 .3-1.9 31.8 12.3 47.5l.1.1h72c.2 0 .4-.2.4-.4s-.2-.4-.4-.4z" class="color56327a svgShape"></path><path fill="#56327a" d="M140.9 316.5c-2.3 0-4.1 1.8-4.1 4.1s1.8 4.1 4.1 4.1 4.1-1.8 4.1-4.1-1.9-4.1-4.1-4.1zm0 7.4c-1.8 0-3.3-1.5-3.3-3.3 0-1.8 1.5-3.3 3.3-3.3 1.8 0 3.3 1.5 3.3 3.3 0 1.8-1.5 3.3-3.3 3.3zM97.1 330.7c0-.2-.2-.4-.4-.4H83.9c-.2 0-.4.2-.4.4s.2.4.4.4h12.8c.2 0 .4-.2.4-.4z" class="color56327a svgShape"></path></svg></g></svg>